M48
INCH,TZ
T1C0.0118
T2C0.0157
T3C0.0197
T4C0.0236
T5C0.0283
T6C0.0300
T7C0.0394
%
G90
G05
T1
X78083Y-41988
X78110Y-42799
X78890Y-40000
T2
X68112Y-53817
X68819Y-51457
X68949Y-50185
X68976Y-44291
X69413Y-50134
X69504Y-54520
X69728Y-46654
X69807Y-48602
X69957Y-50449
X69992Y-42709
X70122Y-45634
X70134Y-51988
X70181Y-53366
X70476Y-49563
X71094Y-43413
X71705Y-49776
X72205Y-49961
X73530Y-47533
X75470Y-51345
X75470Y-51919
X75476Y-53098
X76241Y-53117
X76331Y-51543
X76657Y-51961
X76929Y-52835
X77035Y-44370
X77035Y-45335
X77232Y-52005
X77638Y-51614
X78031Y-47756
X78031Y-53031
X78189Y-56260
X78411Y-44370
X78413Y-45335
X78858Y-49291
X78886Y-53134
X79370Y-56929
X79398Y-52402
X79787Y-44370
X79791Y-45335
X79874Y-53134
X81163Y-44370
X81169Y-45335
X81732Y-57717
X81929Y-49764
X82008Y-53740
X82547Y-44370
X82547Y-45335
X84047Y-44370
X84083Y-45335
X85512Y-44378
X85512Y-45343
T4
X66386Y-54854
X66386Y-55839
X66386Y-56823
T5
X66295Y-50896
X66295Y-51880
T6
X85823Y-41197
X85823Y-42181
T7
X89016Y-50307
X89016Y-51307
X89016Y-52307
X89016Y-53307
T3
G00X67142Y-39000
M15
G01X67142Y-38764
M16
G05
G00X67283Y-41343
M15
G01X67283Y-41106
M16
G05
G00X70535Y-41343
M15
G01X70535Y-41106
M16
G05
G00X70677Y-39000
M15
G01X70677Y-38764
M16
G05
T0
M30
