%TF.GenerationSoftware,KiCad,Pcbnew,(6.0.1-0)*%
%TF.CreationDate,2022-05-03T07:14:42+06:00*%
%TF.ProjectId,Sound Sensor,536f756e-6420-4536-956e-736f722e6b69,rev?*%
%TF.SameCoordinates,Original*%
%TF.FileFunction,Plated,1,4,PTH,Mixed*%
%TF.FilePolarity,Positive*%
%FSLAX46Y46*%
G04 Gerber Fmt 4.6, Leading zero omitted, Abs format (unit mm)*
G04 Created by KiCad (PCBNEW (6.0.1-0)) date 2022-05-03 07:14:42*
%MOMM*%
%LPD*%
G01*
G04 APERTURE LIST*
%TA.AperFunction,ViaDrill*%
%ADD10C,0.300000*%
%TD*%
%TA.AperFunction,ViaDrill*%
%ADD11C,0.400000*%
%TD*%
G04 aperture for slot hole*
%TA.AperFunction,ComponentDrill*%
%ADD12O,0.500000X1.100000*%
%TD*%
%TA.AperFunction,ComponentDrill*%
%ADD13C,0.600000*%
%TD*%
%TA.AperFunction,ComponentDrill*%
%ADD14C,0.720000*%
%TD*%
%TA.AperFunction,ComponentDrill*%
%ADD15C,0.762000*%
%TD*%
%TA.AperFunction,ComponentDrill*%
%ADD16C,1.000000*%
%TD*%
G04 APERTURE END LIST*
D10*
X198330000Y-106650000D03*
X198400000Y-108710000D03*
X200380000Y-101600000D03*
D11*
X173005000Y-136695000D03*
X174800000Y-130700000D03*
X175130000Y-127470000D03*
X175200000Y-112500000D03*
X176310000Y-127340000D03*
X176540000Y-138480000D03*
X177110000Y-118500000D03*
X177310000Y-123450000D03*
X177690000Y-128140000D03*
X177780000Y-108480000D03*
X178110000Y-115910000D03*
X178140000Y-132050000D03*
X178260000Y-135550000D03*
X179010000Y-125890000D03*
X180580000Y-110270000D03*
X182130000Y-126430000D03*
X183400000Y-126900000D03*
X186765000Y-120735000D03*
X191693459Y-130415500D03*
X191693459Y-131873459D03*
X191710000Y-134870000D03*
X193651577Y-134916342D03*
X193880000Y-130920000D03*
X194710000Y-131980000D03*
X195400000Y-134200000D03*
X195670000Y-112700000D03*
X195670000Y-115150000D03*
X196169001Y-132093798D03*
X197200000Y-131100000D03*
X198200000Y-121300000D03*
X198200000Y-134700000D03*
X198600000Y-142900000D03*
X199165000Y-112700000D03*
X199170000Y-115150000D03*
X200300000Y-125200000D03*
X200370000Y-134960000D03*
X201600000Y-144600000D03*
X201670000Y-133100000D03*
X202660000Y-112700000D03*
X202670000Y-115150000D03*
X202880000Y-134960000D03*
X206155000Y-112700000D03*
X206170000Y-115150000D03*
X207600000Y-146600000D03*
X208100000Y-126400000D03*
X208300000Y-136500000D03*
X209670000Y-112700000D03*
X209670000Y-115150000D03*
X213480000Y-112700000D03*
X213570000Y-115150000D03*
X217200000Y-112720000D03*
X217200000Y-115170000D03*
D12*
%TO.C,J1*%
X170540000Y-98760000D03*
X170900000Y-104710000D03*
X179160000Y-104710000D03*
X179520000Y-98760000D03*
D13*
%TO.C,RV1*%
X168620000Y-139330000D03*
X168620000Y-141830000D03*
X168620000Y-144330000D03*
D14*
%TO.C,MK1*%
X168390000Y-129275000D03*
X168390000Y-131775000D03*
D15*
%TO.C,C6*%
X217990000Y-104640500D03*
X217990000Y-107140500D03*
D16*
%TO.C,J2*%
X226100000Y-127780000D03*
X226100000Y-130320000D03*
X226100000Y-132860000D03*
X226100000Y-135400000D03*
M02*
