%TF.GenerationSoftware,KiCad,Pcbnew,(6.0.1-0)*%
%TF.CreationDate,2022-05-03T07:12:27+06:00*%
%TF.ProjectId,Sound Sensor,536f756e-6420-4536-956e-736f722e6b69,rev?*%
%TF.SameCoordinates,Original*%
%TF.FileFunction,Paste,Top*%
%TF.FilePolarity,Positive*%
%FSLAX46Y46*%
G04 Gerber Fmt 4.6, Leading zero omitted, Abs format (unit mm)*
G04 Created by KiCad (PCBNEW (6.0.1-0)) date 2022-05-03 07:12:27*
%MOMM*%
%LPD*%
G01*
G04 APERTURE LIST*
G04 Aperture macros list*
%AMRoundRect*
0 Rectangle with rounded corners*
0 $1 Rounding radius*
0 $2 $3 $4 $5 $6 $7 $8 $9 X,Y pos of 4 corners*
0 Add a 4 corners polygon primitive as box body*
4,1,4,$2,$3,$4,$5,$6,$7,$8,$9,$2,$3,0*
0 Add four circle primitives for the rounded corners*
1,1,$1+$1,$2,$3*
1,1,$1+$1,$4,$5*
1,1,$1+$1,$6,$7*
1,1,$1+$1,$8,$9*
0 Add four rect primitives between the rounded corners*
20,1,$1+$1,$2,$3,$4,$5,0*
20,1,$1+$1,$4,$5,$6,$7,0*
20,1,$1+$1,$6,$7,$8,$9,0*
20,1,$1+$1,$8,$9,$2,$3,0*%
G04 Aperture macros list end*
%ADD10C,0.100000*%
%ADD11RoundRect,0.200000X0.200000X0.275000X-0.200000X0.275000X-0.200000X-0.275000X0.200000X-0.275000X0*%
%ADD12RoundRect,0.140000X0.140000X0.170000X-0.140000X0.170000X-0.140000X-0.170000X0.140000X-0.170000X0*%
%ADD13R,1.500000X0.600000*%
%ADD14RoundRect,0.250000X-2.450000X0.650000X-2.450000X-0.650000X2.450000X-0.650000X2.450000X0.650000X0*%
%ADD15RoundRect,0.200000X-0.200000X-0.275000X0.200000X-0.275000X0.200000X0.275000X-0.200000X0.275000X0*%
%ADD16RoundRect,0.250000X0.250000X0.475000X-0.250000X0.475000X-0.250000X-0.475000X0.250000X-0.475000X0*%
%ADD17RoundRect,0.200000X-0.275000X0.200000X-0.275000X-0.200000X0.275000X-0.200000X0.275000X0.200000X0*%
%ADD18RoundRect,0.140000X-0.140000X-0.170000X0.140000X-0.170000X0.140000X0.170000X-0.140000X0.170000X0*%
%ADD19RoundRect,0.140000X-0.170000X0.140000X-0.170000X-0.140000X0.170000X-0.140000X0.170000X0.140000X0*%
%ADD20RoundRect,0.008100X-0.551900X-0.126900X0.551900X-0.126900X0.551900X0.126900X-0.551900X0.126900X0*%
%ADD21R,0.300000X0.700000*%
%ADD22R,0.700000X1.925000*%
%ADD23R,1.925000X0.700000*%
%ADD24R,0.800000X0.900000*%
%ADD25R,2.000000X1.500000*%
%ADD26R,2.000000X3.800000*%
%ADD27RoundRect,0.218750X-0.218750X-0.381250X0.218750X-0.381250X0.218750X0.381250X-0.218750X0.381250X0*%
%ADD28R,0.350000X0.200000*%
%ADD29R,3.025000X3.325000*%
%ADD30R,3.025000X3.025000*%
%ADD31R,3.200000X3.375000*%
%ADD32R,3.225000X3.025000*%
%ADD33R,2.800000X1.500000*%
%ADD34RoundRect,0.200000X0.275000X-0.200000X0.275000X0.200000X-0.275000X0.200000X-0.275000X-0.200000X0*%
%ADD35R,1.447800X1.701800*%
%ADD36R,2.209800X3.302000*%
G04 APERTURE END LIST*
D10*
X203923150Y-104489976D02*
X203923150Y-104890026D01*
X203923150Y-104890026D02*
X204723250Y-104890026D01*
X204723250Y-104890026D02*
X204723250Y-104489976D01*
X204723250Y-104489976D02*
X203923150Y-104489976D01*
G36*
X204723250Y-104890026D02*
G01*
X203923150Y-104890026D01*
X203923150Y-104489976D01*
X204723250Y-104489976D01*
X204723250Y-104890026D01*
G37*
X204723250Y-104890026D02*
X203923150Y-104890026D01*
X203923150Y-104489976D01*
X204723250Y-104489976D01*
X204723250Y-104890026D01*
X198916750Y-108489975D02*
X198916750Y-108890025D01*
X198916750Y-108890025D02*
X199716850Y-108890025D01*
X199716850Y-108890025D02*
X199716850Y-108489975D01*
X199716850Y-108489975D02*
X198916750Y-108489975D01*
G36*
X199716850Y-108890025D02*
G01*
X198916750Y-108890025D01*
X198916750Y-108489975D01*
X199716850Y-108489975D01*
X199716850Y-108890025D01*
G37*
X199716850Y-108890025D02*
X198916750Y-108890025D01*
X198916750Y-108489975D01*
X199716850Y-108489975D01*
X199716850Y-108890025D01*
X200320051Y-106389949D02*
X200320051Y-108689949D01*
X200320051Y-108689949D02*
X201720051Y-108689949D01*
X201720051Y-108689949D02*
X201720051Y-106389949D01*
X201720051Y-106389949D02*
X200320051Y-106389949D01*
G36*
X201720051Y-108689949D02*
G01*
X200320051Y-108689949D01*
X200320051Y-106389949D01*
X201720051Y-106389949D01*
X201720051Y-108689949D01*
G37*
X201720051Y-108689949D02*
X200320051Y-108689949D01*
X200320051Y-106389949D01*
X201720051Y-106389949D01*
X201720051Y-108689949D01*
X198916750Y-106889973D02*
X198916750Y-107290023D01*
X198916750Y-107290023D02*
X199716850Y-107290023D01*
X199716850Y-107290023D02*
X199716850Y-106889973D01*
X199716850Y-106889973D02*
X198916750Y-106889973D01*
G36*
X199716850Y-107290023D02*
G01*
X198916750Y-107290023D01*
X198916750Y-106889973D01*
X199716850Y-106889973D01*
X199716850Y-107290023D01*
G37*
X199716850Y-107290023D02*
X198916750Y-107290023D01*
X198916750Y-106889973D01*
X199716850Y-106889973D01*
X199716850Y-107290023D01*
X198916750Y-103689975D02*
X198916750Y-104090025D01*
X198916750Y-104090025D02*
X199716850Y-104090025D01*
X199716850Y-104090025D02*
X199716850Y-103689975D01*
X199716850Y-103689975D02*
X198916750Y-103689975D01*
G36*
X199716850Y-104090025D02*
G01*
X198916750Y-104090025D01*
X198916750Y-103689975D01*
X199716850Y-103689975D01*
X199716850Y-104090025D01*
G37*
X199716850Y-104090025D02*
X198916750Y-104090025D01*
X198916750Y-103689975D01*
X199716850Y-103689975D01*
X199716850Y-104090025D01*
X201919949Y-103890051D02*
X201919949Y-106190051D01*
X201919949Y-106190051D02*
X203319949Y-106190051D01*
X203319949Y-106190051D02*
X203319949Y-103890051D01*
X203319949Y-103890051D02*
X201919949Y-103890051D01*
G36*
X203319949Y-106190051D02*
G01*
X201919949Y-106190051D01*
X201919949Y-103890051D01*
X203319949Y-103890051D01*
X203319949Y-106190051D01*
G37*
X203319949Y-106190051D02*
X201919949Y-106190051D01*
X201919949Y-103890051D01*
X203319949Y-103890051D01*
X203319949Y-106190051D01*
X198916750Y-105289974D02*
X198916750Y-105690024D01*
X198916750Y-105690024D02*
X199716850Y-105690024D01*
X199716850Y-105690024D02*
X199716850Y-105289974D01*
X199716850Y-105289974D02*
X198916750Y-105289974D01*
G36*
X199716850Y-105690024D02*
G01*
X198916750Y-105690024D01*
X198916750Y-105289974D01*
X199716850Y-105289974D01*
X199716850Y-105690024D01*
G37*
X199716850Y-105690024D02*
X198916750Y-105690024D01*
X198916750Y-105289974D01*
X199716850Y-105289974D01*
X199716850Y-105690024D01*
X198916750Y-107689974D02*
X198916750Y-108090024D01*
X198916750Y-108090024D02*
X199716850Y-108090024D01*
X199716850Y-108090024D02*
X199716850Y-107689974D01*
X199716850Y-107689974D02*
X198916750Y-107689974D01*
G36*
X199716850Y-108090024D02*
G01*
X198916750Y-108090024D01*
X198916750Y-107689974D01*
X199716850Y-107689974D01*
X199716850Y-108090024D01*
G37*
X199716850Y-108090024D02*
X198916750Y-108090024D01*
X198916750Y-107689974D01*
X199716850Y-107689974D01*
X199716850Y-108090024D01*
X198916750Y-106089975D02*
X198916750Y-106490025D01*
X198916750Y-106490025D02*
X199716850Y-106490025D01*
X199716850Y-106490025D02*
X199716850Y-106089975D01*
X199716850Y-106089975D02*
X198916750Y-106089975D01*
G36*
X199716850Y-106490025D02*
G01*
X198916750Y-106490025D01*
X198916750Y-106089975D01*
X199716850Y-106089975D01*
X199716850Y-106490025D01*
G37*
X199716850Y-106490025D02*
X198916750Y-106490025D01*
X198916750Y-106089975D01*
X199716850Y-106089975D01*
X199716850Y-106490025D01*
X203923150Y-106089975D02*
X203923150Y-106490025D01*
X203923150Y-106490025D02*
X204723250Y-106490025D01*
X204723250Y-106490025D02*
X204723250Y-106089975D01*
X204723250Y-106089975D02*
X203923150Y-106089975D01*
G36*
X204723250Y-106490025D02*
G01*
X203923150Y-106490025D01*
X203923150Y-106089975D01*
X204723250Y-106089975D01*
X204723250Y-106490025D01*
G37*
X204723250Y-106490025D02*
X203923150Y-106490025D01*
X203923150Y-106089975D01*
X204723250Y-106089975D01*
X204723250Y-106490025D01*
X203923150Y-108489975D02*
X203923150Y-108890025D01*
X203923150Y-108890025D02*
X204723250Y-108890025D01*
X204723250Y-108890025D02*
X204723250Y-108489975D01*
X204723250Y-108489975D02*
X203923150Y-108489975D01*
G36*
X204723250Y-108890025D02*
G01*
X203923150Y-108890025D01*
X203923150Y-108489975D01*
X204723250Y-108489975D01*
X204723250Y-108890025D01*
G37*
X204723250Y-108890025D02*
X203923150Y-108890025D01*
X203923150Y-108489975D01*
X204723250Y-108489975D01*
X204723250Y-108890025D01*
X201919949Y-106389949D02*
X201919949Y-108689949D01*
X201919949Y-108689949D02*
X203319949Y-108689949D01*
X203319949Y-108689949D02*
X203319949Y-106389949D01*
X203319949Y-106389949D02*
X201919949Y-106389949D01*
G36*
X203319949Y-108689949D02*
G01*
X201919949Y-108689949D01*
X201919949Y-106389949D01*
X203319949Y-106389949D01*
X203319949Y-108689949D01*
G37*
X203319949Y-108689949D02*
X201919949Y-108689949D01*
X201919949Y-106389949D01*
X203319949Y-106389949D01*
X203319949Y-108689949D01*
X203923150Y-106889976D02*
X203923150Y-107290026D01*
X203923150Y-107290026D02*
X204723250Y-107290026D01*
X204723250Y-107290026D02*
X204723250Y-106889976D01*
X204723250Y-106889976D02*
X203923150Y-106889976D01*
G36*
X204723250Y-107290026D02*
G01*
X203923150Y-107290026D01*
X203923150Y-106889976D01*
X204723250Y-106889976D01*
X204723250Y-107290026D01*
G37*
X204723250Y-107290026D02*
X203923150Y-107290026D01*
X203923150Y-106889976D01*
X204723250Y-106889976D01*
X204723250Y-107290026D01*
X200320051Y-103890051D02*
X200320051Y-106190051D01*
X200320051Y-106190051D02*
X201720051Y-106190051D01*
X201720051Y-106190051D02*
X201720051Y-103890051D01*
X201720051Y-103890051D02*
X200320051Y-103890051D01*
G36*
X201720051Y-106190051D02*
G01*
X200320051Y-106190051D01*
X200320051Y-103890051D01*
X201720051Y-103890051D01*
X201720051Y-106190051D01*
G37*
X201720051Y-106190051D02*
X200320051Y-106190051D01*
X200320051Y-103890051D01*
X201720051Y-103890051D01*
X201720051Y-106190051D01*
X203923150Y-105289977D02*
X203923150Y-105690027D01*
X203923150Y-105690027D02*
X204723250Y-105690027D01*
X204723250Y-105690027D02*
X204723250Y-105289977D01*
X204723250Y-105289977D02*
X203923150Y-105289977D01*
G36*
X204723250Y-105690027D02*
G01*
X203923150Y-105690027D01*
X203923150Y-105289977D01*
X204723250Y-105289977D01*
X204723250Y-105690027D01*
G37*
X204723250Y-105690027D02*
X203923150Y-105690027D01*
X203923150Y-105289977D01*
X204723250Y-105289977D01*
X204723250Y-105690027D01*
X203923150Y-103689975D02*
X203923150Y-104090025D01*
X203923150Y-104090025D02*
X204723250Y-104090025D01*
X204723250Y-104090025D02*
X204723250Y-103689975D01*
X204723250Y-103689975D02*
X203923150Y-103689975D01*
G36*
X204723250Y-104090025D02*
G01*
X203923150Y-104090025D01*
X203923150Y-103689975D01*
X204723250Y-103689975D01*
X204723250Y-104090025D01*
G37*
X204723250Y-104090025D02*
X203923150Y-104090025D01*
X203923150Y-103689975D01*
X204723250Y-103689975D01*
X204723250Y-104090025D01*
X198916750Y-104489976D02*
X198916750Y-104890026D01*
X198916750Y-104890026D02*
X199716850Y-104890026D01*
X199716850Y-104890026D02*
X199716850Y-104489976D01*
X199716850Y-104489976D02*
X198916750Y-104489976D01*
G36*
X199716850Y-104890026D02*
G01*
X198916750Y-104890026D01*
X198916750Y-104489976D01*
X199716850Y-104489976D01*
X199716850Y-104890026D01*
G37*
X199716850Y-104890026D02*
X198916750Y-104890026D01*
X198916750Y-104489976D01*
X199716850Y-104489976D01*
X199716850Y-104890026D01*
X203923150Y-107689974D02*
X203923150Y-108090024D01*
X203923150Y-108090024D02*
X204723250Y-108090024D01*
X204723250Y-108090024D02*
X204723250Y-107689974D01*
X204723250Y-107689974D02*
X203923150Y-107689974D01*
G36*
X204723250Y-108090024D02*
G01*
X203923150Y-108090024D01*
X203923150Y-107689974D01*
X204723250Y-107689974D01*
X204723250Y-108090024D01*
G37*
X204723250Y-108090024D02*
X203923150Y-108090024D01*
X203923150Y-107689974D01*
X204723250Y-107689974D01*
X204723250Y-108090024D01*
D11*
X178115000Y-130670000D03*
X176465000Y-130670000D03*
D12*
X202390000Y-101609000D03*
X201430000Y-101609000D03*
D11*
X176895000Y-125850000D03*
X175245000Y-125850000D03*
D13*
X179010000Y-120735000D03*
X179010000Y-122005000D03*
X179010000Y-123275000D03*
X179010000Y-124545000D03*
X184510000Y-124545000D03*
X184510000Y-123275000D03*
X184510000Y-122005000D03*
X184510000Y-120735000D03*
D14*
X187020000Y-104639000D03*
X187020000Y-109739000D03*
X193210000Y-104669000D03*
X193210000Y-109769000D03*
D15*
X202755000Y-144740000D03*
X204405000Y-144740000D03*
D16*
X178620000Y-112480000D03*
X176720000Y-112480000D03*
D17*
X170240000Y-120405000D03*
X170240000Y-122055000D03*
D18*
X176790000Y-129310000D03*
X177750000Y-129310000D03*
D15*
X203425000Y-133520000D03*
X205075000Y-133520000D03*
D19*
X197990000Y-104729000D03*
X197990000Y-105689000D03*
D20*
X197445000Y-122640000D03*
X197445000Y-123140000D03*
X197445000Y-123640000D03*
X197445000Y-124140000D03*
X200255000Y-124140000D03*
X200255000Y-123640000D03*
X200255000Y-123140000D03*
X200255000Y-122640000D03*
D17*
X172000000Y-120405000D03*
X172000000Y-122055000D03*
D20*
X197385000Y-143990000D03*
X197385000Y-144490000D03*
X197385000Y-144990000D03*
X197385000Y-145490000D03*
X200195000Y-145490000D03*
X200195000Y-144990000D03*
X200195000Y-144490000D03*
X200195000Y-143990000D03*
D21*
X177780000Y-106620000D03*
X177280000Y-106620000D03*
X176780000Y-106620000D03*
X176280000Y-106620000D03*
X175780000Y-106620000D03*
X175280000Y-106620000D03*
X174780000Y-106620000D03*
X174280000Y-106620000D03*
X173780000Y-106620000D03*
X173280000Y-106620000D03*
X172780000Y-106620000D03*
X172280000Y-106620000D03*
X172530000Y-104920000D03*
X173030000Y-104920000D03*
X173530000Y-104920000D03*
X174030000Y-104920000D03*
X174530000Y-104920000D03*
X175030000Y-104920000D03*
X175530000Y-104920000D03*
X176030000Y-104920000D03*
X176530000Y-104920000D03*
X177030000Y-104920000D03*
X177530000Y-104920000D03*
X178030000Y-104920000D03*
D22*
X184670000Y-128957500D03*
X183400000Y-128957500D03*
X182130000Y-128957500D03*
D23*
X180617500Y-130470000D03*
X180617500Y-131740000D03*
X180617500Y-133010000D03*
X180617500Y-134280000D03*
X180617500Y-135550000D03*
D22*
X182130000Y-137062500D03*
X183400000Y-137062500D03*
X184670000Y-137062500D03*
X185940000Y-137062500D03*
X187210000Y-137062500D03*
D23*
X188722500Y-135550000D03*
X188722500Y-134280000D03*
X188722500Y-133010000D03*
X188722500Y-131740000D03*
X188722500Y-130470000D03*
D22*
X187210000Y-128957500D03*
X185940000Y-128957500D03*
D20*
X197445000Y-132100000D03*
X197445000Y-132600000D03*
X197445000Y-133100000D03*
X197445000Y-133600000D03*
X200255000Y-133600000D03*
X200255000Y-133100000D03*
X200255000Y-132600000D03*
X200255000Y-132100000D03*
D24*
X174130000Y-124030000D03*
X176030000Y-124030000D03*
X175080000Y-122030000D03*
D25*
X211100000Y-142050000D03*
X211100000Y-144350000D03*
X211100000Y-146650000D03*
D26*
X217400000Y-144350000D03*
D15*
X203355000Y-122480000D03*
X205005000Y-122480000D03*
D27*
X210997500Y-104569000D03*
X213122500Y-104569000D03*
D28*
X193280000Y-131870000D03*
X193280000Y-132370000D03*
X193280000Y-132870000D03*
X193280000Y-133370000D03*
X193880000Y-133370000D03*
X193880000Y-132870000D03*
X193880000Y-132370000D03*
X193880000Y-131870000D03*
D17*
X168380000Y-120425000D03*
X168380000Y-122075000D03*
D29*
X189205000Y-113205000D03*
D30*
X189205000Y-116380000D03*
D31*
X186067500Y-113180000D03*
D32*
X186080000Y-116380000D03*
D33*
X181242500Y-112437500D03*
X181242500Y-116997500D03*
D25*
X211220000Y-121640000D03*
X211220000Y-123940000D03*
X211220000Y-126240000D03*
D26*
X217520000Y-123940000D03*
D15*
X174155000Y-117420000D03*
X175805000Y-117420000D03*
D12*
X179070000Y-117060000D03*
X178110000Y-117060000D03*
D25*
X211220000Y-131820000D03*
X211220000Y-134120000D03*
X211220000Y-136420000D03*
D26*
X217520000Y-134120000D03*
D11*
X173025000Y-139140000D03*
X171375000Y-139140000D03*
D17*
X176950000Y-133555000D03*
X176950000Y-135205000D03*
D34*
X174980000Y-136695000D03*
X174980000Y-135045000D03*
D35*
X208103450Y-104620900D03*
D36*
X208103450Y-107884800D03*
D15*
X174165000Y-120370000D03*
X175815000Y-120370000D03*
M02*
