%TF.GenerationSoftware,KiCad,Pcbnew,(6.0.1-0)*%
%TF.CreationDate,2022-04-24T11:22:29+06:00*%
%TF.ProjectId,Sound Sensor,536f756e-6420-4536-956e-736f722e6b69,rev?*%
%TF.SameCoordinates,Original*%
%TF.FileFunction,Copper,L2,Inr*%
%TF.FilePolarity,Positive*%
%FSLAX46Y46*%
G04 Gerber Fmt 4.6, Leading zero omitted, Abs format (unit mm)*
G04 Created by KiCad (PCBNEW (6.0.1-0)) date 2022-04-24 11:22:29*
%MOMM*%
%LPD*%
G01*
G04 APERTURE LIST*
%TA.AperFunction,ComponentPad*%
%ADD10O,1.200000X2.000000*%
%TD*%
%TA.AperFunction,ComponentPad*%
%ADD11R,1.700000X1.700000*%
%TD*%
%TA.AperFunction,ComponentPad*%
%ADD12O,1.700000X1.700000*%
%TD*%
%TA.AperFunction,ComponentPad*%
%ADD13C,1.228000*%
%TD*%
%TA.AperFunction,ViaPad*%
%ADD14C,0.500000*%
%TD*%
G04 APERTURE END LIST*
D10*
X201040000Y-66140000D03*
X203540000Y-66140000D03*
X206040000Y-66140000D03*
D11*
X193900000Y-43275000D03*
D12*
X193900000Y-40735000D03*
D13*
X193000000Y-56750000D03*
X193000000Y-54250000D03*
D14*
X212780000Y-60000000D03*
X216250000Y-46380000D03*
X217300000Y-64660000D03*
X210640000Y-47300000D03*
X203480000Y-45750000D03*
X205407500Y-36987500D03*
X198880000Y-49240000D03*
X214190000Y-44030000D03*
X206480000Y-44450000D03*
X217550000Y-45860000D03*
X212610000Y-66320000D03*
X210690000Y-57810000D03*
X204790000Y-50460000D03*
X222900000Y-59480000D03*
X216110000Y-58380000D03*
X215430000Y-65280000D03*
X221200000Y-62450000D03*
X201930000Y-60370000D03*
X209070000Y-45800000D03*
X207880000Y-52310000D03*
X212660000Y-51040000D03*
X218960000Y-45310000D03*
X214130000Y-65260000D03*
X224690000Y-51050000D03*
X216085000Y-60955000D03*
%TA.AperFunction,Conductor*%
G36*
X207227415Y-31515390D02*
G01*
X207233130Y-31515549D01*
X207305176Y-31519199D01*
X207933299Y-31551017D01*
X207962351Y-31555940D01*
X215852663Y-33867949D01*
X215878125Y-33878556D01*
X216250856Y-34084315D01*
X216255797Y-34087190D01*
X216620738Y-34310826D01*
X216985697Y-34534473D01*
X216990469Y-34537548D01*
X217535288Y-34906418D01*
X217699345Y-35017493D01*
X217704005Y-35020805D01*
X218058487Y-35285028D01*
X218073713Y-35298411D01*
X222262533Y-39625164D01*
X222275093Y-39640354D01*
X222480418Y-39932502D01*
X222483598Y-39937253D01*
X222943551Y-40659234D01*
X222946499Y-40664102D01*
X223080922Y-40897872D01*
X223088620Y-40913733D01*
X225129394Y-45996414D01*
X225172514Y-46103808D01*
X225177683Y-46119635D01*
X225204529Y-46224958D01*
X225205815Y-46230528D01*
X225379409Y-47068781D01*
X225380441Y-47074404D01*
X225515830Y-47919664D01*
X225516606Y-47925328D01*
X225613513Y-48775869D01*
X225614031Y-48781563D01*
X225672254Y-49635599D01*
X225672513Y-49641290D01*
X225690748Y-50444821D01*
X225691953Y-50497927D01*
X225691978Y-50502105D01*
X225687922Y-50889413D01*
X225667208Y-50957321D01*
X225613068Y-51003249D01*
X225542692Y-51012617D01*
X225478424Y-50982449D01*
X225440668Y-50922324D01*
X225436714Y-50902138D01*
X225436221Y-50897738D01*
X225434331Y-50880892D01*
X225429670Y-50867506D01*
X225380686Y-50726846D01*
X225378368Y-50720189D01*
X225372383Y-50710610D01*
X225334399Y-50649825D01*
X225288192Y-50575879D01*
X225273298Y-50560880D01*
X225190365Y-50477366D01*
X225168286Y-50455132D01*
X225152039Y-50444821D01*
X225113406Y-50420304D01*
X225024608Y-50363951D01*
X224864300Y-50306868D01*
X224695329Y-50286720D01*
X224688326Y-50287456D01*
X224688325Y-50287456D01*
X224533101Y-50303770D01*
X224533097Y-50303771D01*
X224526093Y-50304507D01*
X224519422Y-50306778D01*
X224371673Y-50357075D01*
X224371670Y-50357076D01*
X224365003Y-50359346D01*
X224359005Y-50363036D01*
X224359003Y-50363037D01*
X224226065Y-50444821D01*
X224226063Y-50444823D01*
X224220066Y-50448512D01*
X224212057Y-50456355D01*
X224105321Y-50560880D01*
X224098486Y-50567573D01*
X224094675Y-50573487D01*
X224094673Y-50573489D01*
X224010121Y-50704687D01*
X224006304Y-50710610D01*
X223948103Y-50870516D01*
X223926775Y-51039343D01*
X223943381Y-51208699D01*
X223945605Y-51215384D01*
X223945605Y-51215385D01*
X223953735Y-51239825D01*
X223997094Y-51370167D01*
X224000741Y-51376189D01*
X224000742Y-51376191D01*
X224079190Y-51505723D01*
X224085246Y-51515723D01*
X224203455Y-51638132D01*
X224209351Y-51641990D01*
X224328760Y-51720129D01*
X224345846Y-51731310D01*
X224352450Y-51733766D01*
X224352452Y-51733767D01*
X224388844Y-51747301D01*
X224505341Y-51790626D01*
X224674015Y-51813132D01*
X224681026Y-51812494D01*
X224681030Y-51812494D01*
X224836462Y-51798348D01*
X224843483Y-51797709D01*
X224850185Y-51795531D01*
X224850187Y-51795531D01*
X224998623Y-51747301D01*
X224998626Y-51747300D01*
X225005322Y-51745124D01*
X225151490Y-51657990D01*
X225156584Y-51653139D01*
X225156588Y-51653136D01*
X225244694Y-51569233D01*
X225274721Y-51540639D01*
X225368891Y-51398902D01*
X225426741Y-51246612D01*
X225469630Y-51190034D01*
X225536299Y-51165625D01*
X225605580Y-51181135D01*
X225655479Y-51231639D01*
X225670409Y-51296852D01*
X225651179Y-51737301D01*
X225650370Y-51755819D01*
X225649992Y-51761508D01*
X225584100Y-52499825D01*
X225573895Y-52614165D01*
X225573260Y-52619830D01*
X225523034Y-52991310D01*
X225458561Y-53468161D01*
X225457667Y-53473808D01*
X225304603Y-54316064D01*
X225303453Y-54321664D01*
X225112341Y-55156104D01*
X225110938Y-55161647D01*
X224882178Y-55986529D01*
X224880526Y-55992002D01*
X224833453Y-56136024D01*
X224614566Y-56805708D01*
X224612685Y-56811050D01*
X224357584Y-57486156D01*
X224310085Y-57611858D01*
X224307944Y-57617156D01*
X223980982Y-58376355D01*
X223969342Y-58403382D01*
X223966968Y-58408567D01*
X223817337Y-58716720D01*
X223695820Y-58966974D01*
X223648072Y-59019516D01*
X223579497Y-59037902D01*
X223511869Y-59016295D01*
X223493070Y-59000721D01*
X223383248Y-58890129D01*
X223378286Y-58885132D01*
X223363106Y-58875498D01*
X223306697Y-58839700D01*
X223234608Y-58793951D01*
X223074300Y-58736868D01*
X222905329Y-58716720D01*
X222898326Y-58717456D01*
X222898325Y-58717456D01*
X222743101Y-58733770D01*
X222743097Y-58733771D01*
X222736093Y-58734507D01*
X222729422Y-58736778D01*
X222581673Y-58787075D01*
X222581670Y-58787076D01*
X222575003Y-58789346D01*
X222569005Y-58793036D01*
X222569003Y-58793037D01*
X222436065Y-58874821D01*
X222436063Y-58874823D01*
X222430066Y-58878512D01*
X222308486Y-58997573D01*
X222304675Y-59003487D01*
X222304673Y-59003489D01*
X222282495Y-59037902D01*
X222216304Y-59140610D01*
X222158103Y-59300516D01*
X222136775Y-59469343D01*
X222153381Y-59638699D01*
X222155605Y-59645384D01*
X222155605Y-59645385D01*
X222168130Y-59683037D01*
X222207094Y-59800167D01*
X222210741Y-59806189D01*
X222210742Y-59806191D01*
X222229941Y-59837891D01*
X222295246Y-59945723D01*
X222413455Y-60068132D01*
X222555846Y-60161310D01*
X222562450Y-60163766D01*
X222562452Y-60163767D01*
X222616580Y-60183897D01*
X222715341Y-60220626D01*
X222722324Y-60221558D01*
X222722325Y-60221558D01*
X222797954Y-60231649D01*
X222862830Y-60260485D01*
X222901819Y-60319818D01*
X222902539Y-60390811D01*
X222889179Y-60421625D01*
X222736946Y-60673985D01*
X222733882Y-60678812D01*
X222258930Y-61390973D01*
X222255651Y-61395657D01*
X221903335Y-61875277D01*
X221846886Y-61918336D01*
X221776119Y-61924041D01*
X221712382Y-61889467D01*
X221683248Y-61860129D01*
X221678286Y-61855132D01*
X221662039Y-61844821D01*
X221623406Y-61820304D01*
X221534608Y-61763951D01*
X221374300Y-61706868D01*
X221205329Y-61686720D01*
X221198326Y-61687456D01*
X221198325Y-61687456D01*
X221043101Y-61703770D01*
X221043097Y-61703771D01*
X221036093Y-61704507D01*
X221029422Y-61706778D01*
X220881673Y-61757075D01*
X220881670Y-61757076D01*
X220875003Y-61759346D01*
X220869005Y-61763036D01*
X220869003Y-61763037D01*
X220736065Y-61844821D01*
X220736063Y-61844823D01*
X220730066Y-61848512D01*
X220608486Y-61967573D01*
X220604675Y-61973487D01*
X220604673Y-61973489D01*
X220588321Y-61998862D01*
X220516304Y-62110610D01*
X220458103Y-62270516D01*
X220436775Y-62439343D01*
X220453381Y-62608699D01*
X220507094Y-62770167D01*
X220595246Y-62915723D01*
X220713455Y-63038132D01*
X220719351Y-63041990D01*
X220719352Y-63041991D01*
X220746813Y-63059961D01*
X220792862Y-63113998D01*
X220802385Y-63184353D01*
X220772190Y-63248882D01*
X220636884Y-63401818D01*
X220633015Y-63405995D01*
X220445704Y-63599285D01*
X220037502Y-64020518D01*
X220037275Y-64020752D01*
X220033211Y-64024759D01*
X219837053Y-64209609D01*
X219410211Y-64611844D01*
X219405962Y-64615670D01*
X218756970Y-65173891D01*
X218752552Y-65177520D01*
X218078919Y-65705715D01*
X218074342Y-65709139D01*
X217377404Y-66206261D01*
X217372675Y-66209475D01*
X216653940Y-66674445D01*
X216649070Y-66677441D01*
X215909980Y-67109330D01*
X215904980Y-67112102D01*
X215147031Y-67510035D01*
X215141930Y-67512567D01*
X214845656Y-67651352D01*
X214366719Y-67875702D01*
X214361488Y-67878009D01*
X213570608Y-68205603D01*
X213565278Y-68207670D01*
X212760370Y-68499042D01*
X212754951Y-68500866D01*
X211937636Y-68755431D01*
X211932140Y-68757007D01*
X211104125Y-68974232D01*
X211098564Y-68975557D01*
X210474705Y-69109301D01*
X210263669Y-69154544D01*
X210260424Y-69155194D01*
X210255262Y-69156159D01*
X210252943Y-69156570D01*
X209411609Y-69297361D01*
X209405970Y-69298174D01*
X208949701Y-69353388D01*
X208556135Y-69401015D01*
X208550445Y-69401573D01*
X207696833Y-69465756D01*
X207691124Y-69466056D01*
X207214325Y-69480207D01*
X206835416Y-69491453D01*
X206829719Y-69491492D01*
X206175937Y-69481221D01*
X205973808Y-69478046D01*
X205968095Y-69477827D01*
X205113652Y-69425567D01*
X205107955Y-69425089D01*
X204256744Y-69334121D01*
X204251074Y-69333384D01*
X203471254Y-69214055D01*
X203463957Y-69212718D01*
X203191979Y-69154541D01*
X202085630Y-68917889D01*
X202081798Y-68917004D01*
X201723256Y-68828274D01*
X201717781Y-68826787D01*
X201079925Y-68637845D01*
X200896987Y-68583656D01*
X200891544Y-68581909D01*
X200637918Y-68494084D01*
X200082608Y-68301791D01*
X200077276Y-68299808D01*
X199679577Y-68141544D01*
X199281891Y-67983285D01*
X199276628Y-67981051D01*
X198496421Y-67628774D01*
X198491292Y-67626317D01*
X197727828Y-67238990D01*
X197722834Y-67236311D01*
X197719598Y-67234480D01*
X196977753Y-66814764D01*
X196972863Y-66811848D01*
X196623743Y-66592846D01*
X199931500Y-66592846D01*
X199946548Y-66750566D01*
X200006092Y-66953534D01*
X200102942Y-67141580D01*
X200233604Y-67307920D01*
X200238135Y-67311852D01*
X200238138Y-67311855D01*
X200324058Y-67386412D01*
X200393363Y-67446552D01*
X200398549Y-67449552D01*
X200398553Y-67449555D01*
X200560665Y-67543339D01*
X200576454Y-67552473D01*
X200776271Y-67621861D01*
X200782206Y-67622722D01*
X200782208Y-67622722D01*
X200979664Y-67651352D01*
X200979667Y-67651352D01*
X200985604Y-67652213D01*
X201196899Y-67642433D01*
X201328077Y-67610819D01*
X201396701Y-67594281D01*
X201396703Y-67594280D01*
X201402534Y-67592875D01*
X201407992Y-67590393D01*
X201407996Y-67590392D01*
X201584741Y-67510030D01*
X201595087Y-67505326D01*
X201767611Y-67382946D01*
X201913881Y-67230150D01*
X202028620Y-67052452D01*
X202070801Y-66947786D01*
X202105442Y-66861832D01*
X202105443Y-66861829D01*
X202107686Y-66856263D01*
X202148228Y-66648663D01*
X202148500Y-66643101D01*
X202148500Y-66592846D01*
X202431500Y-66592846D01*
X202446548Y-66750566D01*
X202506092Y-66953534D01*
X202602942Y-67141580D01*
X202733604Y-67307920D01*
X202738135Y-67311852D01*
X202738138Y-67311855D01*
X202824058Y-67386412D01*
X202893363Y-67446552D01*
X202898549Y-67449552D01*
X202898553Y-67449555D01*
X203060665Y-67543339D01*
X203076454Y-67552473D01*
X203276271Y-67621861D01*
X203282206Y-67622722D01*
X203282208Y-67622722D01*
X203479664Y-67651352D01*
X203479667Y-67651352D01*
X203485604Y-67652213D01*
X203696899Y-67642433D01*
X203828077Y-67610819D01*
X203896701Y-67594281D01*
X203896703Y-67594280D01*
X203902534Y-67592875D01*
X203907992Y-67590393D01*
X203907996Y-67590392D01*
X204084741Y-67510030D01*
X204095087Y-67505326D01*
X204267611Y-67382946D01*
X204413881Y-67230150D01*
X204528620Y-67052452D01*
X204570801Y-66947786D01*
X204605442Y-66861832D01*
X204605443Y-66861829D01*
X204607686Y-66856263D01*
X204648228Y-66648663D01*
X204648500Y-66643101D01*
X204648500Y-66592846D01*
X204931500Y-66592846D01*
X204946548Y-66750566D01*
X205006092Y-66953534D01*
X205102942Y-67141580D01*
X205233604Y-67307920D01*
X205238135Y-67311852D01*
X205238138Y-67311855D01*
X205324058Y-67386412D01*
X205393363Y-67446552D01*
X205398549Y-67449552D01*
X205398553Y-67449555D01*
X205560665Y-67543339D01*
X205576454Y-67552473D01*
X205776271Y-67621861D01*
X205782206Y-67622722D01*
X205782208Y-67622722D01*
X205979664Y-67651352D01*
X205979667Y-67651352D01*
X205985604Y-67652213D01*
X206196899Y-67642433D01*
X206328077Y-67610819D01*
X206396701Y-67594281D01*
X206396703Y-67594280D01*
X206402534Y-67592875D01*
X206407992Y-67590393D01*
X206407996Y-67590392D01*
X206584741Y-67510030D01*
X206595087Y-67505326D01*
X206767611Y-67382946D01*
X206913881Y-67230150D01*
X207028620Y-67052452D01*
X207070801Y-66947786D01*
X207105442Y-66861832D01*
X207105443Y-66861829D01*
X207107686Y-66856263D01*
X207148228Y-66648663D01*
X207148500Y-66643101D01*
X207148500Y-65687154D01*
X207133452Y-65529434D01*
X207073908Y-65326466D01*
X207058921Y-65297366D01*
X207034188Y-65249343D01*
X213366775Y-65249343D01*
X213383381Y-65418699D01*
X213437094Y-65580167D01*
X213440741Y-65586189D01*
X213440742Y-65586191D01*
X213514204Y-65707490D01*
X213525246Y-65725723D01*
X213643455Y-65848132D01*
X213785846Y-65941310D01*
X213792450Y-65943766D01*
X213792452Y-65943767D01*
X213828844Y-65957301D01*
X213945341Y-66000626D01*
X214114015Y-66023132D01*
X214121026Y-66022494D01*
X214121030Y-66022494D01*
X214276462Y-66008348D01*
X214283483Y-66007709D01*
X214290185Y-66005531D01*
X214290187Y-66005531D01*
X214438623Y-65957301D01*
X214438626Y-65957300D01*
X214445322Y-65955124D01*
X214591490Y-65867990D01*
X214642768Y-65819159D01*
X214684160Y-65779742D01*
X214747285Y-65747250D01*
X214817956Y-65754044D01*
X214861689Y-65783461D01*
X214943455Y-65868132D01*
X214949351Y-65871990D01*
X215079720Y-65957301D01*
X215085846Y-65961310D01*
X215092450Y-65963766D01*
X215092452Y-65963767D01*
X215128844Y-65977301D01*
X215245341Y-66020626D01*
X215414015Y-66043132D01*
X215421026Y-66042494D01*
X215421030Y-66042494D01*
X215576462Y-66028348D01*
X215583483Y-66027709D01*
X215590185Y-66025531D01*
X215590187Y-66025531D01*
X215738623Y-65977301D01*
X215738626Y-65977300D01*
X215745322Y-65975124D01*
X215891490Y-65887990D01*
X215896584Y-65883139D01*
X215896588Y-65883136D01*
X215963833Y-65819099D01*
X216014721Y-65770639D01*
X216057857Y-65705715D01*
X216087386Y-65661269D01*
X216108891Y-65628902D01*
X216169319Y-65469825D01*
X216193001Y-65301313D01*
X216193299Y-65280000D01*
X216174331Y-65110892D01*
X216118368Y-64950189D01*
X216028192Y-64805879D01*
X216009033Y-64786585D01*
X215913248Y-64690129D01*
X215908286Y-64685132D01*
X215902269Y-64681313D01*
X215851892Y-64649343D01*
X216536775Y-64649343D01*
X216553381Y-64818699D01*
X216607094Y-64980167D01*
X216610741Y-64986189D01*
X216610742Y-64986191D01*
X216690503Y-65117891D01*
X216695246Y-65125723D01*
X216813455Y-65248132D01*
X216955846Y-65341310D01*
X216962450Y-65343766D01*
X216962452Y-65343767D01*
X216998844Y-65357301D01*
X217115341Y-65400626D01*
X217284015Y-65423132D01*
X217291026Y-65422494D01*
X217291030Y-65422494D01*
X217446462Y-65408348D01*
X217453483Y-65407709D01*
X217460185Y-65405531D01*
X217460187Y-65405531D01*
X217608623Y-65357301D01*
X217608626Y-65357300D01*
X217615322Y-65355124D01*
X217761490Y-65267990D01*
X217766584Y-65263139D01*
X217766588Y-65263136D01*
X217860304Y-65173891D01*
X217884721Y-65150639D01*
X217889298Y-65143751D01*
X217974990Y-65014773D01*
X217978891Y-65008902D01*
X218039319Y-64849825D01*
X218063001Y-64681313D01*
X218063157Y-64670129D01*
X218063244Y-64663961D01*
X218063244Y-64663955D01*
X218063299Y-64660000D01*
X218044331Y-64490892D01*
X217988368Y-64330189D01*
X217982383Y-64320610D01*
X217913020Y-64209609D01*
X217898192Y-64185879D01*
X217778286Y-64065132D01*
X217762039Y-64054821D01*
X217707986Y-64020518D01*
X217634608Y-63973951D01*
X217474300Y-63916868D01*
X217305329Y-63896720D01*
X217298326Y-63897456D01*
X217298325Y-63897456D01*
X217143101Y-63913770D01*
X217143097Y-63913771D01*
X217136093Y-63914507D01*
X217129422Y-63916778D01*
X216981673Y-63967075D01*
X216981670Y-63967076D01*
X216975003Y-63969346D01*
X216969005Y-63973036D01*
X216969003Y-63973037D01*
X216836065Y-64054821D01*
X216836063Y-64054823D01*
X216830066Y-64058512D01*
X216708486Y-64177573D01*
X216704675Y-64183487D01*
X216704673Y-64183489D01*
X216687840Y-64209609D01*
X216616304Y-64320610D01*
X216558103Y-64480516D01*
X216536775Y-64649343D01*
X215851892Y-64649343D01*
X215840871Y-64642349D01*
X215764608Y-64593951D01*
X215604300Y-64536868D01*
X215435329Y-64516720D01*
X215428326Y-64517456D01*
X215428325Y-64517456D01*
X215273101Y-64533770D01*
X215273097Y-64533771D01*
X215266093Y-64534507D01*
X215259422Y-64536778D01*
X215111673Y-64587075D01*
X215111670Y-64587076D01*
X215105003Y-64589346D01*
X215099005Y-64593036D01*
X215099003Y-64593037D01*
X214966065Y-64674821D01*
X214966063Y-64674823D01*
X214960066Y-64678512D01*
X214879120Y-64757781D01*
X214877854Y-64759021D01*
X214815189Y-64792391D01*
X214744430Y-64786585D01*
X214700290Y-64757781D01*
X214633109Y-64690129D01*
X214608286Y-64665132D01*
X214600367Y-64660106D01*
X214553406Y-64630304D01*
X214464608Y-64573951D01*
X214304300Y-64516868D01*
X214135329Y-64496720D01*
X214128326Y-64497456D01*
X214128325Y-64497456D01*
X213973101Y-64513770D01*
X213973097Y-64513771D01*
X213966093Y-64514507D01*
X213959422Y-64516778D01*
X213811673Y-64567075D01*
X213811670Y-64567076D01*
X213805003Y-64569346D01*
X213799005Y-64573036D01*
X213799003Y-64573037D01*
X213666065Y-64654821D01*
X213666063Y-64654823D01*
X213660066Y-64658512D01*
X213630848Y-64687125D01*
X213557431Y-64759021D01*
X213538486Y-64777573D01*
X213534675Y-64783487D01*
X213534673Y-64783489D01*
X213461485Y-64897054D01*
X213446304Y-64920610D01*
X213416566Y-65002314D01*
X213399265Y-65049850D01*
X213388103Y-65080516D01*
X213366775Y-65249343D01*
X207034188Y-65249343D01*
X206979804Y-65143751D01*
X206979802Y-65143748D01*
X206977058Y-65138420D01*
X206846396Y-64972080D01*
X206841865Y-64968148D01*
X206841862Y-64968145D01*
X206691167Y-64837379D01*
X206686637Y-64833448D01*
X206681451Y-64830448D01*
X206681447Y-64830445D01*
X206508742Y-64730533D01*
X206503546Y-64727527D01*
X206303729Y-64658139D01*
X206297794Y-64657278D01*
X206297792Y-64657278D01*
X206100336Y-64628648D01*
X206100333Y-64628648D01*
X206094396Y-64627787D01*
X205883101Y-64637567D01*
X205751923Y-64669181D01*
X205683299Y-64685719D01*
X205683297Y-64685720D01*
X205677466Y-64687125D01*
X205672008Y-64689607D01*
X205672004Y-64689608D01*
X205556959Y-64741916D01*
X205484913Y-64774674D01*
X205402057Y-64833448D01*
X205338254Y-64878707D01*
X205312389Y-64897054D01*
X205166119Y-65049850D01*
X205051380Y-65227548D01*
X205033629Y-65271594D01*
X204999966Y-65355124D01*
X204972314Y-65423737D01*
X204931772Y-65631337D01*
X204931500Y-65636899D01*
X204931500Y-66592846D01*
X204648500Y-66592846D01*
X204648500Y-65687154D01*
X204633452Y-65529434D01*
X204573908Y-65326466D01*
X204558921Y-65297366D01*
X204479804Y-65143751D01*
X204479802Y-65143748D01*
X204477058Y-65138420D01*
X204346396Y-64972080D01*
X204341865Y-64968148D01*
X204341862Y-64968145D01*
X204191167Y-64837379D01*
X204186637Y-64833448D01*
X204181451Y-64830448D01*
X204181447Y-64830445D01*
X204008742Y-64730533D01*
X204003546Y-64727527D01*
X203803729Y-64658139D01*
X203797794Y-64657278D01*
X203797792Y-64657278D01*
X203600336Y-64628648D01*
X203600333Y-64628648D01*
X203594396Y-64627787D01*
X203383101Y-64637567D01*
X203251923Y-64669181D01*
X203183299Y-64685719D01*
X203183297Y-64685720D01*
X203177466Y-64687125D01*
X203172008Y-64689607D01*
X203172004Y-64689608D01*
X203056959Y-64741916D01*
X202984913Y-64774674D01*
X202902057Y-64833448D01*
X202838254Y-64878707D01*
X202812389Y-64897054D01*
X202666119Y-65049850D01*
X202551380Y-65227548D01*
X202533629Y-65271594D01*
X202499966Y-65355124D01*
X202472314Y-65423737D01*
X202431772Y-65631337D01*
X202431500Y-65636899D01*
X202431500Y-66592846D01*
X202148500Y-66592846D01*
X202148500Y-65687154D01*
X202133452Y-65529434D01*
X202073908Y-65326466D01*
X202058921Y-65297366D01*
X201979804Y-65143751D01*
X201979802Y-65143748D01*
X201977058Y-65138420D01*
X201846396Y-64972080D01*
X201841865Y-64968148D01*
X201841862Y-64968145D01*
X201691167Y-64837379D01*
X201686637Y-64833448D01*
X201681451Y-64830448D01*
X201681447Y-64830445D01*
X201508742Y-64730533D01*
X201503546Y-64727527D01*
X201303729Y-64658139D01*
X201297794Y-64657278D01*
X201297792Y-64657278D01*
X201100336Y-64628648D01*
X201100333Y-64628648D01*
X201094396Y-64627787D01*
X200883101Y-64637567D01*
X200751923Y-64669181D01*
X200683299Y-64685719D01*
X200683297Y-64685720D01*
X200677466Y-64687125D01*
X200672008Y-64689607D01*
X200672004Y-64689608D01*
X200556959Y-64741916D01*
X200484913Y-64774674D01*
X200402057Y-64833448D01*
X200338254Y-64878707D01*
X200312389Y-64897054D01*
X200166119Y-65049850D01*
X200051380Y-65227548D01*
X200033629Y-65271594D01*
X199999966Y-65355124D01*
X199972314Y-65423737D01*
X199931772Y-65631337D01*
X199931500Y-65636899D01*
X199931500Y-66592846D01*
X196623743Y-66592846D01*
X196247695Y-66356952D01*
X196242922Y-66353805D01*
X196029841Y-66206261D01*
X195539135Y-65866480D01*
X195534529Y-65863135D01*
X194853550Y-65344367D01*
X194849082Y-65340800D01*
X194192354Y-64791690D01*
X194188053Y-64787924D01*
X193556933Y-64209609D01*
X193552806Y-64205652D01*
X192948552Y-63599285D01*
X192944610Y-63595145D01*
X192368470Y-62961976D01*
X192364731Y-62957675D01*
X191817915Y-62299033D01*
X191814373Y-62294564D01*
X191801473Y-62277506D01*
X191297990Y-61611783D01*
X191294653Y-61607155D01*
X191264300Y-61562990D01*
X190968428Y-61132494D01*
X190809786Y-60901669D01*
X190806656Y-60896885D01*
X190472065Y-60359343D01*
X201166775Y-60359343D01*
X201183381Y-60528699D01*
X201237094Y-60690167D01*
X201240741Y-60696189D01*
X201240742Y-60696191D01*
X201293017Y-60782506D01*
X201325246Y-60835723D01*
X201443455Y-60958132D01*
X201585846Y-61051310D01*
X201592450Y-61053766D01*
X201592452Y-61053767D01*
X201628844Y-61067301D01*
X201745341Y-61110626D01*
X201914015Y-61133132D01*
X201921026Y-61132494D01*
X201921030Y-61132494D01*
X202076462Y-61118348D01*
X202083483Y-61117709D01*
X202090185Y-61115531D01*
X202090187Y-61115531D01*
X202238623Y-61067301D01*
X202238626Y-61067300D01*
X202245322Y-61065124D01*
X202391490Y-60977990D01*
X202396584Y-60973139D01*
X202396588Y-60973136D01*
X202426823Y-60944343D01*
X215321775Y-60944343D01*
X215338381Y-61113699D01*
X215392094Y-61275167D01*
X215395741Y-61281189D01*
X215395742Y-61281191D01*
X215463677Y-61393364D01*
X215480246Y-61420723D01*
X215598455Y-61543132D01*
X215604351Y-61546990D01*
X215703379Y-61611792D01*
X215740846Y-61636310D01*
X215747450Y-61638766D01*
X215747452Y-61638767D01*
X215783844Y-61652301D01*
X215900341Y-61695626D01*
X216069015Y-61718132D01*
X216076026Y-61717494D01*
X216076030Y-61717494D01*
X216231462Y-61703348D01*
X216238483Y-61702709D01*
X216245185Y-61700531D01*
X216245187Y-61700531D01*
X216393623Y-61652301D01*
X216393626Y-61652300D01*
X216400322Y-61650124D01*
X216546490Y-61562990D01*
X216551584Y-61558139D01*
X216551588Y-61558136D01*
X216618833Y-61494099D01*
X216669721Y-61445639D01*
X216704453Y-61393364D01*
X216759990Y-61309773D01*
X216763891Y-61303902D01*
X216824319Y-61144825D01*
X216848001Y-60976313D01*
X216848118Y-60967964D01*
X216848244Y-60958961D01*
X216848244Y-60958955D01*
X216848299Y-60955000D01*
X216829331Y-60785892D01*
X216806003Y-60718902D01*
X216793767Y-60683767D01*
X216773368Y-60625189D01*
X216767383Y-60615610D01*
X216736641Y-60566414D01*
X216683192Y-60480879D01*
X216563286Y-60360132D01*
X216547039Y-60349821D01*
X216499761Y-60319818D01*
X216419608Y-60268951D01*
X216259300Y-60211868D01*
X216090329Y-60191720D01*
X216083326Y-60192456D01*
X216083325Y-60192456D01*
X215928101Y-60208770D01*
X215928097Y-60208771D01*
X215921093Y-60209507D01*
X215914422Y-60211778D01*
X215766673Y-60262075D01*
X215766670Y-60262076D01*
X215760003Y-60264346D01*
X215754005Y-60268036D01*
X215754003Y-60268037D01*
X215621065Y-60349821D01*
X215621063Y-60349823D01*
X215615066Y-60353512D01*
X215493486Y-60472573D01*
X215489675Y-60478487D01*
X215489673Y-60478489D01*
X215416526Y-60591990D01*
X215401304Y-60615610D01*
X215343103Y-60775516D01*
X215321775Y-60944343D01*
X202426823Y-60944343D01*
X202476659Y-60896885D01*
X202514721Y-60860639D01*
X202608891Y-60718902D01*
X202669319Y-60559825D01*
X202693001Y-60391313D01*
X202693299Y-60370000D01*
X202674331Y-60200892D01*
X202671428Y-60192554D01*
X202620686Y-60046846D01*
X202618368Y-60040189D01*
X202612383Y-60030610D01*
X202590420Y-59995464D01*
X202586595Y-59989343D01*
X212016775Y-59989343D01*
X212033381Y-60158699D01*
X212035605Y-60165384D01*
X212035605Y-60165385D01*
X212044610Y-60192456D01*
X212087094Y-60320167D01*
X212090741Y-60326189D01*
X212090742Y-60326191D01*
X212132550Y-60395223D01*
X212175246Y-60465723D01*
X212293455Y-60588132D01*
X212435846Y-60681310D01*
X212442450Y-60683766D01*
X212442452Y-60683767D01*
X212478844Y-60697301D01*
X212595341Y-60740626D01*
X212764015Y-60763132D01*
X212771026Y-60762494D01*
X212771030Y-60762494D01*
X212926462Y-60748348D01*
X212933483Y-60747709D01*
X212940185Y-60745531D01*
X212940187Y-60745531D01*
X213088623Y-60697301D01*
X213088626Y-60697300D01*
X213095322Y-60695124D01*
X213241490Y-60607990D01*
X213246584Y-60603139D01*
X213246588Y-60603136D01*
X213332114Y-60521690D01*
X213364721Y-60490639D01*
X213372794Y-60478489D01*
X213431047Y-60390811D01*
X213458891Y-60348902D01*
X213519319Y-60189825D01*
X213543001Y-60021313D01*
X213543299Y-60000000D01*
X213524331Y-59830892D01*
X213468368Y-59670189D01*
X213462383Y-59660610D01*
X213429229Y-59607554D01*
X213378192Y-59525879D01*
X213258286Y-59405132D01*
X213242039Y-59394821D01*
X213203406Y-59370304D01*
X213114608Y-59313951D01*
X212954300Y-59256868D01*
X212785329Y-59236720D01*
X212778326Y-59237456D01*
X212778325Y-59237456D01*
X212623101Y-59253770D01*
X212623097Y-59253771D01*
X212616093Y-59254507D01*
X212609422Y-59256778D01*
X212461673Y-59307075D01*
X212461670Y-59307076D01*
X212455003Y-59309346D01*
X212449005Y-59313036D01*
X212449003Y-59313037D01*
X212316065Y-59394821D01*
X212316063Y-59394823D01*
X212310066Y-59398512D01*
X212188486Y-59517573D01*
X212184675Y-59523487D01*
X212184673Y-59523489D01*
X212120046Y-59623770D01*
X212096304Y-59660610D01*
X212038103Y-59820516D01*
X212016775Y-59989343D01*
X202586595Y-59989343D01*
X202528192Y-59895879D01*
X202408286Y-59775132D01*
X202392039Y-59764821D01*
X202353406Y-59740304D01*
X202264608Y-59683951D01*
X202104300Y-59626868D01*
X201935329Y-59606720D01*
X201928326Y-59607456D01*
X201928325Y-59607456D01*
X201773101Y-59623770D01*
X201773097Y-59623771D01*
X201766093Y-59624507D01*
X201759422Y-59626778D01*
X201611673Y-59677075D01*
X201611670Y-59677076D01*
X201605003Y-59679346D01*
X201599005Y-59683036D01*
X201599003Y-59683037D01*
X201466065Y-59764821D01*
X201466063Y-59764823D01*
X201460066Y-59768512D01*
X201338486Y-59887573D01*
X201334675Y-59893487D01*
X201334673Y-59893489D01*
X201250121Y-60024687D01*
X201246304Y-60030610D01*
X201243894Y-60037232D01*
X201202235Y-60151690D01*
X201188103Y-60190516D01*
X201166775Y-60359343D01*
X190472065Y-60359343D01*
X190414329Y-60266586D01*
X190354302Y-60170149D01*
X190351394Y-60165233D01*
X190284959Y-60046846D01*
X190154234Y-59813897D01*
X189932458Y-59418696D01*
X189929774Y-59413648D01*
X189545140Y-58648889D01*
X189542688Y-58643725D01*
X189419951Y-58369343D01*
X215346775Y-58369343D01*
X215363381Y-58538699D01*
X215417094Y-58700167D01*
X215420741Y-58706189D01*
X215420742Y-58706191D01*
X215473892Y-58793951D01*
X215505246Y-58845723D01*
X215623455Y-58968132D01*
X215765846Y-59061310D01*
X215772450Y-59063766D01*
X215772452Y-59063767D01*
X215808844Y-59077301D01*
X215925341Y-59120626D01*
X216094015Y-59143132D01*
X216101026Y-59142494D01*
X216101030Y-59142494D01*
X216256462Y-59128348D01*
X216263483Y-59127709D01*
X216270185Y-59125531D01*
X216270187Y-59125531D01*
X216418623Y-59077301D01*
X216418626Y-59077300D01*
X216425322Y-59075124D01*
X216571490Y-58987990D01*
X216576584Y-58983139D01*
X216576588Y-58983136D01*
X216674254Y-58890129D01*
X216694721Y-58870639D01*
X216788891Y-58728902D01*
X216849319Y-58569825D01*
X216873001Y-58401313D01*
X216873299Y-58380000D01*
X216854331Y-58210892D01*
X216798368Y-58050189D01*
X216792383Y-58040610D01*
X216770420Y-58005464D01*
X216708192Y-57905879D01*
X216664928Y-57862311D01*
X216593248Y-57790129D01*
X216588286Y-57785132D01*
X216575517Y-57777028D01*
X216513214Y-57737490D01*
X216444608Y-57693951D01*
X216284300Y-57636868D01*
X216115329Y-57616720D01*
X216108326Y-57617456D01*
X216108325Y-57617456D01*
X215953101Y-57633770D01*
X215953097Y-57633771D01*
X215946093Y-57634507D01*
X215939422Y-57636778D01*
X215791673Y-57687075D01*
X215791670Y-57687076D01*
X215785003Y-57689346D01*
X215779005Y-57693036D01*
X215779003Y-57693037D01*
X215646065Y-57774821D01*
X215646063Y-57774823D01*
X215640066Y-57778512D01*
X215518486Y-57897573D01*
X215426304Y-58040610D01*
X215368103Y-58200516D01*
X215346775Y-58369343D01*
X189419951Y-58369343D01*
X189193145Y-57862311D01*
X189190930Y-57857041D01*
X189140352Y-57728643D01*
X189135308Y-57712867D01*
X188888628Y-56720490D01*
X191873077Y-56720490D01*
X191886570Y-56926350D01*
X191937352Y-57126303D01*
X192023722Y-57313654D01*
X192142788Y-57482129D01*
X192146922Y-57486156D01*
X192278699Y-57614528D01*
X192290561Y-57626084D01*
X192295364Y-57629293D01*
X192295365Y-57629294D01*
X192310240Y-57639233D01*
X192462095Y-57740698D01*
X192541517Y-57774821D01*
X192646332Y-57819854D01*
X192646336Y-57819855D01*
X192651642Y-57822135D01*
X192657274Y-57823409D01*
X192657276Y-57823410D01*
X192847220Y-57866390D01*
X192847225Y-57866391D01*
X192852857Y-57867665D01*
X192858628Y-57867892D01*
X192858630Y-57867892D01*
X192922513Y-57870402D01*
X193058999Y-57875764D01*
X193169817Y-57859696D01*
X193257451Y-57846990D01*
X193257456Y-57846989D01*
X193263165Y-57846161D01*
X193268629Y-57844306D01*
X193268634Y-57844305D01*
X193428231Y-57790129D01*
X193458518Y-57779848D01*
X193638515Y-57679045D01*
X193797128Y-57547128D01*
X193929045Y-57388515D01*
X194029848Y-57208518D01*
X194096161Y-57013165D01*
X194125764Y-56808999D01*
X194127309Y-56750000D01*
X194108432Y-56544564D01*
X194101885Y-56521348D01*
X194054003Y-56351574D01*
X194052434Y-56346009D01*
X193961189Y-56160983D01*
X193837754Y-55995683D01*
X193830841Y-55989292D01*
X193690497Y-55859561D01*
X193686262Y-55855646D01*
X193511788Y-55745560D01*
X193320173Y-55669114D01*
X193314513Y-55667988D01*
X193314509Y-55667987D01*
X193123504Y-55629994D01*
X193123499Y-55629994D01*
X193117836Y-55628867D01*
X193112061Y-55628791D01*
X193112057Y-55628791D01*
X193008575Y-55627436D01*
X192911552Y-55626166D01*
X192905855Y-55627145D01*
X192905854Y-55627145D01*
X192896275Y-55628791D01*
X192708231Y-55661103D01*
X192514681Y-55732507D01*
X192509720Y-55735459D01*
X192509719Y-55735459D01*
X192342352Y-55835032D01*
X192342349Y-55835034D01*
X192337384Y-55837988D01*
X192333044Y-55841794D01*
X192333040Y-55841797D01*
X192186620Y-55970205D01*
X192182279Y-55974012D01*
X192054559Y-56136024D01*
X192051870Y-56141135D01*
X192051868Y-56141138D01*
X191999510Y-56240655D01*
X191958502Y-56318598D01*
X191956788Y-56324119D01*
X191956786Y-56324123D01*
X191948263Y-56351574D01*
X191897325Y-56515619D01*
X191873077Y-56720490D01*
X188888628Y-56720490D01*
X188267191Y-54220490D01*
X191873077Y-54220490D01*
X191886570Y-54426350D01*
X191937352Y-54626303D01*
X192023722Y-54813654D01*
X192142788Y-54982129D01*
X192290561Y-55126084D01*
X192462095Y-55240698D01*
X192546654Y-55277028D01*
X192646332Y-55319854D01*
X192646336Y-55319855D01*
X192651642Y-55322135D01*
X192657274Y-55323409D01*
X192657276Y-55323410D01*
X192847220Y-55366390D01*
X192847225Y-55366391D01*
X192852857Y-55367665D01*
X192858628Y-55367892D01*
X192858630Y-55367892D01*
X192922513Y-55370402D01*
X193058999Y-55375764D01*
X193161082Y-55360962D01*
X193257451Y-55346990D01*
X193257456Y-55346989D01*
X193263165Y-55346161D01*
X193268629Y-55344306D01*
X193268634Y-55344305D01*
X193453050Y-55281704D01*
X193458518Y-55279848D01*
X193638515Y-55179045D01*
X193797128Y-55047128D01*
X193929045Y-54888515D01*
X194029848Y-54708518D01*
X194096161Y-54513165D01*
X194125764Y-54308999D01*
X194127309Y-54250000D01*
X194108432Y-54044564D01*
X194101885Y-54021348D01*
X194054003Y-53851574D01*
X194052434Y-53846009D01*
X193961189Y-53660983D01*
X193837754Y-53495683D01*
X193819218Y-53478548D01*
X193690497Y-53359561D01*
X193686262Y-53355646D01*
X193511788Y-53245560D01*
X193320173Y-53169114D01*
X193314513Y-53167988D01*
X193314509Y-53167987D01*
X193123504Y-53129994D01*
X193123499Y-53129994D01*
X193117836Y-53128867D01*
X193112061Y-53128791D01*
X193112057Y-53128791D01*
X193008575Y-53127436D01*
X192911552Y-53126166D01*
X192905855Y-53127145D01*
X192905854Y-53127145D01*
X192896275Y-53128791D01*
X192708231Y-53161103D01*
X192514681Y-53232507D01*
X192509720Y-53235459D01*
X192509719Y-53235459D01*
X192342352Y-53335032D01*
X192342349Y-53335034D01*
X192337384Y-53337988D01*
X192333044Y-53341794D01*
X192333040Y-53341797D01*
X192188951Y-53468161D01*
X192182279Y-53474012D01*
X192054559Y-53636024D01*
X192051870Y-53641135D01*
X192051868Y-53641138D01*
X192003738Y-53732619D01*
X191958502Y-53818598D01*
X191956788Y-53824119D01*
X191956786Y-53824123D01*
X191909875Y-53975203D01*
X191897325Y-54015619D01*
X191873077Y-54220490D01*
X188267191Y-54220490D01*
X187805606Y-52363563D01*
X187802553Y-52346124D01*
X187801023Y-52331313D01*
X187797719Y-52299343D01*
X207116775Y-52299343D01*
X207133381Y-52468699D01*
X207187094Y-52630167D01*
X207190741Y-52636189D01*
X207190742Y-52636191D01*
X207204497Y-52658902D01*
X207275246Y-52775723D01*
X207393455Y-52898132D01*
X207535846Y-52991310D01*
X207542450Y-52993766D01*
X207542452Y-52993767D01*
X207578844Y-53007301D01*
X207695341Y-53050626D01*
X207864015Y-53073132D01*
X207871026Y-53072494D01*
X207871030Y-53072494D01*
X208026462Y-53058348D01*
X208033483Y-53057709D01*
X208040185Y-53055531D01*
X208040187Y-53055531D01*
X208188623Y-53007301D01*
X208188626Y-53007300D01*
X208195322Y-53005124D01*
X208341490Y-52917990D01*
X208346584Y-52913139D01*
X208346588Y-52913136D01*
X208413833Y-52849099D01*
X208464721Y-52800639D01*
X208558891Y-52658902D01*
X208619319Y-52499825D01*
X208643001Y-52331313D01*
X208643299Y-52310000D01*
X208624331Y-52140892D01*
X208568368Y-51980189D01*
X208562383Y-51970610D01*
X208540420Y-51935464D01*
X208478192Y-51835879D01*
X208455604Y-51813132D01*
X208384488Y-51741518D01*
X208358286Y-51715132D01*
X208342039Y-51704821D01*
X208273924Y-51661594D01*
X208214608Y-51623951D01*
X208054300Y-51566868D01*
X207885329Y-51546720D01*
X207878326Y-51547456D01*
X207878325Y-51547456D01*
X207723101Y-51563770D01*
X207723097Y-51563771D01*
X207716093Y-51564507D01*
X207709422Y-51566778D01*
X207561673Y-51617075D01*
X207561670Y-51617076D01*
X207555003Y-51619346D01*
X207549005Y-51623036D01*
X207549003Y-51623037D01*
X207416065Y-51704821D01*
X207416063Y-51704823D01*
X207410066Y-51708512D01*
X207370456Y-51747301D01*
X207303233Y-51813132D01*
X207288486Y-51827573D01*
X207196304Y-51970610D01*
X207138103Y-52130516D01*
X207116775Y-52299343D01*
X187797719Y-52299343D01*
X187769469Y-52025971D01*
X187769011Y-52020272D01*
X187732802Y-51392314D01*
X187719734Y-51165667D01*
X187719534Y-51159962D01*
X187719502Y-51157301D01*
X187710852Y-50449343D01*
X204026775Y-50449343D01*
X204043381Y-50618699D01*
X204097094Y-50780167D01*
X204100741Y-50786189D01*
X204100742Y-50786191D01*
X204168298Y-50897738D01*
X204185246Y-50925723D01*
X204303455Y-51048132D01*
X204445846Y-51141310D01*
X204452450Y-51143766D01*
X204452452Y-51143767D01*
X204488844Y-51157301D01*
X204605341Y-51200626D01*
X204774015Y-51223132D01*
X204781026Y-51222494D01*
X204781030Y-51222494D01*
X204936462Y-51208348D01*
X204943483Y-51207709D01*
X204950185Y-51205531D01*
X204950187Y-51205531D01*
X205098623Y-51157301D01*
X205098626Y-51157300D01*
X205105322Y-51155124D01*
X205251490Y-51067990D01*
X205256584Y-51063139D01*
X205256588Y-51063136D01*
X205292074Y-51029343D01*
X211896775Y-51029343D01*
X211913381Y-51198699D01*
X211915605Y-51205384D01*
X211915605Y-51205385D01*
X211921413Y-51222845D01*
X211967094Y-51360167D01*
X211970741Y-51366189D01*
X211970742Y-51366191D01*
X211984497Y-51388902D01*
X212055246Y-51505723D01*
X212173455Y-51628132D01*
X212196384Y-51643136D01*
X212296289Y-51708512D01*
X212315846Y-51721310D01*
X212322450Y-51723766D01*
X212322452Y-51723767D01*
X212385733Y-51747301D01*
X212475341Y-51780626D01*
X212644015Y-51803132D01*
X212651026Y-51802494D01*
X212651030Y-51802494D01*
X212806462Y-51788348D01*
X212813483Y-51787709D01*
X212820185Y-51785531D01*
X212820187Y-51785531D01*
X212968623Y-51737301D01*
X212968626Y-51737300D01*
X212975322Y-51735124D01*
X213121490Y-51647990D01*
X213126584Y-51643139D01*
X213126588Y-51643136D01*
X213229117Y-51545498D01*
X213244721Y-51530639D01*
X213338891Y-51388902D01*
X213399319Y-51229825D01*
X213423001Y-51061313D01*
X213423159Y-51050000D01*
X213423244Y-51043961D01*
X213423244Y-51043955D01*
X213423299Y-51040000D01*
X213404331Y-50870892D01*
X213348368Y-50710189D01*
X213342383Y-50700610D01*
X213268174Y-50581854D01*
X213258192Y-50565879D01*
X213138286Y-50445132D01*
X213122039Y-50434821D01*
X213008925Y-50363037D01*
X212994608Y-50353951D01*
X212834300Y-50296868D01*
X212665329Y-50276720D01*
X212658326Y-50277456D01*
X212658325Y-50277456D01*
X212503101Y-50293770D01*
X212503097Y-50293771D01*
X212496093Y-50294507D01*
X212482210Y-50299233D01*
X212341673Y-50347075D01*
X212341670Y-50347076D01*
X212335003Y-50349346D01*
X212329005Y-50353036D01*
X212329003Y-50353037D01*
X212196065Y-50434821D01*
X212196063Y-50434823D01*
X212190066Y-50438512D01*
X212068486Y-50557573D01*
X212064675Y-50563487D01*
X212064673Y-50563489D01*
X211980121Y-50694687D01*
X211976304Y-50700610D01*
X211918103Y-50860516D01*
X211896775Y-51029343D01*
X205292074Y-51029343D01*
X205367704Y-50957321D01*
X205374721Y-50950639D01*
X205393534Y-50922324D01*
X205427955Y-50870516D01*
X205468891Y-50808902D01*
X205529319Y-50649825D01*
X205553001Y-50481313D01*
X205553299Y-50460000D01*
X205534331Y-50290892D01*
X205478368Y-50130189D01*
X205472383Y-50120610D01*
X205450420Y-50085464D01*
X205388192Y-49985879D01*
X205268286Y-49865132D01*
X205252039Y-49854821D01*
X205213406Y-49830304D01*
X205124608Y-49773951D01*
X204964300Y-49716868D01*
X204795329Y-49696720D01*
X204788326Y-49697456D01*
X204788325Y-49697456D01*
X204633101Y-49713770D01*
X204633097Y-49713771D01*
X204626093Y-49714507D01*
X204619422Y-49716778D01*
X204471673Y-49767075D01*
X204471670Y-49767076D01*
X204465003Y-49769346D01*
X204459005Y-49773036D01*
X204459003Y-49773037D01*
X204326065Y-49854821D01*
X204326063Y-49854823D01*
X204320066Y-49858512D01*
X204198486Y-49977573D01*
X204106304Y-50120610D01*
X204048103Y-50280516D01*
X204026775Y-50449343D01*
X187710852Y-50449343D01*
X187709809Y-50363951D01*
X187709076Y-50303976D01*
X187709136Y-50298259D01*
X187726529Y-49773951D01*
X187737518Y-49442693D01*
X187737837Y-49436990D01*
X187789646Y-48778706D01*
X187805002Y-48583580D01*
X187805580Y-48577896D01*
X187869697Y-48063132D01*
X187908820Y-47749038D01*
X187910823Y-47737417D01*
X188003683Y-47317366D01*
X188009878Y-47289343D01*
X209876775Y-47289343D01*
X209893381Y-47458699D01*
X209947094Y-47620167D01*
X209950741Y-47626189D01*
X209950742Y-47626191D01*
X209964497Y-47648902D01*
X210035246Y-47765723D01*
X210153455Y-47888132D01*
X210295846Y-47981310D01*
X210302450Y-47983766D01*
X210302452Y-47983767D01*
X210338844Y-47997301D01*
X210455341Y-48040626D01*
X210624015Y-48063132D01*
X210631026Y-48062494D01*
X210631030Y-48062494D01*
X210786462Y-48048348D01*
X210793483Y-48047709D01*
X210800185Y-48045531D01*
X210800187Y-48045531D01*
X210948623Y-47997301D01*
X210948626Y-47997300D01*
X210955322Y-47995124D01*
X211101490Y-47907990D01*
X211106584Y-47903139D01*
X211106588Y-47903136D01*
X211173833Y-47839099D01*
X211224721Y-47790639D01*
X211318891Y-47648902D01*
X211379319Y-47489825D01*
X211403001Y-47321313D01*
X211403299Y-47300000D01*
X211384331Y-47130892D01*
X211379901Y-47118169D01*
X211334567Y-46987990D01*
X211328368Y-46970189D01*
X211322383Y-46960610D01*
X211269609Y-46876156D01*
X211238192Y-46825879D01*
X211118286Y-46705132D01*
X211110463Y-46700167D01*
X211063406Y-46670304D01*
X210974608Y-46613951D01*
X210814300Y-46556868D01*
X210645329Y-46536720D01*
X210638326Y-46537456D01*
X210638325Y-46537456D01*
X210483101Y-46553770D01*
X210483097Y-46553771D01*
X210476093Y-46554507D01*
X210469422Y-46556778D01*
X210321673Y-46607075D01*
X210321670Y-46607076D01*
X210315003Y-46609346D01*
X210309005Y-46613036D01*
X210309003Y-46613037D01*
X210176065Y-46694821D01*
X210176063Y-46694823D01*
X210170066Y-46698512D01*
X210048486Y-46817573D01*
X210044675Y-46823487D01*
X210044673Y-46823489D01*
X210010731Y-46876156D01*
X209956304Y-46960610D01*
X209898103Y-47120516D01*
X209876775Y-47289343D01*
X188009878Y-47289343D01*
X188352534Y-45739343D01*
X202716775Y-45739343D01*
X202733381Y-45908699D01*
X202735605Y-45915384D01*
X202735605Y-45915385D01*
X202741413Y-45932845D01*
X202787094Y-46070167D01*
X202790741Y-46076189D01*
X202790742Y-46076191D01*
X202870270Y-46207506D01*
X202875246Y-46215723D01*
X202993455Y-46338132D01*
X203051418Y-46376062D01*
X203092792Y-46403136D01*
X203135846Y-46431310D01*
X203142450Y-46433766D01*
X203142452Y-46433767D01*
X203178844Y-46447301D01*
X203295341Y-46490626D01*
X203464015Y-46513132D01*
X203471026Y-46512494D01*
X203471030Y-46512494D01*
X203626462Y-46498348D01*
X203633483Y-46497709D01*
X203640185Y-46495531D01*
X203640187Y-46495531D01*
X203788623Y-46447301D01*
X203788626Y-46447300D01*
X203795322Y-46445124D01*
X203941490Y-46357990D01*
X203946584Y-46353139D01*
X203946588Y-46353136D01*
X204044705Y-46259700D01*
X204064721Y-46240639D01*
X204075140Y-46224958D01*
X204140760Y-46126191D01*
X204158891Y-46098902D01*
X204219319Y-45939825D01*
X204240467Y-45789343D01*
X208306775Y-45789343D01*
X208323381Y-45958699D01*
X208325605Y-45965384D01*
X208325605Y-45965385D01*
X208335927Y-45996414D01*
X208377094Y-46120167D01*
X208380741Y-46126189D01*
X208380742Y-46126191D01*
X208450055Y-46240639D01*
X208465246Y-46265723D01*
X208583455Y-46388132D01*
X208725846Y-46481310D01*
X208732450Y-46483766D01*
X208732452Y-46483767D01*
X208805594Y-46510968D01*
X208885341Y-46540626D01*
X209054015Y-46563132D01*
X209061026Y-46562494D01*
X209061030Y-46562494D01*
X209216462Y-46548348D01*
X209223483Y-46547709D01*
X209230185Y-46545531D01*
X209230187Y-46545531D01*
X209378623Y-46497301D01*
X209378626Y-46497300D01*
X209385322Y-46495124D01*
X209531490Y-46407990D01*
X209536584Y-46403139D01*
X209536588Y-46403136D01*
X209572074Y-46369343D01*
X215486775Y-46369343D01*
X215503381Y-46538699D01*
X215505605Y-46545384D01*
X215505605Y-46545385D01*
X215511413Y-46562845D01*
X215557094Y-46700167D01*
X215560741Y-46706189D01*
X215560742Y-46706191D01*
X215636847Y-46831854D01*
X215645246Y-46845723D01*
X215763455Y-46968132D01*
X215905846Y-47061310D01*
X215912450Y-47063766D01*
X215912452Y-47063767D01*
X215948844Y-47077301D01*
X216065341Y-47120626D01*
X216234015Y-47143132D01*
X216241026Y-47142494D01*
X216241030Y-47142494D01*
X216396462Y-47128348D01*
X216403483Y-47127709D01*
X216410185Y-47125531D01*
X216410187Y-47125531D01*
X216558623Y-47077301D01*
X216558626Y-47077300D01*
X216565322Y-47075124D01*
X216711490Y-46987990D01*
X216716584Y-46983139D01*
X216716588Y-46983136D01*
X216783833Y-46919099D01*
X216834721Y-46870639D01*
X216866048Y-46823489D01*
X216924990Y-46734773D01*
X216928891Y-46728902D01*
X216989319Y-46569825D01*
X217013001Y-46401313D01*
X217013131Y-46391990D01*
X217013244Y-46383961D01*
X217013244Y-46383955D01*
X217013299Y-46380000D01*
X216994331Y-46210892D01*
X216938368Y-46050189D01*
X216932383Y-46040610D01*
X216865042Y-45932845D01*
X216848192Y-45905879D01*
X216728286Y-45785132D01*
X216721440Y-45780787D01*
X216645113Y-45732349D01*
X216584608Y-45693951D01*
X216424300Y-45636868D01*
X216255329Y-45616720D01*
X216248326Y-45617456D01*
X216248325Y-45617456D01*
X216093101Y-45633770D01*
X216093097Y-45633771D01*
X216086093Y-45634507D01*
X216072210Y-45639233D01*
X215931673Y-45687075D01*
X215931670Y-45687076D01*
X215925003Y-45689346D01*
X215919005Y-45693036D01*
X215919003Y-45693037D01*
X215786065Y-45774821D01*
X215786063Y-45774823D01*
X215780066Y-45778512D01*
X215658486Y-45897573D01*
X215654675Y-45903487D01*
X215654673Y-45903489D01*
X215591497Y-46001518D01*
X215566304Y-46040610D01*
X215508103Y-46200516D01*
X215486775Y-46369343D01*
X209572074Y-46369343D01*
X209610170Y-46333064D01*
X209654721Y-46290639D01*
X209748891Y-46148902D01*
X209809319Y-45989825D01*
X209833001Y-45821313D01*
X209833299Y-45800000D01*
X209814331Y-45630892D01*
X209758368Y-45470189D01*
X209752383Y-45460610D01*
X209709931Y-45392675D01*
X209668192Y-45325879D01*
X209641841Y-45299343D01*
X218196775Y-45299343D01*
X218213381Y-45468699D01*
X218267094Y-45630167D01*
X218270741Y-45636189D01*
X218270742Y-45636191D01*
X218350185Y-45767366D01*
X218355246Y-45775723D01*
X218473455Y-45898132D01*
X218615846Y-45991310D01*
X218622450Y-45993766D01*
X218622452Y-45993767D01*
X218658844Y-46007301D01*
X218775341Y-46050626D01*
X218944015Y-46073132D01*
X218951026Y-46072494D01*
X218951030Y-46072494D01*
X219106462Y-46058348D01*
X219113483Y-46057709D01*
X219120185Y-46055531D01*
X219120187Y-46055531D01*
X219268623Y-46007301D01*
X219268626Y-46007300D01*
X219275322Y-46005124D01*
X219421490Y-45917990D01*
X219426584Y-45913139D01*
X219426588Y-45913136D01*
X219523011Y-45821313D01*
X219544721Y-45800639D01*
X219556148Y-45783441D01*
X219634990Y-45664773D01*
X219638891Y-45658902D01*
X219699319Y-45499825D01*
X219723001Y-45331313D01*
X219723299Y-45310000D01*
X219704331Y-45140892D01*
X219693346Y-45109346D01*
X219668345Y-45037554D01*
X219648368Y-44980189D01*
X219642383Y-44970610D01*
X219620420Y-44935464D01*
X219558192Y-44835879D01*
X219438286Y-44715132D01*
X219422039Y-44704821D01*
X219383406Y-44680304D01*
X219294608Y-44623951D01*
X219134300Y-44566868D01*
X218965329Y-44546720D01*
X218958326Y-44547456D01*
X218958325Y-44547456D01*
X218803101Y-44563770D01*
X218803097Y-44563771D01*
X218796093Y-44564507D01*
X218789422Y-44566778D01*
X218641673Y-44617075D01*
X218641670Y-44617076D01*
X218635003Y-44619346D01*
X218629005Y-44623036D01*
X218629003Y-44623037D01*
X218496065Y-44704821D01*
X218496063Y-44704823D01*
X218490066Y-44708512D01*
X218368486Y-44827573D01*
X218276304Y-44970610D01*
X218218103Y-45130516D01*
X218196775Y-45299343D01*
X209641841Y-45299343D01*
X209548286Y-45205132D01*
X209532039Y-45194821D01*
X209459067Y-45148512D01*
X209404608Y-45113951D01*
X209244300Y-45056868D01*
X209075329Y-45036720D01*
X209068326Y-45037456D01*
X209068325Y-45037456D01*
X208913101Y-45053770D01*
X208913097Y-45053771D01*
X208906093Y-45054507D01*
X208892210Y-45059233D01*
X208751673Y-45107075D01*
X208751670Y-45107076D01*
X208745003Y-45109346D01*
X208739005Y-45113036D01*
X208739003Y-45113037D01*
X208606065Y-45194821D01*
X208606063Y-45194823D01*
X208600066Y-45198512D01*
X208595033Y-45203441D01*
X208490241Y-45306062D01*
X208478486Y-45317573D01*
X208474675Y-45323487D01*
X208474673Y-45323489D01*
X208390121Y-45454687D01*
X208386304Y-45460610D01*
X208372031Y-45499825D01*
X208339978Y-45587891D01*
X208328103Y-45620516D01*
X208306775Y-45789343D01*
X204240467Y-45789343D01*
X204243001Y-45771313D01*
X204243299Y-45750000D01*
X204224331Y-45580892D01*
X204168368Y-45420189D01*
X204162383Y-45410610D01*
X204140420Y-45375464D01*
X204078192Y-45275879D01*
X203958286Y-45155132D01*
X203942039Y-45144821D01*
X203891955Y-45113037D01*
X203814608Y-45063951D01*
X203654300Y-45006868D01*
X203485329Y-44986720D01*
X203478326Y-44987456D01*
X203478325Y-44987456D01*
X203323101Y-45003770D01*
X203323097Y-45003771D01*
X203316093Y-45004507D01*
X203309422Y-45006778D01*
X203161673Y-45057075D01*
X203161670Y-45057076D01*
X203155003Y-45059346D01*
X203149005Y-45063036D01*
X203149003Y-45063037D01*
X203016065Y-45144821D01*
X203016063Y-45144823D01*
X203010066Y-45148512D01*
X202888486Y-45267573D01*
X202884675Y-45273487D01*
X202884673Y-45273489D01*
X202847408Y-45331313D01*
X202796304Y-45410610D01*
X202738103Y-45570516D01*
X202716775Y-45739343D01*
X188352534Y-45739343D01*
X188492210Y-45107521D01*
X188495064Y-45096859D01*
X188662198Y-44566778D01*
X188720375Y-44382265D01*
X188722217Y-44376853D01*
X188796768Y-44173134D01*
X192541500Y-44173134D01*
X192548255Y-44235316D01*
X192599385Y-44371705D01*
X192686739Y-44488261D01*
X192803295Y-44575615D01*
X192939684Y-44626745D01*
X193001866Y-44633500D01*
X194798134Y-44633500D01*
X194860316Y-44626745D01*
X194996705Y-44575615D01*
X195113261Y-44488261D01*
X195200615Y-44371705D01*
X195251745Y-44235316D01*
X195258500Y-44173134D01*
X195258500Y-42376866D01*
X195251745Y-42314684D01*
X195200615Y-42178295D01*
X195113261Y-42061739D01*
X194996705Y-41974385D01*
X194860316Y-41923255D01*
X194798134Y-41916500D01*
X193001866Y-41916500D01*
X192939684Y-41923255D01*
X192803295Y-41974385D01*
X192686739Y-42061739D01*
X192599385Y-42178295D01*
X192548255Y-42314684D01*
X192541500Y-42376866D01*
X192541500Y-44173134D01*
X188796768Y-44173134D01*
X189016405Y-43572946D01*
X189018491Y-43567623D01*
X189348846Y-42777885D01*
X189351172Y-42772662D01*
X189620625Y-42202630D01*
X189624240Y-42195566D01*
X190596812Y-40434422D01*
X190601558Y-40426524D01*
X191027885Y-39772539D01*
X191031115Y-39767822D01*
X191530648Y-39072647D01*
X191534089Y-39068081D01*
X192064639Y-38396290D01*
X192068283Y-38391885D01*
X192628767Y-37744844D01*
X192632608Y-37740608D01*
X192731918Y-37635957D01*
X193221883Y-37119642D01*
X193225879Y-37115618D01*
X193545921Y-36807635D01*
X193551893Y-36802244D01*
X195375613Y-35259097D01*
X195382763Y-35253477D01*
X195858699Y-34906418D01*
X195863394Y-34903155D01*
X196577240Y-34430670D01*
X196582068Y-34427631D01*
X197316610Y-33988016D01*
X197321563Y-33985202D01*
X198075290Y-33579362D01*
X198080380Y-33576768D01*
X198851755Y-33205531D01*
X198856961Y-33203170D01*
X199471557Y-32941022D01*
X199644359Y-32867316D01*
X199649632Y-32865206D01*
X199884201Y-32777504D01*
X199901010Y-32772523D01*
X205371099Y-31558284D01*
X205387638Y-31555751D01*
X205504654Y-31545719D01*
X205510301Y-31545363D01*
X206365723Y-31511006D01*
X206371398Y-31510908D01*
X207227415Y-31515390D01*
G37*
%TD.AperFunction*%
M02*
