%TF.GenerationSoftware,KiCad,Pcbnew,(6.0.1-0)*%
%TF.CreationDate,2022-04-24T11:22:29+06:00*%
%TF.ProjectId,Sound Sensor,536f756e-6420-4536-956e-736f722e6b69,rev?*%
%TF.SameCoordinates,Original*%
%TF.FileFunction,Copper,L3,Inr*%
%TF.FilePolarity,Positive*%
%FSLAX46Y46*%
G04 Gerber Fmt 4.6, Leading zero omitted, Abs format (unit mm)*
G04 Created by KiCad (PCBNEW (6.0.1-0)) date 2022-04-24 11:22:29*
%MOMM*%
%LPD*%
G01*
G04 APERTURE LIST*
%TA.AperFunction,ComponentPad*%
%ADD10O,1.200000X2.000000*%
%TD*%
%TA.AperFunction,ComponentPad*%
%ADD11R,1.700000X1.700000*%
%TD*%
%TA.AperFunction,ComponentPad*%
%ADD12O,1.700000X1.700000*%
%TD*%
%TA.AperFunction,ComponentPad*%
%ADD13C,1.228000*%
%TD*%
%TA.AperFunction,ViaPad*%
%ADD14C,0.500000*%
%TD*%
G04 APERTURE END LIST*
D10*
X201040000Y-66140000D03*
X203540000Y-66140000D03*
X206040000Y-66140000D03*
D11*
X193900000Y-43275000D03*
D12*
X193900000Y-40735000D03*
D13*
X193000000Y-56750000D03*
X193000000Y-54250000D03*
D14*
X212780000Y-60000000D03*
X216250000Y-46380000D03*
X217300000Y-64660000D03*
X210640000Y-47300000D03*
X203480000Y-45750000D03*
X205407500Y-36987500D03*
X198880000Y-49240000D03*
X214190000Y-44030000D03*
X206480000Y-44450000D03*
X217550000Y-45860000D03*
X212610000Y-66320000D03*
X210690000Y-57810000D03*
X204790000Y-50460000D03*
X222900000Y-59480000D03*
X216110000Y-58380000D03*
X215430000Y-65280000D03*
X221200000Y-62450000D03*
X201930000Y-60370000D03*
X209070000Y-45800000D03*
X207880000Y-52310000D03*
X212660000Y-51040000D03*
X218960000Y-45310000D03*
X214130000Y-65260000D03*
X224690000Y-51050000D03*
X216085000Y-60955000D03*
%TA.AperFunction,Conductor*%
G36*
X206741136Y-32619096D02*
G01*
X211348226Y-33964987D01*
X216467213Y-35460422D01*
X216523461Y-35494828D01*
X221635160Y-40904296D01*
X221658759Y-40939748D01*
X221923088Y-41535689D01*
X224103706Y-46451990D01*
X224937126Y-48330974D01*
X224947581Y-48391660D01*
X224909144Y-48894687D01*
X224811615Y-50171037D01*
X224786481Y-50237436D01*
X224729439Y-50279705D01*
X224695219Y-50285669D01*
X224695329Y-50286720D01*
X224533101Y-50303770D01*
X224533097Y-50303771D01*
X224526093Y-50304507D01*
X224519422Y-50306778D01*
X224371673Y-50357075D01*
X224371670Y-50357076D01*
X224365003Y-50359346D01*
X224359005Y-50363036D01*
X224359003Y-50363037D01*
X224226065Y-50444821D01*
X224226063Y-50444823D01*
X224220066Y-50448512D01*
X224212057Y-50456355D01*
X224105321Y-50560880D01*
X224098486Y-50567573D01*
X224094675Y-50573487D01*
X224094673Y-50573489D01*
X224010121Y-50704687D01*
X224006304Y-50710610D01*
X223948103Y-50870516D01*
X223926775Y-51039343D01*
X223943381Y-51208699D01*
X223945605Y-51215384D01*
X223945605Y-51215385D01*
X223953735Y-51239825D01*
X223997094Y-51370167D01*
X224000741Y-51376189D01*
X224000742Y-51376191D01*
X224079190Y-51505723D01*
X224085246Y-51515723D01*
X224203455Y-51638132D01*
X224209351Y-51641990D01*
X224328760Y-51720129D01*
X224345846Y-51731310D01*
X224352450Y-51733766D01*
X224352452Y-51733767D01*
X224419425Y-51758674D01*
X224505341Y-51790626D01*
X224512324Y-51791558D01*
X224512325Y-51791558D01*
X224551111Y-51796733D01*
X224558426Y-51797709D01*
X224567974Y-51798983D01*
X224632850Y-51827819D01*
X224671838Y-51887152D01*
X224676943Y-51933476D01*
X224491389Y-54361823D01*
X224483514Y-54397041D01*
X222892858Y-58576414D01*
X222864266Y-58651537D01*
X222821342Y-58708088D01*
X222759679Y-58732028D01*
X222757436Y-58732264D01*
X222736093Y-58734507D01*
X222729422Y-58736778D01*
X222581673Y-58787075D01*
X222581670Y-58787076D01*
X222575003Y-58789346D01*
X222569005Y-58793036D01*
X222569003Y-58793037D01*
X222436065Y-58874821D01*
X222436063Y-58874823D01*
X222430066Y-58878512D01*
X222308486Y-58997573D01*
X222216304Y-59140610D01*
X222158103Y-59300516D01*
X222136775Y-59469343D01*
X222153381Y-59638699D01*
X222155605Y-59645384D01*
X222155605Y-59645385D01*
X222168130Y-59683037D01*
X222207094Y-59800167D01*
X222210741Y-59806189D01*
X222210742Y-59806191D01*
X222242255Y-59858225D01*
X222260434Y-59926855D01*
X222238624Y-59994418D01*
X222231529Y-60003853D01*
X218330021Y-64715820D01*
X218280976Y-64751960D01*
X216409297Y-65523221D01*
X216349996Y-65547657D01*
X216279392Y-65555117D01*
X216215964Y-65523221D01*
X216179848Y-65462097D01*
X216177217Y-65413625D01*
X216189466Y-65326466D01*
X216193001Y-65301313D01*
X216193299Y-65280000D01*
X216174331Y-65110892D01*
X216118368Y-64950189D01*
X216028192Y-64805879D01*
X216009033Y-64786585D01*
X215913248Y-64690129D01*
X215908286Y-64685132D01*
X215892039Y-64674821D01*
X215853406Y-64650304D01*
X215764608Y-64593951D01*
X215604300Y-64536868D01*
X215435329Y-64516720D01*
X215428326Y-64517456D01*
X215428325Y-64517456D01*
X215273101Y-64533770D01*
X215273097Y-64533771D01*
X215266093Y-64534507D01*
X215259422Y-64536778D01*
X215111673Y-64587075D01*
X215111670Y-64587076D01*
X215105003Y-64589346D01*
X215099005Y-64593036D01*
X215099003Y-64593037D01*
X214966065Y-64674821D01*
X214966063Y-64674823D01*
X214960066Y-64678512D01*
X214885064Y-64751960D01*
X214877854Y-64759021D01*
X214815189Y-64792391D01*
X214744430Y-64786585D01*
X214700290Y-64757781D01*
X214633109Y-64690129D01*
X214608286Y-64665132D01*
X214600367Y-64660106D01*
X214553406Y-64630304D01*
X214464608Y-64573951D01*
X214304300Y-64516868D01*
X214135329Y-64496720D01*
X214128326Y-64497456D01*
X214128325Y-64497456D01*
X213973101Y-64513770D01*
X213973097Y-64513771D01*
X213966093Y-64514507D01*
X213959422Y-64516778D01*
X213811673Y-64567075D01*
X213811670Y-64567076D01*
X213805003Y-64569346D01*
X213799005Y-64573036D01*
X213799003Y-64573037D01*
X213666065Y-64654821D01*
X213666063Y-64654823D01*
X213660066Y-64658512D01*
X213630848Y-64687125D01*
X213557431Y-64759021D01*
X213538486Y-64777573D01*
X213534675Y-64783487D01*
X213534673Y-64783489D01*
X213461485Y-64897054D01*
X213446304Y-64920610D01*
X213425853Y-64976798D01*
X213399265Y-65049850D01*
X213388103Y-65080516D01*
X213366775Y-65249343D01*
X213383381Y-65418699D01*
X213385605Y-65425384D01*
X213385605Y-65425385D01*
X213400388Y-65469825D01*
X213437094Y-65580167D01*
X213440741Y-65586189D01*
X213440742Y-65586191D01*
X213518644Y-65714821D01*
X213525246Y-65725723D01*
X213643455Y-65848132D01*
X213785846Y-65941310D01*
X213792450Y-65943766D01*
X213792452Y-65943767D01*
X213828844Y-65957301D01*
X213945341Y-66000626D01*
X214114015Y-66023132D01*
X214121026Y-66022494D01*
X214121030Y-66022494D01*
X214276462Y-66008348D01*
X214283483Y-66007709D01*
X214290185Y-66005531D01*
X214290187Y-66005531D01*
X214438623Y-65957301D01*
X214438626Y-65957300D01*
X214445322Y-65955124D01*
X214591490Y-65867990D01*
X214642768Y-65819159D01*
X214684160Y-65779742D01*
X214747285Y-65747250D01*
X214817956Y-65754044D01*
X214861689Y-65783461D01*
X214943455Y-65868132D01*
X214949348Y-65871988D01*
X214986436Y-65896258D01*
X215032484Y-65950296D01*
X215042007Y-66020651D01*
X215011982Y-66084986D01*
X214965449Y-66118186D01*
X213494954Y-66724131D01*
X213424351Y-66731591D01*
X213360923Y-66699695D01*
X213324807Y-66638571D01*
X213329162Y-66562891D01*
X213346815Y-66516418D01*
X213346816Y-66516414D01*
X213349319Y-66509825D01*
X213373001Y-66341313D01*
X213373299Y-66320000D01*
X213354331Y-66150892D01*
X213298368Y-65990189D01*
X213292383Y-65980610D01*
X213265414Y-65937452D01*
X213208192Y-65845879D01*
X213088286Y-65725132D01*
X213072039Y-65714821D01*
X212987654Y-65661269D01*
X212944608Y-65633951D01*
X212784300Y-65576868D01*
X212615329Y-65556720D01*
X212608326Y-65557456D01*
X212608325Y-65557456D01*
X212453101Y-65573770D01*
X212453097Y-65573771D01*
X212446093Y-65574507D01*
X212439422Y-65576778D01*
X212291673Y-65627075D01*
X212291670Y-65627076D01*
X212285003Y-65629346D01*
X212279005Y-65633036D01*
X212279003Y-65633037D01*
X212146065Y-65714821D01*
X212146063Y-65714823D01*
X212140066Y-65718512D01*
X212018486Y-65837573D01*
X212014675Y-65843487D01*
X212014673Y-65843489D01*
X211954118Y-65937452D01*
X211926304Y-65980610D01*
X211868103Y-66140516D01*
X211846775Y-66309343D01*
X211863381Y-66478699D01*
X211917094Y-66640167D01*
X211934497Y-66668902D01*
X211987441Y-66756323D01*
X212005246Y-66785723D01*
X212123455Y-66908132D01*
X212214350Y-66967612D01*
X212260397Y-67021648D01*
X212269921Y-67092003D01*
X212239897Y-67156338D01*
X212179856Y-67194228D01*
X212169580Y-67196692D01*
X206663769Y-68275343D01*
X206616199Y-68275512D01*
X204941774Y-67959804D01*
X204027892Y-67787494D01*
X203964658Y-67755217D01*
X203928912Y-67693876D01*
X203932003Y-67622947D01*
X203972951Y-67564949D01*
X203999087Y-67548976D01*
X204089627Y-67507809D01*
X204089631Y-67507807D01*
X204095087Y-67505326D01*
X204267611Y-67382946D01*
X204413881Y-67230150D01*
X204528620Y-67052452D01*
X204575843Y-66935277D01*
X204605442Y-66861832D01*
X204605443Y-66861829D01*
X204607686Y-66856263D01*
X204648228Y-66648663D01*
X204648500Y-66643101D01*
X204648500Y-66592846D01*
X204931500Y-66592846D01*
X204946548Y-66750566D01*
X205006092Y-66953534D01*
X205008836Y-66958861D01*
X205008836Y-66958862D01*
X205028175Y-66996410D01*
X205102942Y-67141580D01*
X205233604Y-67307920D01*
X205238135Y-67311852D01*
X205238138Y-67311855D01*
X205324058Y-67386412D01*
X205393363Y-67446552D01*
X205398549Y-67449552D01*
X205398553Y-67449555D01*
X205505384Y-67511358D01*
X205576454Y-67552473D01*
X205776271Y-67621861D01*
X205782206Y-67622722D01*
X205782208Y-67622722D01*
X205979664Y-67651352D01*
X205979667Y-67651352D01*
X205985604Y-67652213D01*
X206196899Y-67642433D01*
X206328077Y-67610819D01*
X206396701Y-67594281D01*
X206396703Y-67594280D01*
X206402534Y-67592875D01*
X206407992Y-67590393D01*
X206407996Y-67590392D01*
X206581820Y-67511358D01*
X206595087Y-67505326D01*
X206767611Y-67382946D01*
X206913881Y-67230150D01*
X207028620Y-67052452D01*
X207075843Y-66935277D01*
X207105442Y-66861832D01*
X207105443Y-66861829D01*
X207107686Y-66856263D01*
X207148228Y-66648663D01*
X207148500Y-66643101D01*
X207148500Y-65687154D01*
X207133452Y-65529434D01*
X207073908Y-65326466D01*
X207058921Y-65297366D01*
X206979804Y-65143751D01*
X206979802Y-65143748D01*
X206977058Y-65138420D01*
X206846396Y-64972080D01*
X206841865Y-64968148D01*
X206841862Y-64968145D01*
X206691167Y-64837379D01*
X206686637Y-64833448D01*
X206681451Y-64830448D01*
X206681447Y-64830445D01*
X206508742Y-64730533D01*
X206503546Y-64727527D01*
X206303729Y-64658139D01*
X206297794Y-64657278D01*
X206297792Y-64657278D01*
X206100336Y-64628648D01*
X206100333Y-64628648D01*
X206094396Y-64627787D01*
X205883101Y-64637567D01*
X205751923Y-64669181D01*
X205683299Y-64685719D01*
X205683297Y-64685720D01*
X205677466Y-64687125D01*
X205672008Y-64689607D01*
X205672004Y-64689608D01*
X205556959Y-64741916D01*
X205484913Y-64774674D01*
X205402057Y-64833448D01*
X205338254Y-64878707D01*
X205312389Y-64897054D01*
X205166119Y-65049850D01*
X205051380Y-65227548D01*
X204972314Y-65423737D01*
X204931772Y-65631337D01*
X204931500Y-65636899D01*
X204931500Y-66592846D01*
X204648500Y-66592846D01*
X204648500Y-65687154D01*
X204633452Y-65529434D01*
X204573908Y-65326466D01*
X204558921Y-65297366D01*
X204479804Y-65143751D01*
X204479802Y-65143748D01*
X204477058Y-65138420D01*
X204346396Y-64972080D01*
X204341865Y-64968148D01*
X204341862Y-64968145D01*
X204191167Y-64837379D01*
X204186637Y-64833448D01*
X204181451Y-64830448D01*
X204181447Y-64830445D01*
X204008742Y-64730533D01*
X204003546Y-64727527D01*
X203803729Y-64658139D01*
X203797794Y-64657278D01*
X203797792Y-64657278D01*
X203600336Y-64628648D01*
X203600333Y-64628648D01*
X203594396Y-64627787D01*
X203383101Y-64637567D01*
X203251923Y-64669181D01*
X203183299Y-64685719D01*
X203183297Y-64685720D01*
X203177466Y-64687125D01*
X203172008Y-64689607D01*
X203172004Y-64689608D01*
X203056959Y-64741916D01*
X202984913Y-64774674D01*
X202902057Y-64833448D01*
X202838254Y-64878707D01*
X202812389Y-64897054D01*
X202666119Y-65049850D01*
X202551380Y-65227548D01*
X202472314Y-65423737D01*
X202431772Y-65631337D01*
X202431500Y-65636899D01*
X202431500Y-66592846D01*
X202446548Y-66750566D01*
X202506092Y-66953534D01*
X202508836Y-66958861D01*
X202508836Y-66958862D01*
X202528175Y-66996410D01*
X202602942Y-67141580D01*
X202733604Y-67307920D01*
X202738136Y-67311853D01*
X202738303Y-67312028D01*
X202770796Y-67375152D01*
X202764003Y-67445823D01*
X202720081Y-67501603D01*
X202652975Y-67524782D01*
X202623712Y-67522739D01*
X202006666Y-67406396D01*
X201943431Y-67374119D01*
X201907685Y-67312778D01*
X201910776Y-67241849D01*
X201924161Y-67214230D01*
X202025363Y-67057497D01*
X202025365Y-67057493D01*
X202028620Y-67052452D01*
X202075843Y-66935277D01*
X202105442Y-66861832D01*
X202105443Y-66861829D01*
X202107686Y-66856263D01*
X202148228Y-66648663D01*
X202148500Y-66643101D01*
X202148500Y-65687154D01*
X202133452Y-65529434D01*
X202073908Y-65326466D01*
X202058921Y-65297366D01*
X201979804Y-65143751D01*
X201979802Y-65143748D01*
X201977058Y-65138420D01*
X201846396Y-64972080D01*
X201841865Y-64968148D01*
X201841862Y-64968145D01*
X201691167Y-64837379D01*
X201686637Y-64833448D01*
X201681451Y-64830448D01*
X201681447Y-64830445D01*
X201508742Y-64730533D01*
X201503546Y-64727527D01*
X201303729Y-64658139D01*
X201297794Y-64657278D01*
X201297792Y-64657278D01*
X201100336Y-64628648D01*
X201100333Y-64628648D01*
X201094396Y-64627787D01*
X200883101Y-64637567D01*
X200751923Y-64669181D01*
X200683299Y-64685719D01*
X200683297Y-64685720D01*
X200677466Y-64687125D01*
X200672008Y-64689607D01*
X200672004Y-64689608D01*
X200556959Y-64741916D01*
X200484913Y-64774674D01*
X200402057Y-64833448D01*
X200338254Y-64878707D01*
X200312389Y-64897054D01*
X200166119Y-65049850D01*
X200051380Y-65227548D01*
X199972314Y-65423737D01*
X199931772Y-65631337D01*
X199931500Y-65636899D01*
X199931500Y-66592846D01*
X199946548Y-66750566D01*
X199971676Y-66836220D01*
X199971659Y-66907215D01*
X199933261Y-66966932D01*
X199868673Y-66996410D01*
X199827425Y-66995506D01*
X199507989Y-66935277D01*
X199457003Y-66913198D01*
X194596717Y-63362213D01*
X194568069Y-63333076D01*
X192471560Y-60359343D01*
X201166775Y-60359343D01*
X201183381Y-60528699D01*
X201237094Y-60690167D01*
X201240741Y-60696189D01*
X201240742Y-60696191D01*
X201293017Y-60782506D01*
X201325246Y-60835723D01*
X201443455Y-60958132D01*
X201585846Y-61051310D01*
X201592450Y-61053766D01*
X201592452Y-61053767D01*
X201628844Y-61067301D01*
X201745341Y-61110626D01*
X201914015Y-61133132D01*
X201921026Y-61132494D01*
X201921030Y-61132494D01*
X202076462Y-61118348D01*
X202083483Y-61117709D01*
X202090185Y-61115531D01*
X202090187Y-61115531D01*
X202238623Y-61067301D01*
X202238626Y-61067300D01*
X202245322Y-61065124D01*
X202391490Y-60977990D01*
X202396584Y-60973139D01*
X202396588Y-60973136D01*
X202426823Y-60944343D01*
X215321775Y-60944343D01*
X215338381Y-61113699D01*
X215392094Y-61275167D01*
X215395741Y-61281189D01*
X215395742Y-61281191D01*
X215463677Y-61393364D01*
X215480246Y-61420723D01*
X215598455Y-61543132D01*
X215740846Y-61636310D01*
X215747450Y-61638766D01*
X215747452Y-61638767D01*
X215783844Y-61652301D01*
X215900341Y-61695626D01*
X216069015Y-61718132D01*
X216076026Y-61717494D01*
X216076030Y-61717494D01*
X216231462Y-61703348D01*
X216238483Y-61702709D01*
X216245185Y-61700531D01*
X216245187Y-61700531D01*
X216393623Y-61652301D01*
X216393626Y-61652300D01*
X216400322Y-61650124D01*
X216546490Y-61562990D01*
X216551584Y-61558139D01*
X216551588Y-61558136D01*
X216618833Y-61494099D01*
X216669721Y-61445639D01*
X216704453Y-61393364D01*
X216759990Y-61309773D01*
X216763891Y-61303902D01*
X216824319Y-61144825D01*
X216848001Y-60976313D01*
X216848118Y-60967964D01*
X216848244Y-60958961D01*
X216848244Y-60958955D01*
X216848299Y-60955000D01*
X216829331Y-60785892D01*
X216806003Y-60718902D01*
X216795996Y-60690167D01*
X216773368Y-60625189D01*
X216767383Y-60615610D01*
X216736641Y-60566414D01*
X216683192Y-60480879D01*
X216563286Y-60360132D01*
X216547039Y-60349821D01*
X216508406Y-60325304D01*
X216419608Y-60268951D01*
X216259300Y-60211868D01*
X216090329Y-60191720D01*
X216083326Y-60192456D01*
X216083325Y-60192456D01*
X215928101Y-60208770D01*
X215928097Y-60208771D01*
X215921093Y-60209507D01*
X215914422Y-60211778D01*
X215766673Y-60262075D01*
X215766670Y-60262076D01*
X215760003Y-60264346D01*
X215754005Y-60268036D01*
X215754003Y-60268037D01*
X215621065Y-60349821D01*
X215621063Y-60349823D01*
X215615066Y-60353512D01*
X215493486Y-60472573D01*
X215489675Y-60478487D01*
X215489673Y-60478489D01*
X215437255Y-60559825D01*
X215401304Y-60615610D01*
X215343103Y-60775516D01*
X215321775Y-60944343D01*
X202426823Y-60944343D01*
X202474101Y-60899321D01*
X202514721Y-60860639D01*
X202608891Y-60718902D01*
X202669319Y-60559825D01*
X202693001Y-60391313D01*
X202693299Y-60370000D01*
X202674331Y-60200892D01*
X202671428Y-60192554D01*
X202620686Y-60046846D01*
X202618368Y-60040189D01*
X202612383Y-60030610D01*
X202547548Y-59926855D01*
X202528192Y-59895879D01*
X202408286Y-59775132D01*
X202392039Y-59764821D01*
X202353406Y-59740304D01*
X202264608Y-59683951D01*
X202104300Y-59626868D01*
X201935329Y-59606720D01*
X201928326Y-59607456D01*
X201928325Y-59607456D01*
X201773101Y-59623770D01*
X201773097Y-59623771D01*
X201766093Y-59624507D01*
X201759422Y-59626778D01*
X201611673Y-59677075D01*
X201611670Y-59677076D01*
X201605003Y-59679346D01*
X201599005Y-59683036D01*
X201599003Y-59683037D01*
X201466065Y-59764821D01*
X201466063Y-59764823D01*
X201460066Y-59768512D01*
X201338486Y-59887573D01*
X201246304Y-60030610D01*
X201188103Y-60190516D01*
X201166775Y-60359343D01*
X192471560Y-60359343D01*
X191567708Y-59077301D01*
X190793567Y-57979243D01*
X190774298Y-57937158D01*
X190763188Y-57892648D01*
X190470595Y-56720490D01*
X191873077Y-56720490D01*
X191886570Y-56926350D01*
X191887991Y-56931946D01*
X191887992Y-56931951D01*
X191922234Y-57066778D01*
X191937352Y-57126303D01*
X192023722Y-57313654D01*
X192142788Y-57482129D01*
X192146922Y-57486156D01*
X192278699Y-57614528D01*
X192290561Y-57626084D01*
X192295364Y-57629293D01*
X192295365Y-57629294D01*
X192307655Y-57637506D01*
X192462095Y-57740698D01*
X192541517Y-57774821D01*
X192646332Y-57819854D01*
X192646336Y-57819855D01*
X192651642Y-57822135D01*
X192657274Y-57823409D01*
X192657276Y-57823410D01*
X192847220Y-57866390D01*
X192847225Y-57866391D01*
X192852857Y-57867665D01*
X192858628Y-57867892D01*
X192858630Y-57867892D01*
X192922513Y-57870402D01*
X193058999Y-57875764D01*
X193169817Y-57859696D01*
X193257451Y-57846990D01*
X193257456Y-57846989D01*
X193263165Y-57846161D01*
X193268629Y-57844306D01*
X193268634Y-57844305D01*
X193401087Y-57799343D01*
X209926775Y-57799343D01*
X209943381Y-57968699D01*
X209945605Y-57975384D01*
X209945605Y-57975385D01*
X209951413Y-57992845D01*
X209997094Y-58130167D01*
X210000741Y-58136189D01*
X210000742Y-58136191D01*
X210050222Y-58217891D01*
X210085246Y-58275723D01*
X210203455Y-58398132D01*
X210345846Y-58491310D01*
X210352450Y-58493766D01*
X210352452Y-58493767D01*
X210388844Y-58507301D01*
X210505341Y-58550626D01*
X210674015Y-58573132D01*
X210681026Y-58572494D01*
X210681030Y-58572494D01*
X210836462Y-58558348D01*
X210843483Y-58557709D01*
X210850185Y-58555531D01*
X210850187Y-58555531D01*
X210998623Y-58507301D01*
X210998626Y-58507300D01*
X211005322Y-58505124D01*
X211151490Y-58417990D01*
X211156584Y-58413139D01*
X211156588Y-58413136D01*
X211202575Y-58369343D01*
X215346775Y-58369343D01*
X215363381Y-58538699D01*
X215365605Y-58545384D01*
X215365605Y-58545385D01*
X215368980Y-58555531D01*
X215417094Y-58700167D01*
X215420741Y-58706189D01*
X215420742Y-58706191D01*
X215473892Y-58793951D01*
X215505246Y-58845723D01*
X215623455Y-58968132D01*
X215765846Y-59061310D01*
X215772450Y-59063766D01*
X215772452Y-59063767D01*
X215808844Y-59077301D01*
X215925341Y-59120626D01*
X216094015Y-59143132D01*
X216101026Y-59142494D01*
X216101030Y-59142494D01*
X216256462Y-59128348D01*
X216263483Y-59127709D01*
X216270185Y-59125531D01*
X216270187Y-59125531D01*
X216418623Y-59077301D01*
X216418626Y-59077300D01*
X216425322Y-59075124D01*
X216571490Y-58987990D01*
X216576584Y-58983139D01*
X216576588Y-58983136D01*
X216643833Y-58919099D01*
X216694721Y-58870639D01*
X216788891Y-58728902D01*
X216849319Y-58569825D01*
X216873001Y-58401313D01*
X216873299Y-58380000D01*
X216854331Y-58210892D01*
X216798368Y-58050189D01*
X216792383Y-58040610D01*
X216754035Y-57979243D01*
X216708192Y-57905879D01*
X216588286Y-57785132D01*
X216575517Y-57777028D01*
X216513214Y-57737490D01*
X216444608Y-57693951D01*
X216284300Y-57636868D01*
X216115329Y-57616720D01*
X216108326Y-57617456D01*
X216108325Y-57617456D01*
X215953101Y-57633770D01*
X215953097Y-57633771D01*
X215946093Y-57634507D01*
X215939422Y-57636778D01*
X215791673Y-57687075D01*
X215791670Y-57687076D01*
X215785003Y-57689346D01*
X215779005Y-57693036D01*
X215779003Y-57693037D01*
X215646065Y-57774821D01*
X215646063Y-57774823D01*
X215640066Y-57778512D01*
X215518486Y-57897573D01*
X215514675Y-57903487D01*
X215514673Y-57903489D01*
X215457087Y-57992845D01*
X215426304Y-58040610D01*
X215368103Y-58200516D01*
X215346775Y-58369343D01*
X211202575Y-58369343D01*
X211223833Y-58349099D01*
X211274721Y-58300639D01*
X211368891Y-58158902D01*
X211429319Y-57999825D01*
X211453001Y-57831313D01*
X211453299Y-57810000D01*
X211434331Y-57640892D01*
X211425914Y-57616720D01*
X211380686Y-57486846D01*
X211378368Y-57480189D01*
X211372383Y-57470610D01*
X211293775Y-57344814D01*
X211288192Y-57335879D01*
X211168286Y-57215132D01*
X211152039Y-57204821D01*
X211113406Y-57180304D01*
X211024608Y-57123951D01*
X210864300Y-57066868D01*
X210695329Y-57046720D01*
X210688326Y-57047456D01*
X210688325Y-57047456D01*
X210533101Y-57063770D01*
X210533097Y-57063771D01*
X210526093Y-57064507D01*
X210519422Y-57066778D01*
X210371673Y-57117075D01*
X210371670Y-57117076D01*
X210365003Y-57119346D01*
X210359005Y-57123036D01*
X210359003Y-57123037D01*
X210226065Y-57204821D01*
X210226063Y-57204823D01*
X210220066Y-57208512D01*
X210098486Y-57327573D01*
X210094675Y-57333487D01*
X210094673Y-57333489D01*
X210062455Y-57383481D01*
X210006304Y-57470610D01*
X209948103Y-57630516D01*
X209926775Y-57799343D01*
X193401087Y-57799343D01*
X193428231Y-57790129D01*
X193458518Y-57779848D01*
X193638515Y-57679045D01*
X193797128Y-57547128D01*
X193929045Y-57388515D01*
X194029848Y-57208518D01*
X194057756Y-57126303D01*
X194094305Y-57018634D01*
X194094306Y-57018629D01*
X194096161Y-57013165D01*
X194125764Y-56808999D01*
X194127309Y-56750000D01*
X194108432Y-56544564D01*
X194101885Y-56521348D01*
X194054003Y-56351574D01*
X194052434Y-56346009D01*
X193961189Y-56160983D01*
X193837754Y-55995683D01*
X193830841Y-55989292D01*
X193690497Y-55859561D01*
X193686262Y-55855646D01*
X193511788Y-55745560D01*
X193320173Y-55669114D01*
X193314513Y-55667988D01*
X193314509Y-55667987D01*
X193123504Y-55629994D01*
X193123499Y-55629994D01*
X193117836Y-55628867D01*
X193112061Y-55628791D01*
X193112057Y-55628791D01*
X193008575Y-55627436D01*
X192911552Y-55626166D01*
X192905855Y-55627145D01*
X192905854Y-55627145D01*
X192896275Y-55628791D01*
X192708231Y-55661103D01*
X192514681Y-55732507D01*
X192509720Y-55735459D01*
X192509719Y-55735459D01*
X192342352Y-55835032D01*
X192342349Y-55835034D01*
X192337384Y-55837988D01*
X192333044Y-55841794D01*
X192333040Y-55841797D01*
X192186620Y-55970205D01*
X192182279Y-55974012D01*
X192054559Y-56136024D01*
X192051870Y-56141135D01*
X192051868Y-56141138D01*
X191999510Y-56240655D01*
X191958502Y-56318598D01*
X191956788Y-56324119D01*
X191956786Y-56324123D01*
X191948263Y-56351574D01*
X191897325Y-56515619D01*
X191873077Y-56720490D01*
X190470595Y-56720490D01*
X190101779Y-55242979D01*
X189846546Y-54220490D01*
X191873077Y-54220490D01*
X191886570Y-54426350D01*
X191937352Y-54626303D01*
X192023722Y-54813654D01*
X192142788Y-54982129D01*
X192290561Y-55126084D01*
X192462095Y-55240698D01*
X192546654Y-55277028D01*
X192646332Y-55319854D01*
X192646336Y-55319855D01*
X192651642Y-55322135D01*
X192657274Y-55323409D01*
X192657276Y-55323410D01*
X192847220Y-55366390D01*
X192847225Y-55366391D01*
X192852857Y-55367665D01*
X192858628Y-55367892D01*
X192858630Y-55367892D01*
X192922513Y-55370402D01*
X193058999Y-55375764D01*
X193161082Y-55360962D01*
X193257451Y-55346990D01*
X193257456Y-55346989D01*
X193263165Y-55346161D01*
X193268629Y-55344306D01*
X193268634Y-55344305D01*
X193453050Y-55281704D01*
X193458518Y-55279848D01*
X193638515Y-55179045D01*
X193797128Y-55047128D01*
X193929045Y-54888515D01*
X194029848Y-54708518D01*
X194096161Y-54513165D01*
X194125764Y-54308999D01*
X194127309Y-54250000D01*
X194108432Y-54044564D01*
X194101885Y-54021348D01*
X194054003Y-53851574D01*
X194052434Y-53846009D01*
X193961189Y-53660983D01*
X193837754Y-53495683D01*
X193819218Y-53478548D01*
X193690497Y-53359561D01*
X193686262Y-53355646D01*
X193511788Y-53245560D01*
X193320173Y-53169114D01*
X193314513Y-53167988D01*
X193314509Y-53167987D01*
X193123504Y-53129994D01*
X193123499Y-53129994D01*
X193117836Y-53128867D01*
X193112061Y-53128791D01*
X193112057Y-53128791D01*
X193008575Y-53127436D01*
X192911552Y-53126166D01*
X192905855Y-53127145D01*
X192905854Y-53127145D01*
X192896275Y-53128791D01*
X192708231Y-53161103D01*
X192514681Y-53232507D01*
X192509720Y-53235459D01*
X192509719Y-53235459D01*
X192342352Y-53335032D01*
X192342349Y-53335034D01*
X192337384Y-53337988D01*
X192333044Y-53341794D01*
X192333040Y-53341797D01*
X192186620Y-53470205D01*
X192182279Y-53474012D01*
X192054559Y-53636024D01*
X192051870Y-53641135D01*
X192051868Y-53641138D01*
X192003738Y-53732619D01*
X191958502Y-53818598D01*
X191956788Y-53824119D01*
X191956786Y-53824123D01*
X191909875Y-53975203D01*
X191897325Y-54015619D01*
X191873077Y-54220490D01*
X189846546Y-54220490D01*
X189366990Y-52299343D01*
X207116775Y-52299343D01*
X207133381Y-52468699D01*
X207187094Y-52630167D01*
X207190741Y-52636189D01*
X207190742Y-52636191D01*
X207204497Y-52658902D01*
X207275246Y-52775723D01*
X207393455Y-52898132D01*
X207535846Y-52991310D01*
X207542450Y-52993766D01*
X207542452Y-52993767D01*
X207578844Y-53007301D01*
X207695341Y-53050626D01*
X207864015Y-53073132D01*
X207871026Y-53072494D01*
X207871030Y-53072494D01*
X208026462Y-53058348D01*
X208033483Y-53057709D01*
X208040185Y-53055531D01*
X208040187Y-53055531D01*
X208188623Y-53007301D01*
X208188626Y-53007300D01*
X208195322Y-53005124D01*
X208341490Y-52917990D01*
X208346584Y-52913139D01*
X208346588Y-52913136D01*
X208413833Y-52849099D01*
X208464721Y-52800639D01*
X208558891Y-52658902D01*
X208619319Y-52499825D01*
X208643001Y-52331313D01*
X208643299Y-52310000D01*
X208624331Y-52140892D01*
X208568368Y-51980189D01*
X208562383Y-51970610D01*
X208510231Y-51887152D01*
X208478192Y-51835879D01*
X208455604Y-51813132D01*
X208388069Y-51745124D01*
X208358286Y-51715132D01*
X208342039Y-51704821D01*
X208303406Y-51680304D01*
X208214608Y-51623951D01*
X208054300Y-51566868D01*
X207885329Y-51546720D01*
X207878326Y-51547456D01*
X207878325Y-51547456D01*
X207723101Y-51563770D01*
X207723097Y-51563771D01*
X207716093Y-51564507D01*
X207709422Y-51566778D01*
X207561673Y-51617075D01*
X207561670Y-51617076D01*
X207555003Y-51619346D01*
X207549005Y-51623036D01*
X207549003Y-51623037D01*
X207416065Y-51704821D01*
X207416063Y-51704823D01*
X207410066Y-51708512D01*
X207358843Y-51758674D01*
X207303233Y-51813132D01*
X207288486Y-51827573D01*
X207284675Y-51833487D01*
X207284673Y-51833489D01*
X207220235Y-51933476D01*
X207196304Y-51970610D01*
X207138103Y-52130516D01*
X207116775Y-52299343D01*
X189366990Y-52299343D01*
X189146201Y-51414840D01*
X189143986Y-51364709D01*
X189288241Y-50449343D01*
X204026775Y-50449343D01*
X204043381Y-50618699D01*
X204097094Y-50780167D01*
X204100741Y-50786189D01*
X204100742Y-50786191D01*
X204168298Y-50897738D01*
X204185246Y-50925723D01*
X204303455Y-51048132D01*
X204445846Y-51141310D01*
X204452450Y-51143766D01*
X204452452Y-51143767D01*
X204488844Y-51157301D01*
X204605341Y-51200626D01*
X204774015Y-51223132D01*
X204781026Y-51222494D01*
X204781030Y-51222494D01*
X204936462Y-51208348D01*
X204943483Y-51207709D01*
X204950185Y-51205531D01*
X204950187Y-51205531D01*
X205098623Y-51157301D01*
X205098626Y-51157300D01*
X205105322Y-51155124D01*
X205251490Y-51067990D01*
X205256584Y-51063139D01*
X205256588Y-51063136D01*
X205292074Y-51029343D01*
X211896775Y-51029343D01*
X211913381Y-51198699D01*
X211915605Y-51205384D01*
X211915605Y-51205385D01*
X211921413Y-51222845D01*
X211967094Y-51360167D01*
X211970741Y-51366189D01*
X211970742Y-51366191D01*
X211984497Y-51388902D01*
X212055246Y-51505723D01*
X212173455Y-51628132D01*
X212196384Y-51643136D01*
X212296289Y-51708512D01*
X212315846Y-51721310D01*
X212322450Y-51723766D01*
X212322452Y-51723767D01*
X212395594Y-51750968D01*
X212475341Y-51780626D01*
X212644015Y-51803132D01*
X212651026Y-51802494D01*
X212651030Y-51802494D01*
X212806462Y-51788348D01*
X212813483Y-51787709D01*
X212820185Y-51785531D01*
X212820187Y-51785531D01*
X212968623Y-51737301D01*
X212968626Y-51737300D01*
X212975322Y-51735124D01*
X213121490Y-51647990D01*
X213126584Y-51643139D01*
X213126588Y-51643136D01*
X213227834Y-51546720D01*
X213244721Y-51530639D01*
X213338891Y-51388902D01*
X213399319Y-51229825D01*
X213423001Y-51061313D01*
X213423159Y-51050000D01*
X213423244Y-51043961D01*
X213423244Y-51043955D01*
X213423299Y-51040000D01*
X213404331Y-50870892D01*
X213348368Y-50710189D01*
X213342383Y-50700610D01*
X213286818Y-50611690D01*
X213258192Y-50565879D01*
X213138286Y-50445132D01*
X213122039Y-50434821D01*
X213008925Y-50363037D01*
X212994608Y-50353951D01*
X212834300Y-50296868D01*
X212665329Y-50276720D01*
X212658326Y-50277456D01*
X212658325Y-50277456D01*
X212503101Y-50293770D01*
X212503097Y-50293771D01*
X212496093Y-50294507D01*
X212482210Y-50299233D01*
X212341673Y-50347075D01*
X212341670Y-50347076D01*
X212335003Y-50349346D01*
X212329005Y-50353036D01*
X212329003Y-50353037D01*
X212196065Y-50434821D01*
X212196063Y-50434823D01*
X212190066Y-50438512D01*
X212068486Y-50557573D01*
X212064675Y-50563487D01*
X212064673Y-50563489D01*
X211980121Y-50694687D01*
X211976304Y-50700610D01*
X211918103Y-50860516D01*
X211896775Y-51029343D01*
X205292074Y-51029343D01*
X205323833Y-50999099D01*
X205374721Y-50950639D01*
X205468891Y-50808902D01*
X205529319Y-50649825D01*
X205553001Y-50481313D01*
X205553299Y-50460000D01*
X205534331Y-50290892D01*
X205478368Y-50130189D01*
X205472383Y-50120610D01*
X205450420Y-50085464D01*
X205388192Y-49985879D01*
X205268286Y-49865132D01*
X205252039Y-49854821D01*
X205209983Y-49828132D01*
X205124608Y-49773951D01*
X204964300Y-49716868D01*
X204795329Y-49696720D01*
X204788326Y-49697456D01*
X204788325Y-49697456D01*
X204633101Y-49713770D01*
X204633097Y-49713771D01*
X204626093Y-49714507D01*
X204619422Y-49716778D01*
X204471673Y-49767075D01*
X204471670Y-49767076D01*
X204465003Y-49769346D01*
X204459005Y-49773036D01*
X204459003Y-49773037D01*
X204326065Y-49854821D01*
X204326063Y-49854823D01*
X204320066Y-49858512D01*
X204198486Y-49977573D01*
X204194675Y-49983487D01*
X204194673Y-49983489D01*
X204182425Y-50002494D01*
X204106304Y-50120610D01*
X204048103Y-50280516D01*
X204026775Y-50449343D01*
X189288241Y-50449343D01*
X189480505Y-49229343D01*
X198116775Y-49229343D01*
X198133381Y-49398699D01*
X198187094Y-49560167D01*
X198190741Y-49566189D01*
X198190742Y-49566191D01*
X198270299Y-49697554D01*
X198275246Y-49705723D01*
X198393455Y-49828132D01*
X198535846Y-49921310D01*
X198542450Y-49923766D01*
X198542452Y-49923767D01*
X198578844Y-49937301D01*
X198695341Y-49980626D01*
X198864015Y-50003132D01*
X198871026Y-50002494D01*
X198871030Y-50002494D01*
X199026462Y-49988348D01*
X199033483Y-49987709D01*
X199040185Y-49985531D01*
X199040187Y-49985531D01*
X199188623Y-49937301D01*
X199188626Y-49937300D01*
X199195322Y-49935124D01*
X199341490Y-49847990D01*
X199346584Y-49843139D01*
X199346588Y-49843136D01*
X199421722Y-49771586D01*
X199464721Y-49730639D01*
X199473871Y-49716868D01*
X199554990Y-49594773D01*
X199558891Y-49588902D01*
X199619319Y-49429825D01*
X199643001Y-49261313D01*
X199643299Y-49240000D01*
X199624331Y-49070892D01*
X199568368Y-48910189D01*
X199562383Y-48900610D01*
X199486207Y-48778706D01*
X199478192Y-48765879D01*
X199468145Y-48755761D01*
X199363248Y-48650129D01*
X199358286Y-48645132D01*
X199342039Y-48634821D01*
X199256819Y-48580739D01*
X199214608Y-48553951D01*
X199054300Y-48496868D01*
X198885329Y-48476720D01*
X198878326Y-48477456D01*
X198878325Y-48477456D01*
X198723101Y-48493770D01*
X198723097Y-48493771D01*
X198716093Y-48494507D01*
X198709422Y-48496778D01*
X198561673Y-48547075D01*
X198561670Y-48547076D01*
X198555003Y-48549346D01*
X198549005Y-48553036D01*
X198549003Y-48553037D01*
X198416065Y-48634821D01*
X198416063Y-48634823D01*
X198410066Y-48638512D01*
X198288486Y-48757573D01*
X198284675Y-48763487D01*
X198284673Y-48763489D01*
X198200121Y-48894687D01*
X198196304Y-48900610D01*
X198138103Y-49060516D01*
X198116775Y-49229343D01*
X189480505Y-49229343D01*
X189957544Y-46202314D01*
X190022625Y-45789343D01*
X208306775Y-45789343D01*
X208323381Y-45958699D01*
X208325605Y-45965384D01*
X208325605Y-45965385D01*
X208335927Y-45996414D01*
X208377094Y-46120167D01*
X208380741Y-46126189D01*
X208380742Y-46126191D01*
X208442237Y-46227730D01*
X208465246Y-46265723D01*
X208583455Y-46388132D01*
X208725846Y-46481310D01*
X208732450Y-46483766D01*
X208732452Y-46483767D01*
X208768844Y-46497301D01*
X208885341Y-46540626D01*
X209054015Y-46563132D01*
X209061026Y-46562494D01*
X209061030Y-46562494D01*
X209216462Y-46548348D01*
X209223483Y-46547709D01*
X209230185Y-46545531D01*
X209230187Y-46545531D01*
X209378623Y-46497301D01*
X209378626Y-46497300D01*
X209385322Y-46495124D01*
X209531490Y-46407990D01*
X209536584Y-46403139D01*
X209536588Y-46403136D01*
X209624204Y-46319700D01*
X209654721Y-46290639D01*
X209748891Y-46148902D01*
X209809319Y-45989825D01*
X209829062Y-45849343D01*
X216786775Y-45849343D01*
X216803381Y-46018699D01*
X216857094Y-46180167D01*
X216860741Y-46186189D01*
X216860742Y-46186191D01*
X216920443Y-46284768D01*
X216945246Y-46325723D01*
X217063455Y-46448132D01*
X217205846Y-46541310D01*
X217212450Y-46543766D01*
X217212452Y-46543767D01*
X217248844Y-46557301D01*
X217365341Y-46600626D01*
X217534015Y-46623132D01*
X217541026Y-46622494D01*
X217541030Y-46622494D01*
X217696462Y-46608348D01*
X217703483Y-46607709D01*
X217710185Y-46605531D01*
X217710187Y-46605531D01*
X217858623Y-46557301D01*
X217858626Y-46557300D01*
X217865322Y-46555124D01*
X218011490Y-46467990D01*
X218016584Y-46463139D01*
X218016588Y-46463136D01*
X218100671Y-46383064D01*
X218134721Y-46350639D01*
X218228891Y-46208902D01*
X218289319Y-46049825D01*
X218296719Y-45997173D01*
X218326005Y-45932499D01*
X218385609Y-45893926D01*
X218456605Y-45893699D01*
X218490484Y-45909276D01*
X218615846Y-45991310D01*
X218622450Y-45993766D01*
X218622452Y-45993767D01*
X218658844Y-46007301D01*
X218775341Y-46050626D01*
X218944015Y-46073132D01*
X218951026Y-46072494D01*
X218951030Y-46072494D01*
X219106462Y-46058348D01*
X219113483Y-46057709D01*
X219120185Y-46055531D01*
X219120187Y-46055531D01*
X219268623Y-46007301D01*
X219268626Y-46007300D01*
X219275322Y-46005124D01*
X219421490Y-45917990D01*
X219426584Y-45913139D01*
X219426588Y-45913136D01*
X219523011Y-45821313D01*
X219544721Y-45800639D01*
X219638891Y-45658902D01*
X219699319Y-45499825D01*
X219723001Y-45331313D01*
X219723299Y-45310000D01*
X219704331Y-45140892D01*
X219696789Y-45119233D01*
X219668345Y-45037554D01*
X219648368Y-44980189D01*
X219642383Y-44970610D01*
X219604321Y-44909700D01*
X219558192Y-44835879D01*
X219438286Y-44715132D01*
X219426185Y-44707452D01*
X219383406Y-44680304D01*
X219294608Y-44623951D01*
X219134300Y-44566868D01*
X218965329Y-44546720D01*
X218958326Y-44547456D01*
X218958325Y-44547456D01*
X218803101Y-44563770D01*
X218803097Y-44563771D01*
X218796093Y-44564507D01*
X218789422Y-44566778D01*
X218641673Y-44617075D01*
X218641670Y-44617076D01*
X218635003Y-44619346D01*
X218629005Y-44623036D01*
X218629003Y-44623037D01*
X218496065Y-44704821D01*
X218496063Y-44704823D01*
X218490066Y-44708512D01*
X218368486Y-44827573D01*
X218364675Y-44833487D01*
X218364673Y-44833489D01*
X218308413Y-44920787D01*
X218276304Y-44970610D01*
X218218103Y-45130516D01*
X218217220Y-45137506D01*
X218213155Y-45169683D01*
X218184773Y-45234760D01*
X218125713Y-45274161D01*
X218054727Y-45275378D01*
X218020635Y-45260276D01*
X217933741Y-45205132D01*
X217884608Y-45173951D01*
X217724300Y-45116868D01*
X217555329Y-45096720D01*
X217548326Y-45097456D01*
X217548325Y-45097456D01*
X217393101Y-45113770D01*
X217393097Y-45113771D01*
X217386093Y-45114507D01*
X217379422Y-45116778D01*
X217231673Y-45167075D01*
X217231670Y-45167076D01*
X217225003Y-45169346D01*
X217219005Y-45173036D01*
X217219003Y-45173037D01*
X217086065Y-45254821D01*
X217086063Y-45254823D01*
X217080066Y-45258512D01*
X216958486Y-45377573D01*
X216954675Y-45383487D01*
X216954673Y-45383489D01*
X216879699Y-45499825D01*
X216866304Y-45520610D01*
X216808103Y-45680516D01*
X216786775Y-45849343D01*
X209829062Y-45849343D01*
X209833001Y-45821313D01*
X209833299Y-45800000D01*
X209814331Y-45630892D01*
X209758368Y-45470189D01*
X209752383Y-45460610D01*
X209709931Y-45392675D01*
X209668192Y-45325879D01*
X209548286Y-45205132D01*
X209537597Y-45198348D01*
X209488318Y-45167075D01*
X209404608Y-45113951D01*
X209244300Y-45056868D01*
X209075329Y-45036720D01*
X209068326Y-45037456D01*
X209068325Y-45037456D01*
X208913101Y-45053770D01*
X208913097Y-45053771D01*
X208906093Y-45054507D01*
X208899422Y-45056778D01*
X208751673Y-45107075D01*
X208751670Y-45107076D01*
X208745003Y-45109346D01*
X208739005Y-45113036D01*
X208739003Y-45113037D01*
X208606065Y-45194821D01*
X208606063Y-45194823D01*
X208600066Y-45198512D01*
X208585788Y-45212494D01*
X208490241Y-45306062D01*
X208478486Y-45317573D01*
X208474675Y-45323487D01*
X208474673Y-45323489D01*
X208390121Y-45454687D01*
X208386304Y-45460610D01*
X208328103Y-45620516D01*
X208306775Y-45789343D01*
X190022625Y-45789343D01*
X190236445Y-44432556D01*
X190251245Y-44390125D01*
X190322664Y-44263897D01*
X191730804Y-41775090D01*
X192308023Y-40754890D01*
X192358977Y-40705451D01*
X192428571Y-40691408D01*
X192494709Y-40717219D01*
X192536393Y-40774690D01*
X192543477Y-40809682D01*
X192550110Y-40924715D01*
X192551247Y-40929761D01*
X192551248Y-40929767D01*
X192571119Y-41017939D01*
X192599222Y-41142639D01*
X192683266Y-41349616D01*
X192799987Y-41540088D01*
X192946250Y-41708938D01*
X192950230Y-41712242D01*
X192954981Y-41716187D01*
X192994616Y-41775090D01*
X192996113Y-41846071D01*
X192958997Y-41906593D01*
X192918724Y-41931112D01*
X192803295Y-41974385D01*
X192686739Y-42061739D01*
X192599385Y-42178295D01*
X192548255Y-42314684D01*
X192541500Y-42376866D01*
X192541500Y-44173134D01*
X192548255Y-44235316D01*
X192599385Y-44371705D01*
X192686739Y-44488261D01*
X192803295Y-44575615D01*
X192939684Y-44626745D01*
X192995560Y-44632815D01*
X192995837Y-44632845D01*
X193001866Y-44633500D01*
X194798134Y-44633500D01*
X194804164Y-44632845D01*
X194804440Y-44632815D01*
X194860316Y-44626745D01*
X194996705Y-44575615D01*
X195113261Y-44488261D01*
X195149923Y-44439343D01*
X205716775Y-44439343D01*
X205733381Y-44608699D01*
X205735605Y-44615384D01*
X205735605Y-44615385D01*
X205738455Y-44623951D01*
X205787094Y-44770167D01*
X205790741Y-44776189D01*
X205790742Y-44776191D01*
X205826891Y-44835879D01*
X205875246Y-44915723D01*
X205993455Y-45038132D01*
X206018479Y-45054507D01*
X206124518Y-45123897D01*
X206135846Y-45131310D01*
X206142450Y-45133766D01*
X206142452Y-45133767D01*
X206215593Y-45160968D01*
X206295341Y-45190626D01*
X206464015Y-45213132D01*
X206471026Y-45212494D01*
X206471030Y-45212494D01*
X206626462Y-45198348D01*
X206633483Y-45197709D01*
X206640185Y-45195531D01*
X206640187Y-45195531D01*
X206788623Y-45147301D01*
X206788626Y-45147300D01*
X206795322Y-45145124D01*
X206941490Y-45057990D01*
X206946584Y-45053139D01*
X206946588Y-45053136D01*
X207039468Y-44964687D01*
X207064721Y-44940639D01*
X207158891Y-44798902D01*
X207219319Y-44639825D01*
X207243001Y-44471313D01*
X207243299Y-44450000D01*
X207224331Y-44280892D01*
X207168368Y-44120189D01*
X207162383Y-44110610D01*
X207125329Y-44051313D01*
X207105352Y-44019343D01*
X213426775Y-44019343D01*
X213443381Y-44188699D01*
X213497094Y-44350167D01*
X213500741Y-44356189D01*
X213500742Y-44356191D01*
X213576939Y-44482006D01*
X213585246Y-44495723D01*
X213703455Y-44618132D01*
X213774651Y-44664721D01*
X213835930Y-44704821D01*
X213845846Y-44711310D01*
X213852450Y-44713766D01*
X213852452Y-44713767D01*
X213888844Y-44727301D01*
X214005341Y-44770626D01*
X214174015Y-44793132D01*
X214181026Y-44792494D01*
X214181030Y-44792494D01*
X214336462Y-44778348D01*
X214343483Y-44777709D01*
X214350185Y-44775531D01*
X214350187Y-44775531D01*
X214498623Y-44727301D01*
X214498626Y-44727300D01*
X214505322Y-44725124D01*
X214651490Y-44637990D01*
X214656584Y-44633139D01*
X214656588Y-44633136D01*
X214747333Y-44546720D01*
X214774721Y-44520639D01*
X214868891Y-44378902D01*
X214929319Y-44219825D01*
X214953001Y-44051313D01*
X214953299Y-44030000D01*
X214934331Y-43860892D01*
X214928735Y-43844821D01*
X214880686Y-43706846D01*
X214878368Y-43700189D01*
X214872383Y-43690610D01*
X214797178Y-43570260D01*
X214788192Y-43555879D01*
X214668286Y-43435132D01*
X214652039Y-43424821D01*
X214613406Y-43400304D01*
X214524608Y-43343951D01*
X214364300Y-43286868D01*
X214195329Y-43266720D01*
X214188326Y-43267456D01*
X214188325Y-43267456D01*
X214033101Y-43283770D01*
X214033097Y-43283771D01*
X214026093Y-43284507D01*
X214019422Y-43286778D01*
X213871673Y-43337075D01*
X213871670Y-43337076D01*
X213865003Y-43339346D01*
X213859005Y-43343036D01*
X213859003Y-43343037D01*
X213726065Y-43424821D01*
X213726063Y-43424823D01*
X213720066Y-43428512D01*
X213598486Y-43547573D01*
X213506304Y-43690610D01*
X213448103Y-43850516D01*
X213426775Y-44019343D01*
X207105352Y-44019343D01*
X207078192Y-43975879D01*
X206958286Y-43855132D01*
X206951013Y-43850516D01*
X206903406Y-43820304D01*
X206814608Y-43763951D01*
X206654300Y-43706868D01*
X206485329Y-43686720D01*
X206478326Y-43687456D01*
X206478325Y-43687456D01*
X206323101Y-43703770D01*
X206323097Y-43703771D01*
X206316093Y-43704507D01*
X206309422Y-43706778D01*
X206161673Y-43757075D01*
X206161670Y-43757076D01*
X206155003Y-43759346D01*
X206149005Y-43763036D01*
X206149003Y-43763037D01*
X206016065Y-43844821D01*
X206016063Y-43844823D01*
X206010066Y-43848512D01*
X205888486Y-43967573D01*
X205884675Y-43973487D01*
X205884673Y-43973489D01*
X205831999Y-44055223D01*
X205796304Y-44110610D01*
X205738103Y-44270516D01*
X205716775Y-44439343D01*
X195149923Y-44439343D01*
X195200615Y-44371705D01*
X195251745Y-44235316D01*
X195258500Y-44173134D01*
X195258500Y-42376866D01*
X195251745Y-42314684D01*
X195200615Y-42178295D01*
X195113261Y-42061739D01*
X194996705Y-41974385D01*
X194984132Y-41969672D01*
X194878203Y-41929960D01*
X194821439Y-41887318D01*
X194796739Y-41820756D01*
X194811947Y-41751408D01*
X194833493Y-41722727D01*
X194934435Y-41622137D01*
X194938096Y-41618489D01*
X194997594Y-41535689D01*
X195065435Y-41441277D01*
X195068453Y-41437077D01*
X195167430Y-41236811D01*
X195232370Y-41023069D01*
X195261529Y-40801590D01*
X195263156Y-40735000D01*
X195244852Y-40512361D01*
X195190431Y-40295702D01*
X195101354Y-40090840D01*
X194980014Y-39903277D01*
X194829670Y-39738051D01*
X194825619Y-39734852D01*
X194825615Y-39734848D01*
X194658414Y-39602800D01*
X194658410Y-39602798D01*
X194654359Y-39599598D01*
X194458789Y-39491638D01*
X194453920Y-39489914D01*
X194453916Y-39489912D01*
X194253087Y-39418795D01*
X194253083Y-39418794D01*
X194248212Y-39417069D01*
X194243119Y-39416162D01*
X194243116Y-39416161D01*
X194033373Y-39378800D01*
X194033367Y-39378799D01*
X194028284Y-39377894D01*
X193954452Y-39376992D01*
X193810081Y-39375228D01*
X193810079Y-39375228D01*
X193804911Y-39375165D01*
X193584091Y-39408955D01*
X193371756Y-39478357D01*
X193367168Y-39480745D01*
X193367164Y-39480747D01*
X193265018Y-39533921D01*
X193195358Y-39547634D01*
X193129343Y-39521509D01*
X193087932Y-39463840D01*
X193084273Y-39392938D01*
X193097174Y-39360111D01*
X193238908Y-39109605D01*
X193267199Y-39075452D01*
X195748181Y-36976843D01*
X204644275Y-36976843D01*
X204660881Y-37146199D01*
X204714594Y-37307667D01*
X204718241Y-37313689D01*
X204718242Y-37313691D01*
X204731997Y-37336402D01*
X204802746Y-37453223D01*
X204920955Y-37575632D01*
X205063346Y-37668810D01*
X205069950Y-37671266D01*
X205069952Y-37671267D01*
X205106344Y-37684801D01*
X205222841Y-37728126D01*
X205391515Y-37750632D01*
X205398526Y-37749994D01*
X205398530Y-37749994D01*
X205553962Y-37735848D01*
X205560983Y-37735209D01*
X205567685Y-37733031D01*
X205567687Y-37733031D01*
X205716123Y-37684801D01*
X205716126Y-37684800D01*
X205722822Y-37682624D01*
X205868990Y-37595490D01*
X205874084Y-37590639D01*
X205874088Y-37590636D01*
X205941333Y-37526599D01*
X205992221Y-37478139D01*
X206086391Y-37336402D01*
X206146819Y-37177325D01*
X206170501Y-37008813D01*
X206170799Y-36987500D01*
X206151831Y-36818392D01*
X206095868Y-36657689D01*
X206089883Y-36648110D01*
X206067920Y-36612964D01*
X206005692Y-36513379D01*
X205885786Y-36392632D01*
X205869539Y-36382321D01*
X205816630Y-36348744D01*
X205742108Y-36301451D01*
X205581800Y-36244368D01*
X205412829Y-36224220D01*
X205405826Y-36224956D01*
X205405825Y-36224956D01*
X205250601Y-36241270D01*
X205250597Y-36241271D01*
X205243593Y-36242007D01*
X205236922Y-36244278D01*
X205089173Y-36294575D01*
X205089170Y-36294576D01*
X205082503Y-36296846D01*
X205076505Y-36300536D01*
X205076503Y-36300537D01*
X204943565Y-36382321D01*
X204943563Y-36382323D01*
X204937566Y-36386012D01*
X204815986Y-36505073D01*
X204812175Y-36510987D01*
X204812173Y-36510989D01*
X204727621Y-36642187D01*
X204723804Y-36648110D01*
X204665603Y-36808016D01*
X204644275Y-36976843D01*
X195748181Y-36976843D01*
X196289026Y-36519354D01*
X198806340Y-34390014D01*
X198860246Y-34363245D01*
X206678341Y-32617071D01*
X206741136Y-32619096D01*
G37*
%TD.AperFunction*%
M02*
