G04 #@! TF.GenerationSoftware,KiCad,Pcbnew,(6.0.1-0)*
G04 #@! TF.CreationDate,2022-05-03T07:14:09+06:00*
G04 #@! TF.ProjectId,Sound Sensor,536f756e-6420-4536-956e-736f722e6b69,rev?*
G04 #@! TF.SameCoordinates,Original*
G04 #@! TF.FileFunction,Copper,L3,Inr*
G04 #@! TF.FilePolarity,Positive*
%FSLAX46Y46*%
G04 Gerber Fmt 4.6, Leading zero omitted, Abs format (unit mm)*
G04 Created by KiCad (PCBNEW (6.0.1-0)) date 2022-05-03 07:14:09*
%MOMM*%
%LPD*%
G01*
G04 APERTURE LIST*
G04 #@! TA.AperFunction,ComponentPad*
%ADD10O,2.000000X1.200000*%
G04 #@! TD*
G04 #@! TA.AperFunction,ComponentPad*
%ADD11O,0.800000X1.400000*%
G04 #@! TD*
G04 #@! TA.AperFunction,ComponentPad*
%ADD12R,1.700000X1.700000*%
G04 #@! TD*
G04 #@! TA.AperFunction,ComponentPad*
%ADD13O,1.700000X1.700000*%
G04 #@! TD*
G04 #@! TA.AperFunction,ComponentPad*
%ADD14C,1.270000*%
G04 #@! TD*
G04 #@! TA.AperFunction,ComponentPad*
%ADD15C,1.228000*%
G04 #@! TD*
G04 #@! TA.AperFunction,ViaPad*
%ADD16C,0.800000*%
G04 #@! TD*
G04 #@! TA.AperFunction,ViaPad*
%ADD17C,0.500000*%
G04 #@! TD*
G04 APERTURE END LIST*
D10*
X168620000Y-144330000D03*
X168620000Y-141830000D03*
X168620000Y-139330000D03*
D11*
X170540000Y-98760000D03*
X179520000Y-98760000D03*
X179160000Y-104710000D03*
X170900000Y-104710000D03*
D12*
X226100000Y-127780000D03*
D13*
X226100000Y-130320000D03*
X226100000Y-132860000D03*
X226100000Y-135400000D03*
D14*
X217990000Y-104640500D03*
X217990000Y-107140500D03*
D15*
X168390000Y-131775000D03*
X168390000Y-129275000D03*
D16*
X195670000Y-112700000D03*
X199165000Y-112700000D03*
X202660000Y-112700000D03*
X206155000Y-112700000D03*
X209670000Y-112700000D03*
X213480000Y-112700000D03*
X217200000Y-112720000D03*
X217200000Y-115170000D03*
X213570000Y-115150000D03*
X209670000Y-115150000D03*
X206170000Y-115150000D03*
X202670000Y-115150000D03*
X199170000Y-115150000D03*
X195670000Y-115150000D03*
X182130000Y-126430000D03*
X186765000Y-120735000D03*
X200300000Y-125200000D03*
X193880000Y-130920000D03*
X198200000Y-134700000D03*
X173005000Y-136695000D03*
X201600000Y-144600000D03*
X175200000Y-112500000D03*
X207600000Y-146600000D03*
X198200000Y-121300000D03*
X197200000Y-131100000D03*
X179010000Y-125890000D03*
X183400000Y-126900000D03*
X177780000Y-108480000D03*
X174800000Y-130700000D03*
X208300000Y-136500000D03*
X195400000Y-134200000D03*
X198600000Y-142900000D03*
X208100000Y-126400000D03*
X178110000Y-115910000D03*
X175130000Y-127470000D03*
X178140000Y-132050000D03*
X178260000Y-135550000D03*
X177690000Y-128140000D03*
X176540000Y-138480000D03*
X177310000Y-123450000D03*
D17*
X198400000Y-108710000D03*
D16*
X180580000Y-110270000D03*
X177110000Y-118500000D03*
X176310000Y-127340000D03*
X200370000Y-134960000D03*
X202880000Y-134960000D03*
X191693459Y-131873459D03*
X191693459Y-130415500D03*
X196169001Y-132093798D03*
X191710000Y-134870000D03*
X193651577Y-134916342D03*
X194710000Y-131980000D03*
X201670000Y-133100000D03*
D17*
X200380000Y-101600000D03*
X198330000Y-106650000D03*
G04 #@! TA.AperFunction,Conductor*
G36*
X177412584Y-109310893D02*
G01*
X177491676Y-109346107D01*
X177491679Y-109346108D01*
X177497712Y-109348794D01*
X177539340Y-109357642D01*
X177678056Y-109387128D01*
X177678061Y-109387128D01*
X177684513Y-109388500D01*
X177875487Y-109388500D01*
X177881939Y-109387128D01*
X177881944Y-109387128D01*
X178020660Y-109357642D01*
X178062288Y-109348794D01*
X178068321Y-109346108D01*
X178068324Y-109346107D01*
X178147416Y-109310893D01*
X178198664Y-109300000D01*
X179981670Y-109300000D01*
X180049791Y-109320002D01*
X180096284Y-109373658D01*
X180106388Y-109443932D01*
X180076894Y-109508512D01*
X180055731Y-109527936D01*
X179968747Y-109591134D01*
X179840960Y-109733056D01*
X179745473Y-109898444D01*
X179686458Y-110080072D01*
X179666496Y-110270000D01*
X179686458Y-110459928D01*
X179745473Y-110641556D01*
X179840960Y-110806944D01*
X179968747Y-110948866D01*
X180123248Y-111061118D01*
X180129276Y-111063802D01*
X180129278Y-111063803D01*
X180291681Y-111136109D01*
X180297712Y-111138794D01*
X180391113Y-111158647D01*
X180478056Y-111177128D01*
X180478061Y-111177128D01*
X180484513Y-111178500D01*
X180675487Y-111178500D01*
X180681939Y-111177128D01*
X180681944Y-111177128D01*
X180768887Y-111158647D01*
X180862288Y-111138794D01*
X180868319Y-111136109D01*
X181030722Y-111063803D01*
X181030724Y-111063802D01*
X181036752Y-111061118D01*
X181191253Y-110948866D01*
X181319040Y-110806944D01*
X181414527Y-110641556D01*
X181473542Y-110459928D01*
X181493504Y-110270000D01*
X181473542Y-110080072D01*
X181414527Y-109898444D01*
X181319040Y-109733056D01*
X181191253Y-109591134D01*
X181104269Y-109527936D01*
X181060915Y-109471713D01*
X181054840Y-109400977D01*
X181087972Y-109338186D01*
X181149792Y-109303274D01*
X181178330Y-109300000D01*
X197878748Y-109300000D01*
X197947741Y-109320568D01*
X198010292Y-109361500D01*
X198055846Y-109391310D01*
X198062450Y-109393766D01*
X198062452Y-109393767D01*
X198098844Y-109407301D01*
X198215341Y-109450626D01*
X198384015Y-109473132D01*
X198391026Y-109472494D01*
X198391030Y-109472494D01*
X198546462Y-109458348D01*
X198553483Y-109457709D01*
X198560185Y-109455531D01*
X198560187Y-109455531D01*
X198708623Y-109407301D01*
X198708626Y-109407300D01*
X198715322Y-109405124D01*
X198861490Y-109317990D01*
X198863094Y-109320681D01*
X198916571Y-109300376D01*
X198926297Y-109300000D01*
X207174000Y-109300000D01*
X207242121Y-109320002D01*
X207288614Y-109373658D01*
X207300000Y-109426000D01*
X207300000Y-112498310D01*
X207279998Y-112566431D01*
X207226342Y-112612924D01*
X207156068Y-112623028D01*
X207091488Y-112593534D01*
X207053104Y-112533808D01*
X207050972Y-112523022D01*
X207050606Y-112523100D01*
X207049232Y-112516635D01*
X207048542Y-112510072D01*
X206989527Y-112328444D01*
X206894040Y-112163056D01*
X206766253Y-112021134D01*
X206611752Y-111908882D01*
X206605724Y-111906198D01*
X206605722Y-111906197D01*
X206443319Y-111833891D01*
X206443318Y-111833891D01*
X206437288Y-111831206D01*
X206343887Y-111811353D01*
X206256944Y-111792872D01*
X206256939Y-111792872D01*
X206250487Y-111791500D01*
X206059513Y-111791500D01*
X206053061Y-111792872D01*
X206053056Y-111792872D01*
X205966112Y-111811353D01*
X205872712Y-111831206D01*
X205866682Y-111833891D01*
X205866681Y-111833891D01*
X205704278Y-111906197D01*
X205704276Y-111906198D01*
X205698248Y-111908882D01*
X205543747Y-112021134D01*
X205415960Y-112163056D01*
X205320473Y-112328444D01*
X205261458Y-112510072D01*
X205260768Y-112516633D01*
X205260768Y-112516635D01*
X205252686Y-112593534D01*
X205241496Y-112700000D01*
X205242186Y-112706565D01*
X205260148Y-112877460D01*
X205261458Y-112889928D01*
X205320473Y-113071556D01*
X205415960Y-113236944D01*
X205420378Y-113241851D01*
X205420379Y-113241852D01*
X205534678Y-113368794D01*
X205543747Y-113378866D01*
X205698248Y-113491118D01*
X205704276Y-113493802D01*
X205704278Y-113493803D01*
X205866681Y-113566109D01*
X205872712Y-113568794D01*
X205966113Y-113588647D01*
X206053056Y-113607128D01*
X206053061Y-113607128D01*
X206059513Y-113608500D01*
X206250487Y-113608500D01*
X206256939Y-113607128D01*
X206256944Y-113607128D01*
X206343887Y-113588647D01*
X206437288Y-113568794D01*
X206443319Y-113566109D01*
X206605722Y-113493803D01*
X206605724Y-113493802D01*
X206611752Y-113491118D01*
X206766253Y-113378866D01*
X206775322Y-113368794D01*
X206889621Y-113241852D01*
X206889622Y-113241851D01*
X206894040Y-113236944D01*
X206989527Y-113071556D01*
X207048542Y-112889928D01*
X207049232Y-112883364D01*
X207050606Y-112876900D01*
X207053240Y-112877460D01*
X207075704Y-112822862D01*
X207133926Y-112782233D01*
X207204871Y-112779530D01*
X207266015Y-112815613D01*
X207297945Y-112879024D01*
X207300000Y-112901690D01*
X207300000Y-114892283D01*
X207279998Y-114960404D01*
X207226342Y-115006897D01*
X207156068Y-115017001D01*
X207091488Y-114987507D01*
X207054167Y-114931219D01*
X207006569Y-114784729D01*
X207004527Y-114778444D01*
X206909040Y-114613056D01*
X206781253Y-114471134D01*
X206626752Y-114358882D01*
X206620724Y-114356198D01*
X206620722Y-114356197D01*
X206458319Y-114283891D01*
X206458318Y-114283891D01*
X206452288Y-114281206D01*
X206358887Y-114261353D01*
X206271944Y-114242872D01*
X206271939Y-114242872D01*
X206265487Y-114241500D01*
X206074513Y-114241500D01*
X206068061Y-114242872D01*
X206068056Y-114242872D01*
X205981113Y-114261353D01*
X205887712Y-114281206D01*
X205881682Y-114283891D01*
X205881681Y-114283891D01*
X205719278Y-114356197D01*
X205719276Y-114356198D01*
X205713248Y-114358882D01*
X205558747Y-114471134D01*
X205430960Y-114613056D01*
X205335473Y-114778444D01*
X205276458Y-114960072D01*
X205275768Y-114966633D01*
X205275768Y-114966635D01*
X205267648Y-115043891D01*
X205256496Y-115150000D01*
X205257186Y-115156565D01*
X205271699Y-115294645D01*
X205276458Y-115339928D01*
X205335473Y-115521556D01*
X205430960Y-115686944D01*
X205435378Y-115691851D01*
X205435379Y-115691852D01*
X205466698Y-115726635D01*
X205558747Y-115828866D01*
X205713248Y-115941118D01*
X205719276Y-115943802D01*
X205719278Y-115943803D01*
X205881681Y-116016109D01*
X205887712Y-116018794D01*
X205981112Y-116038647D01*
X206068056Y-116057128D01*
X206068061Y-116057128D01*
X206074513Y-116058500D01*
X206265487Y-116058500D01*
X206271939Y-116057128D01*
X206271944Y-116057128D01*
X206358888Y-116038647D01*
X206452288Y-116018794D01*
X206458319Y-116016109D01*
X206620722Y-115943803D01*
X206620724Y-115943802D01*
X206626752Y-115941118D01*
X206781253Y-115828866D01*
X206873302Y-115726635D01*
X206904621Y-115691852D01*
X206904622Y-115691851D01*
X206909040Y-115686944D01*
X207004527Y-115521556D01*
X207054167Y-115368781D01*
X207094241Y-115310175D01*
X207159637Y-115282538D01*
X207229594Y-115294645D01*
X207281900Y-115342651D01*
X207300000Y-115407717D01*
X207300000Y-125934880D01*
X207283119Y-125997880D01*
X207265473Y-126028444D01*
X207206458Y-126210072D01*
X207186496Y-126400000D01*
X207206458Y-126589928D01*
X207265473Y-126771556D01*
X207268776Y-126777278D01*
X207268777Y-126777279D01*
X207283119Y-126802120D01*
X207300000Y-126865120D01*
X207300000Y-145657266D01*
X207279998Y-145725387D01*
X207225249Y-145772373D01*
X207149278Y-145806197D01*
X207149276Y-145806198D01*
X207143248Y-145808882D01*
X207137907Y-145812762D01*
X207137906Y-145812763D01*
X207049828Y-145876756D01*
X206976086Y-145900820D01*
X167926319Y-145999680D01*
X167858148Y-145979850D01*
X167811519Y-145926312D01*
X167800000Y-145873680D01*
X167800000Y-145530414D01*
X167820002Y-145462293D01*
X167873658Y-145415800D01*
X167950150Y-145406750D01*
X168111337Y-145438228D01*
X168116899Y-145438500D01*
X169072846Y-145438500D01*
X169230566Y-145423452D01*
X169433534Y-145363908D01*
X169438862Y-145361164D01*
X169616249Y-145269804D01*
X169616252Y-145269802D01*
X169621580Y-145267058D01*
X169787920Y-145136396D01*
X169791852Y-145131865D01*
X169791855Y-145131862D01*
X169922621Y-144981167D01*
X169926552Y-144976637D01*
X169929552Y-144971451D01*
X169929555Y-144971447D01*
X170029467Y-144798742D01*
X170032473Y-144793546D01*
X170101861Y-144593729D01*
X170132213Y-144384396D01*
X170122433Y-144173101D01*
X170072875Y-143967466D01*
X169985326Y-143774913D01*
X169862946Y-143602389D01*
X169710150Y-143456119D01*
X169532452Y-143341380D01*
X169472354Y-143317160D01*
X169341832Y-143264558D01*
X169341829Y-143264557D01*
X169336263Y-143262314D01*
X169128663Y-143221772D01*
X169123101Y-143221500D01*
X168167154Y-143221500D01*
X168009434Y-143236548D01*
X168003678Y-143238237D01*
X168003676Y-143238237D01*
X167961469Y-143250619D01*
X167890472Y-143250601D01*
X167830755Y-143212203D01*
X167801278Y-143147615D01*
X167800000Y-143129714D01*
X167800000Y-143030414D01*
X167820002Y-142962293D01*
X167873658Y-142915800D01*
X167950150Y-142906750D01*
X168111337Y-142938228D01*
X168116899Y-142938500D01*
X169072846Y-142938500D01*
X169230566Y-142923452D01*
X169310507Y-142900000D01*
X197686496Y-142900000D01*
X197687186Y-142906565D01*
X197690536Y-142938434D01*
X197706458Y-143089928D01*
X197765473Y-143271556D01*
X197860960Y-143436944D01*
X197865378Y-143441851D01*
X197865379Y-143441852D01*
X197938989Y-143523604D01*
X197988747Y-143578866D01*
X198143248Y-143691118D01*
X198149276Y-143693802D01*
X198149278Y-143693803D01*
X198311681Y-143766109D01*
X198317712Y-143768794D01*
X198411113Y-143788647D01*
X198498056Y-143807128D01*
X198498061Y-143807128D01*
X198504513Y-143808500D01*
X198695487Y-143808500D01*
X198701939Y-143807128D01*
X198701944Y-143807128D01*
X198788887Y-143788647D01*
X198882288Y-143768794D01*
X198888319Y-143766109D01*
X199050722Y-143693803D01*
X199050724Y-143693802D01*
X199056752Y-143691118D01*
X199211253Y-143578866D01*
X199261011Y-143523604D01*
X199334621Y-143441852D01*
X199334622Y-143441851D01*
X199339040Y-143436944D01*
X199434527Y-143271556D01*
X199493542Y-143089928D01*
X199509465Y-142938434D01*
X199512814Y-142906565D01*
X199513504Y-142900000D01*
X199499820Y-142769804D01*
X199494232Y-142716635D01*
X199494232Y-142716633D01*
X199493542Y-142710072D01*
X199434527Y-142528444D01*
X199339040Y-142363056D01*
X199281132Y-142298742D01*
X199215675Y-142226045D01*
X199215674Y-142226044D01*
X199211253Y-142221134D01*
X199056752Y-142108882D01*
X199050724Y-142106198D01*
X199050722Y-142106197D01*
X198888319Y-142033891D01*
X198888318Y-142033891D01*
X198882288Y-142031206D01*
X198788888Y-142011353D01*
X198701944Y-141992872D01*
X198701939Y-141992872D01*
X198695487Y-141991500D01*
X198504513Y-141991500D01*
X198498061Y-141992872D01*
X198498056Y-141992872D01*
X198411112Y-142011353D01*
X198317712Y-142031206D01*
X198311682Y-142033891D01*
X198311681Y-142033891D01*
X198149278Y-142106197D01*
X198149276Y-142106198D01*
X198143248Y-142108882D01*
X197988747Y-142221134D01*
X197984326Y-142226044D01*
X197984325Y-142226045D01*
X197918869Y-142298742D01*
X197860960Y-142363056D01*
X197765473Y-142528444D01*
X197706458Y-142710072D01*
X197705768Y-142716633D01*
X197705768Y-142716635D01*
X197700180Y-142769804D01*
X197686496Y-142900000D01*
X169310507Y-142900000D01*
X169433534Y-142863908D01*
X169472260Y-142843963D01*
X169616249Y-142769804D01*
X169616252Y-142769802D01*
X169621580Y-142767058D01*
X169787920Y-142636396D01*
X169791852Y-142631865D01*
X169791855Y-142631862D01*
X169922621Y-142481167D01*
X169926552Y-142476637D01*
X169929552Y-142471451D01*
X169929555Y-142471447D01*
X170029467Y-142298742D01*
X170032473Y-142293546D01*
X170101861Y-142093729D01*
X170110537Y-142033891D01*
X170131352Y-141890336D01*
X170131352Y-141890333D01*
X170132213Y-141884396D01*
X170122433Y-141673101D01*
X170072875Y-141467466D01*
X169985326Y-141274913D01*
X169862946Y-141102389D01*
X169710150Y-140956119D01*
X169532452Y-140841380D01*
X169472354Y-140817160D01*
X169341832Y-140764558D01*
X169341829Y-140764557D01*
X169336263Y-140762314D01*
X169128663Y-140721772D01*
X169123101Y-140721500D01*
X168167154Y-140721500D01*
X168009434Y-140736548D01*
X168003678Y-140738237D01*
X168003676Y-140738237D01*
X167961469Y-140750619D01*
X167890472Y-140750601D01*
X167830755Y-140712203D01*
X167801278Y-140647615D01*
X167800000Y-140629714D01*
X167800000Y-140530414D01*
X167820002Y-140462293D01*
X167873658Y-140415800D01*
X167950150Y-140406750D01*
X168111337Y-140438228D01*
X168116899Y-140438500D01*
X169072846Y-140438500D01*
X169230566Y-140423452D01*
X169433534Y-140363908D01*
X169438862Y-140361164D01*
X169616249Y-140269804D01*
X169616252Y-140269802D01*
X169621580Y-140267058D01*
X169787920Y-140136396D01*
X169791852Y-140131865D01*
X169791855Y-140131862D01*
X169922621Y-139981167D01*
X169926552Y-139976637D01*
X169929552Y-139971451D01*
X169929555Y-139971447D01*
X170029467Y-139798742D01*
X170032473Y-139793546D01*
X170101861Y-139593729D01*
X170132213Y-139384396D01*
X170122433Y-139173101D01*
X170072875Y-138967466D01*
X169985326Y-138774913D01*
X169862946Y-138602389D01*
X169741954Y-138486565D01*
X169735096Y-138480000D01*
X175626496Y-138480000D01*
X175646458Y-138669928D01*
X175705473Y-138851556D01*
X175800960Y-139016944D01*
X175928747Y-139158866D01*
X176083248Y-139271118D01*
X176089276Y-139273802D01*
X176089278Y-139273803D01*
X176251681Y-139346109D01*
X176257712Y-139348794D01*
X176351112Y-139368647D01*
X176438056Y-139387128D01*
X176438061Y-139387128D01*
X176444513Y-139388500D01*
X176635487Y-139388500D01*
X176641939Y-139387128D01*
X176641944Y-139387128D01*
X176728888Y-139368647D01*
X176822288Y-139348794D01*
X176828319Y-139346109D01*
X176990722Y-139273803D01*
X176990724Y-139273802D01*
X176996752Y-139271118D01*
X177151253Y-139158866D01*
X177279040Y-139016944D01*
X177374527Y-138851556D01*
X177433542Y-138669928D01*
X177453504Y-138480000D01*
X177433542Y-138290072D01*
X177374527Y-138108444D01*
X177279040Y-137943056D01*
X177151253Y-137801134D01*
X176996752Y-137688882D01*
X176990724Y-137686198D01*
X176990722Y-137686197D01*
X176828319Y-137613891D01*
X176828318Y-137613891D01*
X176822288Y-137611206D01*
X176728887Y-137591353D01*
X176641944Y-137572872D01*
X176641939Y-137572872D01*
X176635487Y-137571500D01*
X176444513Y-137571500D01*
X176438061Y-137572872D01*
X176438056Y-137572872D01*
X176351113Y-137591353D01*
X176257712Y-137611206D01*
X176251682Y-137613891D01*
X176251681Y-137613891D01*
X176089278Y-137686197D01*
X176089276Y-137686198D01*
X176083248Y-137688882D01*
X175928747Y-137801134D01*
X175800960Y-137943056D01*
X175705473Y-138108444D01*
X175646458Y-138290072D01*
X175626496Y-138480000D01*
X169735096Y-138480000D01*
X169714480Y-138460264D01*
X169710150Y-138456119D01*
X169532452Y-138341380D01*
X169421425Y-138296635D01*
X169341832Y-138264558D01*
X169341829Y-138264557D01*
X169336263Y-138262314D01*
X169128663Y-138221772D01*
X169123101Y-138221500D01*
X168167154Y-138221500D01*
X168009434Y-138236548D01*
X168003678Y-138238237D01*
X168003676Y-138238237D01*
X167961469Y-138250619D01*
X167890472Y-138250601D01*
X167830755Y-138212203D01*
X167801278Y-138147615D01*
X167800000Y-138129714D01*
X167800000Y-135550000D01*
X177346496Y-135550000D01*
X177347186Y-135556565D01*
X177363046Y-135707460D01*
X177366458Y-135739928D01*
X177425473Y-135921556D01*
X177520960Y-136086944D01*
X177648747Y-136228866D01*
X177803248Y-136341118D01*
X177809276Y-136343802D01*
X177809278Y-136343803D01*
X177971681Y-136416109D01*
X177977712Y-136418794D01*
X178071113Y-136438647D01*
X178158056Y-136457128D01*
X178158061Y-136457128D01*
X178164513Y-136458500D01*
X178355487Y-136458500D01*
X178361939Y-136457128D01*
X178361944Y-136457128D01*
X178448887Y-136438647D01*
X178542288Y-136418794D01*
X178548319Y-136416109D01*
X178710722Y-136343803D01*
X178710724Y-136343802D01*
X178716752Y-136341118D01*
X178871253Y-136228866D01*
X178999040Y-136086944D01*
X179094527Y-135921556D01*
X179153542Y-135739928D01*
X179156955Y-135707460D01*
X179172814Y-135556565D01*
X179173504Y-135550000D01*
X179158984Y-135411852D01*
X179154232Y-135366635D01*
X179154232Y-135366633D01*
X179153542Y-135360072D01*
X179094527Y-135178444D01*
X178999040Y-135013056D01*
X178975793Y-134987237D01*
X178875675Y-134876045D01*
X178875674Y-134876044D01*
X178871253Y-134871134D01*
X178869692Y-134870000D01*
X190796496Y-134870000D01*
X190797186Y-134876565D01*
X190812133Y-135018774D01*
X190816458Y-135059928D01*
X190875473Y-135241556D01*
X190970960Y-135406944D01*
X190975378Y-135411851D01*
X190975379Y-135411852D01*
X191046848Y-135491226D01*
X191098747Y-135548866D01*
X191253248Y-135661118D01*
X191259276Y-135663802D01*
X191259278Y-135663803D01*
X191348617Y-135703579D01*
X191427712Y-135738794D01*
X191521112Y-135758647D01*
X191608056Y-135777128D01*
X191608061Y-135777128D01*
X191614513Y-135778500D01*
X191805487Y-135778500D01*
X191811939Y-135777128D01*
X191811944Y-135777128D01*
X191898888Y-135758647D01*
X191992288Y-135738794D01*
X192071383Y-135703579D01*
X192160722Y-135663803D01*
X192160724Y-135663802D01*
X192166752Y-135661118D01*
X192321253Y-135548866D01*
X192373152Y-135491226D01*
X192444621Y-135411852D01*
X192444622Y-135411851D01*
X192449040Y-135406944D01*
X192544527Y-135241556D01*
X192553428Y-135214163D01*
X192593502Y-135155559D01*
X192658899Y-135127923D01*
X192728856Y-135140031D01*
X192781161Y-135188038D01*
X192793092Y-135214164D01*
X192817050Y-135287898D01*
X192912537Y-135453286D01*
X192916955Y-135458193D01*
X192916956Y-135458194D01*
X193002094Y-135552749D01*
X193040324Y-135595208D01*
X193194825Y-135707460D01*
X193200853Y-135710144D01*
X193200855Y-135710145D01*
X193354384Y-135778500D01*
X193369289Y-135785136D01*
X193462689Y-135804989D01*
X193549633Y-135823470D01*
X193549638Y-135823470D01*
X193556090Y-135824842D01*
X193747064Y-135824842D01*
X193753516Y-135823470D01*
X193753521Y-135823470D01*
X193840465Y-135804989D01*
X193933865Y-135785136D01*
X193948770Y-135778500D01*
X194102299Y-135710145D01*
X194102301Y-135710144D01*
X194108329Y-135707460D01*
X194262830Y-135595208D01*
X194301060Y-135552749D01*
X194386198Y-135458194D01*
X194386199Y-135458193D01*
X194390617Y-135453286D01*
X194486104Y-135287898D01*
X194545119Y-135106270D01*
X194550680Y-135053365D01*
X194562406Y-134941793D01*
X194589419Y-134876136D01*
X194647641Y-134835506D01*
X194718586Y-134832803D01*
X194781352Y-134870653D01*
X194788747Y-134878866D01*
X194943248Y-134991118D01*
X194949276Y-134993802D01*
X194949278Y-134993803D01*
X195111681Y-135066109D01*
X195117712Y-135068794D01*
X195211112Y-135088647D01*
X195298056Y-135107128D01*
X195298061Y-135107128D01*
X195304513Y-135108500D01*
X195495487Y-135108500D01*
X195501939Y-135107128D01*
X195501944Y-135107128D01*
X195588888Y-135088647D01*
X195682288Y-135068794D01*
X195688319Y-135066109D01*
X195850722Y-134993803D01*
X195850724Y-134993802D01*
X195856752Y-134991118D01*
X195899582Y-134960000D01*
X199456496Y-134960000D01*
X199457186Y-134966565D01*
X199471960Y-135107128D01*
X199476458Y-135149928D01*
X199535473Y-135331556D01*
X199630960Y-135496944D01*
X199635378Y-135501851D01*
X199635379Y-135501852D01*
X199673289Y-135543955D01*
X199758747Y-135638866D01*
X199853158Y-135707460D01*
X199896286Y-135738794D01*
X199913248Y-135751118D01*
X199919276Y-135753802D01*
X199919278Y-135753803D01*
X200081681Y-135826109D01*
X200087712Y-135828794D01*
X200181112Y-135848647D01*
X200268056Y-135867128D01*
X200268061Y-135867128D01*
X200274513Y-135868500D01*
X200465487Y-135868500D01*
X200471939Y-135867128D01*
X200471944Y-135867128D01*
X200558888Y-135848647D01*
X200652288Y-135828794D01*
X200658319Y-135826109D01*
X200820722Y-135753803D01*
X200820724Y-135753802D01*
X200826752Y-135751118D01*
X200843715Y-135738794D01*
X200886842Y-135707460D01*
X200981253Y-135638866D01*
X201066711Y-135543955D01*
X201104621Y-135501852D01*
X201104622Y-135501851D01*
X201109040Y-135496944D01*
X201204527Y-135331556D01*
X201263542Y-135149928D01*
X201268041Y-135107128D01*
X201282814Y-134966565D01*
X201283504Y-134960000D01*
X201966496Y-134960000D01*
X201967186Y-134966565D01*
X201981960Y-135107128D01*
X201986458Y-135149928D01*
X202045473Y-135331556D01*
X202140960Y-135496944D01*
X202145378Y-135501851D01*
X202145379Y-135501852D01*
X202183289Y-135543955D01*
X202268747Y-135638866D01*
X202363158Y-135707460D01*
X202406286Y-135738794D01*
X202423248Y-135751118D01*
X202429276Y-135753802D01*
X202429278Y-135753803D01*
X202591681Y-135826109D01*
X202597712Y-135828794D01*
X202691112Y-135848647D01*
X202778056Y-135867128D01*
X202778061Y-135867128D01*
X202784513Y-135868500D01*
X202975487Y-135868500D01*
X202981939Y-135867128D01*
X202981944Y-135867128D01*
X203068888Y-135848647D01*
X203162288Y-135828794D01*
X203168319Y-135826109D01*
X203330722Y-135753803D01*
X203330724Y-135753802D01*
X203336752Y-135751118D01*
X203353715Y-135738794D01*
X203396842Y-135707460D01*
X203491253Y-135638866D01*
X203576711Y-135543955D01*
X203614621Y-135501852D01*
X203614622Y-135501851D01*
X203619040Y-135496944D01*
X203714527Y-135331556D01*
X203773542Y-135149928D01*
X203778041Y-135107128D01*
X203792814Y-134966565D01*
X203793504Y-134960000D01*
X203784680Y-134876045D01*
X203774232Y-134776635D01*
X203774232Y-134776633D01*
X203773542Y-134770072D01*
X203714527Y-134588444D01*
X203619040Y-134423056D01*
X203589212Y-134389928D01*
X203495675Y-134286045D01*
X203495674Y-134286044D01*
X203491253Y-134281134D01*
X203336752Y-134168882D01*
X203330724Y-134166198D01*
X203330722Y-134166197D01*
X203168319Y-134093891D01*
X203168318Y-134093891D01*
X203162288Y-134091206D01*
X203068887Y-134071353D01*
X202981944Y-134052872D01*
X202981939Y-134052872D01*
X202975487Y-134051500D01*
X202784513Y-134051500D01*
X202778061Y-134052872D01*
X202778056Y-134052872D01*
X202691113Y-134071353D01*
X202597712Y-134091206D01*
X202591682Y-134093891D01*
X202591681Y-134093891D01*
X202429278Y-134166197D01*
X202429276Y-134166198D01*
X202423248Y-134168882D01*
X202268747Y-134281134D01*
X202264326Y-134286044D01*
X202264325Y-134286045D01*
X202170789Y-134389928D01*
X202140960Y-134423056D01*
X202045473Y-134588444D01*
X201986458Y-134770072D01*
X201985768Y-134776633D01*
X201985768Y-134776635D01*
X201975320Y-134876045D01*
X201966496Y-134960000D01*
X201283504Y-134960000D01*
X201274680Y-134876045D01*
X201264232Y-134776635D01*
X201264232Y-134776633D01*
X201263542Y-134770072D01*
X201204527Y-134588444D01*
X201109040Y-134423056D01*
X201079212Y-134389928D01*
X200985675Y-134286045D01*
X200985674Y-134286044D01*
X200981253Y-134281134D01*
X200826752Y-134168882D01*
X200820724Y-134166198D01*
X200820722Y-134166197D01*
X200658319Y-134093891D01*
X200658318Y-134093891D01*
X200652288Y-134091206D01*
X200558887Y-134071353D01*
X200471944Y-134052872D01*
X200471939Y-134052872D01*
X200465487Y-134051500D01*
X200274513Y-134051500D01*
X200268061Y-134052872D01*
X200268056Y-134052872D01*
X200181113Y-134071353D01*
X200087712Y-134091206D01*
X200081682Y-134093891D01*
X200081681Y-134093891D01*
X199919278Y-134166197D01*
X199919276Y-134166198D01*
X199913248Y-134168882D01*
X199758747Y-134281134D01*
X199754326Y-134286044D01*
X199754325Y-134286045D01*
X199660789Y-134389928D01*
X199630960Y-134423056D01*
X199535473Y-134588444D01*
X199476458Y-134770072D01*
X199475768Y-134776633D01*
X199475768Y-134776635D01*
X199465320Y-134876045D01*
X199456496Y-134960000D01*
X195899582Y-134960000D01*
X196011253Y-134878866D01*
X196025147Y-134863435D01*
X196134621Y-134741852D01*
X196134622Y-134741851D01*
X196139040Y-134736944D01*
X196234527Y-134571556D01*
X196293542Y-134389928D01*
X196298919Y-134338774D01*
X196312814Y-134206565D01*
X196313504Y-134200000D01*
X196302352Y-134093891D01*
X196294232Y-134016635D01*
X196294232Y-134016633D01*
X196293542Y-134010072D01*
X196234527Y-133828444D01*
X196139040Y-133663056D01*
X196011253Y-133521134D01*
X195856752Y-133408882D01*
X195850724Y-133406198D01*
X195850722Y-133406197D01*
X195688319Y-133333891D01*
X195688318Y-133333891D01*
X195682288Y-133331206D01*
X195588888Y-133311353D01*
X195501944Y-133292872D01*
X195501939Y-133292872D01*
X195495487Y-133291500D01*
X195304513Y-133291500D01*
X195298061Y-133292872D01*
X195298056Y-133292872D01*
X195211112Y-133311353D01*
X195117712Y-133331206D01*
X195111682Y-133333891D01*
X195111681Y-133333891D01*
X194949278Y-133406197D01*
X194949276Y-133406198D01*
X194943248Y-133408882D01*
X194788747Y-133521134D01*
X194660960Y-133663056D01*
X194565473Y-133828444D01*
X194506458Y-134010072D01*
X194505768Y-134016633D01*
X194505768Y-134016635D01*
X194489171Y-134174549D01*
X194462158Y-134240206D01*
X194403936Y-134280836D01*
X194332991Y-134283539D01*
X194270225Y-134245689D01*
X194267252Y-134242387D01*
X194267251Y-134242386D01*
X194262830Y-134237476D01*
X194108329Y-134125224D01*
X194102301Y-134122540D01*
X194102299Y-134122539D01*
X193939896Y-134050233D01*
X193939895Y-134050233D01*
X193933865Y-134047548D01*
X193840464Y-134027695D01*
X193753521Y-134009214D01*
X193753516Y-134009214D01*
X193747064Y-134007842D01*
X193556090Y-134007842D01*
X193549638Y-134009214D01*
X193549633Y-134009214D01*
X193462690Y-134027695D01*
X193369289Y-134047548D01*
X193363259Y-134050233D01*
X193363258Y-134050233D01*
X193200855Y-134122539D01*
X193200853Y-134122540D01*
X193194825Y-134125224D01*
X193040324Y-134237476D01*
X193035903Y-134242386D01*
X193035902Y-134242387D01*
X192958683Y-134328148D01*
X192912537Y-134379398D01*
X192817050Y-134544786D01*
X192808150Y-134572178D01*
X192768075Y-134630783D01*
X192702678Y-134658419D01*
X192632721Y-134646311D01*
X192580416Y-134598304D01*
X192568484Y-134572176D01*
X192566241Y-134565271D01*
X192544527Y-134498444D01*
X192449040Y-134333056D01*
X192370375Y-134245689D01*
X192325675Y-134196045D01*
X192325674Y-134196044D01*
X192321253Y-134191134D01*
X192187410Y-134093891D01*
X192172094Y-134082763D01*
X192172093Y-134082762D01*
X192166752Y-134078882D01*
X192160724Y-134076198D01*
X192160722Y-134076197D01*
X191998319Y-134003891D01*
X191998318Y-134003891D01*
X191992288Y-134001206D01*
X191898887Y-133981353D01*
X191811944Y-133962872D01*
X191811939Y-133962872D01*
X191805487Y-133961500D01*
X191614513Y-133961500D01*
X191608061Y-133962872D01*
X191608056Y-133962872D01*
X191521113Y-133981353D01*
X191427712Y-134001206D01*
X191421682Y-134003891D01*
X191421681Y-134003891D01*
X191259278Y-134076197D01*
X191259276Y-134076198D01*
X191253248Y-134078882D01*
X191247907Y-134082762D01*
X191247906Y-134082763D01*
X191232590Y-134093891D01*
X191098747Y-134191134D01*
X191094326Y-134196044D01*
X191094325Y-134196045D01*
X191049626Y-134245689D01*
X190970960Y-134333056D01*
X190875473Y-134498444D01*
X190816458Y-134680072D01*
X190815768Y-134686633D01*
X190815768Y-134686635D01*
X190800121Y-134835506D01*
X190796496Y-134870000D01*
X178869692Y-134870000D01*
X178716752Y-134758882D01*
X178710724Y-134756198D01*
X178710722Y-134756197D01*
X178548319Y-134683891D01*
X178548318Y-134683891D01*
X178542288Y-134681206D01*
X178448888Y-134661353D01*
X178361944Y-134642872D01*
X178361939Y-134642872D01*
X178355487Y-134641500D01*
X178164513Y-134641500D01*
X178158061Y-134642872D01*
X178158056Y-134642872D01*
X178071112Y-134661353D01*
X177977712Y-134681206D01*
X177971682Y-134683891D01*
X177971681Y-134683891D01*
X177809278Y-134756197D01*
X177809276Y-134756198D01*
X177803248Y-134758882D01*
X177648747Y-134871134D01*
X177644326Y-134876044D01*
X177644325Y-134876045D01*
X177544208Y-134987237D01*
X177520960Y-135013056D01*
X177425473Y-135178444D01*
X177366458Y-135360072D01*
X177365768Y-135366633D01*
X177365768Y-135366635D01*
X177361016Y-135411852D01*
X177346496Y-135550000D01*
X167800000Y-135550000D01*
X167800000Y-133100000D01*
X200756496Y-133100000D01*
X200776458Y-133289928D01*
X200835473Y-133471556D01*
X200930960Y-133636944D01*
X201058747Y-133778866D01*
X201213248Y-133891118D01*
X201219276Y-133893802D01*
X201219278Y-133893803D01*
X201371329Y-133961500D01*
X201387712Y-133968794D01*
X201481112Y-133988647D01*
X201568056Y-134007128D01*
X201568061Y-134007128D01*
X201574513Y-134008500D01*
X201765487Y-134008500D01*
X201771939Y-134007128D01*
X201771944Y-134007128D01*
X201858888Y-133988647D01*
X201952288Y-133968794D01*
X201968671Y-133961500D01*
X202120722Y-133893803D01*
X202120724Y-133893802D01*
X202126752Y-133891118D01*
X202281253Y-133778866D01*
X202409040Y-133636944D01*
X202504527Y-133471556D01*
X202563542Y-133289928D01*
X202583504Y-133100000D01*
X202563542Y-132910072D01*
X202504527Y-132728444D01*
X202409040Y-132563056D01*
X202281253Y-132421134D01*
X202176837Y-132345271D01*
X202132094Y-132312763D01*
X202132093Y-132312762D01*
X202126752Y-132308882D01*
X202120724Y-132306198D01*
X202120722Y-132306197D01*
X201958319Y-132233891D01*
X201958318Y-132233891D01*
X201952288Y-132231206D01*
X201858887Y-132211353D01*
X201771944Y-132192872D01*
X201771939Y-132192872D01*
X201765487Y-132191500D01*
X201574513Y-132191500D01*
X201568061Y-132192872D01*
X201568056Y-132192872D01*
X201481113Y-132211353D01*
X201387712Y-132231206D01*
X201381682Y-132233891D01*
X201381681Y-132233891D01*
X201219278Y-132306197D01*
X201219276Y-132306198D01*
X201213248Y-132308882D01*
X201207907Y-132312762D01*
X201207906Y-132312763D01*
X201163163Y-132345271D01*
X201058747Y-132421134D01*
X200930960Y-132563056D01*
X200835473Y-132728444D01*
X200776458Y-132910072D01*
X200756496Y-133100000D01*
X167800000Y-133100000D01*
X167800000Y-132934587D01*
X167820002Y-132866466D01*
X167873658Y-132819973D01*
X167943932Y-132809869D01*
X167975738Y-132818820D01*
X168036332Y-132844854D01*
X168036336Y-132844855D01*
X168041642Y-132847135D01*
X168047274Y-132848409D01*
X168047276Y-132848410D01*
X168237220Y-132891390D01*
X168237225Y-132891391D01*
X168242857Y-132892665D01*
X168248628Y-132892892D01*
X168248630Y-132892892D01*
X168312513Y-132895402D01*
X168448999Y-132900764D01*
X168558300Y-132884916D01*
X168647451Y-132871990D01*
X168647456Y-132871989D01*
X168653165Y-132871161D01*
X168658629Y-132869306D01*
X168658634Y-132869305D01*
X168807358Y-132818820D01*
X168848518Y-132804848D01*
X169028515Y-132704045D01*
X169187128Y-132572128D01*
X169319045Y-132413515D01*
X169419848Y-132233518D01*
X169447756Y-132151303D01*
X169482144Y-132050000D01*
X177226496Y-132050000D01*
X177227186Y-132056565D01*
X177245210Y-132228050D01*
X177246458Y-132239928D01*
X177305473Y-132421556D01*
X177400960Y-132586944D01*
X177405378Y-132591851D01*
X177405379Y-132591852D01*
X177488627Y-132684308D01*
X177528747Y-132728866D01*
X177536817Y-132734729D01*
X177654145Y-132819973D01*
X177683248Y-132841118D01*
X177689276Y-132843802D01*
X177689278Y-132843803D01*
X177824021Y-132903794D01*
X177857712Y-132918794D01*
X177932012Y-132934587D01*
X178038056Y-132957128D01*
X178038061Y-132957128D01*
X178044513Y-132958500D01*
X178235487Y-132958500D01*
X178241939Y-132957128D01*
X178241944Y-132957128D01*
X178347988Y-132934587D01*
X178422288Y-132918794D01*
X178455979Y-132903794D01*
X178590722Y-132843803D01*
X178590724Y-132843802D01*
X178596752Y-132841118D01*
X178625856Y-132819973D01*
X178743183Y-132734729D01*
X178751253Y-132728866D01*
X178791373Y-132684308D01*
X178874621Y-132591852D01*
X178874622Y-132591851D01*
X178879040Y-132586944D01*
X178974527Y-132421556D01*
X179033542Y-132239928D01*
X179034791Y-132228050D01*
X179052814Y-132056565D01*
X179053504Y-132050000D01*
X179048998Y-132007128D01*
X179034949Y-131873459D01*
X190779955Y-131873459D01*
X190780645Y-131880024D01*
X190796666Y-132032451D01*
X190799917Y-132063387D01*
X190858932Y-132245015D01*
X190954419Y-132410403D01*
X191082206Y-132552325D01*
X191112473Y-132574315D01*
X191228847Y-132658866D01*
X191236707Y-132664577D01*
X191242735Y-132667261D01*
X191242737Y-132667262D01*
X191405140Y-132739568D01*
X191411171Y-132742253D01*
X191504572Y-132762106D01*
X191591515Y-132780587D01*
X191591520Y-132780587D01*
X191597972Y-132781959D01*
X191788946Y-132781959D01*
X191795398Y-132780587D01*
X191795403Y-132780587D01*
X191882346Y-132762106D01*
X191975747Y-132742253D01*
X191981778Y-132739568D01*
X192144181Y-132667262D01*
X192144183Y-132667261D01*
X192150211Y-132664577D01*
X192158072Y-132658866D01*
X192274445Y-132574315D01*
X192304712Y-132552325D01*
X192432499Y-132410403D01*
X192527986Y-132245015D01*
X192587001Y-132063387D01*
X192590253Y-132032451D01*
X192595766Y-131980000D01*
X193796496Y-131980000D01*
X193797186Y-131986565D01*
X193808457Y-132093798D01*
X193816458Y-132169928D01*
X193875473Y-132351556D01*
X193970960Y-132516944D01*
X193975378Y-132521851D01*
X193975379Y-132521852D01*
X194073424Y-132630742D01*
X194098747Y-132658866D01*
X194253248Y-132771118D01*
X194259276Y-132773802D01*
X194259278Y-132773803D01*
X194421681Y-132846109D01*
X194427712Y-132848794D01*
X194510852Y-132866466D01*
X194608056Y-132887128D01*
X194608061Y-132887128D01*
X194614513Y-132888500D01*
X194805487Y-132888500D01*
X194811939Y-132887128D01*
X194811944Y-132887128D01*
X194909148Y-132866466D01*
X194992288Y-132848794D01*
X194998319Y-132846109D01*
X195160722Y-132773803D01*
X195160724Y-132773802D01*
X195166752Y-132771118D01*
X195225488Y-132728444D01*
X195310495Y-132666682D01*
X195377362Y-132642824D01*
X195446514Y-132658904D01*
X195478192Y-132684308D01*
X195552862Y-132767237D01*
X195557748Y-132772664D01*
X195712249Y-132884916D01*
X195718277Y-132887600D01*
X195718279Y-132887601D01*
X195877522Y-132958500D01*
X195886713Y-132962592D01*
X195980113Y-132982445D01*
X196067057Y-133000926D01*
X196067062Y-133000926D01*
X196073514Y-133002298D01*
X196264488Y-133002298D01*
X196270940Y-133000926D01*
X196270945Y-133000926D01*
X196357889Y-132982445D01*
X196451289Y-132962592D01*
X196460480Y-132958500D01*
X196619723Y-132887601D01*
X196619725Y-132887600D01*
X196625753Y-132884916D01*
X196780254Y-132772664D01*
X196784676Y-132767753D01*
X196903622Y-132635650D01*
X196903623Y-132635649D01*
X196908041Y-132630742D01*
X197003528Y-132465354D01*
X197062543Y-132283726D01*
X197066487Y-132246206D01*
X197073844Y-132176206D01*
X197079611Y-132121329D01*
X197106624Y-132055673D01*
X197164845Y-132015043D01*
X197204921Y-132008500D01*
X197295487Y-132008500D01*
X197301939Y-132007128D01*
X197301944Y-132007128D01*
X197398682Y-131986565D01*
X197482288Y-131968794D01*
X197521468Y-131951350D01*
X197650722Y-131893803D01*
X197650724Y-131893802D01*
X197656752Y-131891118D01*
X197681058Y-131873459D01*
X197804470Y-131783794D01*
X197811253Y-131778866D01*
X197939040Y-131636944D01*
X198010567Y-131513056D01*
X198031223Y-131477279D01*
X198031224Y-131477278D01*
X198034527Y-131471556D01*
X198093542Y-131289928D01*
X198104445Y-131186197D01*
X198112814Y-131106565D01*
X198113504Y-131100000D01*
X198098511Y-130957346D01*
X198094232Y-130916635D01*
X198094232Y-130916633D01*
X198093542Y-130910072D01*
X198034527Y-130728444D01*
X197939040Y-130563056D01*
X197897243Y-130516635D01*
X197815675Y-130426045D01*
X197815674Y-130426044D01*
X197811253Y-130421134D01*
X197675800Y-130322721D01*
X197662094Y-130312763D01*
X197662093Y-130312762D01*
X197656752Y-130308882D01*
X197650724Y-130306198D01*
X197650722Y-130306197D01*
X197488319Y-130233891D01*
X197488318Y-130233891D01*
X197482288Y-130231206D01*
X197367769Y-130206864D01*
X197301944Y-130192872D01*
X197301939Y-130192872D01*
X197295487Y-130191500D01*
X197104513Y-130191500D01*
X197098061Y-130192872D01*
X197098056Y-130192872D01*
X197032231Y-130206864D01*
X196917712Y-130231206D01*
X196911682Y-130233891D01*
X196911681Y-130233891D01*
X196749278Y-130306197D01*
X196749276Y-130306198D01*
X196743248Y-130308882D01*
X196737907Y-130312762D01*
X196737906Y-130312763D01*
X196724200Y-130322721D01*
X196588747Y-130421134D01*
X196584326Y-130426044D01*
X196584325Y-130426045D01*
X196502758Y-130516635D01*
X196460960Y-130563056D01*
X196365473Y-130728444D01*
X196306458Y-130910072D01*
X196305768Y-130916633D01*
X196305768Y-130916635D01*
X196301489Y-130957346D01*
X196289492Y-131071500D01*
X196289390Y-131072468D01*
X196262377Y-131138125D01*
X196204156Y-131178755D01*
X196164080Y-131185298D01*
X196073514Y-131185298D01*
X196067062Y-131186670D01*
X196067057Y-131186670D01*
X195980114Y-131205151D01*
X195886713Y-131225004D01*
X195880683Y-131227689D01*
X195880682Y-131227689D01*
X195718279Y-131299995D01*
X195718277Y-131299996D01*
X195712249Y-131302680D01*
X195706908Y-131306560D01*
X195706907Y-131306561D01*
X195568506Y-131407116D01*
X195501639Y-131430974D01*
X195432487Y-131414894D01*
X195400809Y-131389490D01*
X195325675Y-131306045D01*
X195325674Y-131306044D01*
X195321253Y-131301134D01*
X195174665Y-131194631D01*
X195172094Y-131192763D01*
X195172093Y-131192762D01*
X195166752Y-131188882D01*
X195160724Y-131186198D01*
X195160722Y-131186197D01*
X194998319Y-131113891D01*
X194998318Y-131113891D01*
X194992288Y-131111206D01*
X194898888Y-131091353D01*
X194811944Y-131072872D01*
X194811939Y-131072872D01*
X194805487Y-131071500D01*
X194614513Y-131071500D01*
X194608061Y-131072872D01*
X194608056Y-131072872D01*
X194521112Y-131091353D01*
X194427712Y-131111206D01*
X194421682Y-131113891D01*
X194421681Y-131113891D01*
X194259278Y-131186197D01*
X194259276Y-131186198D01*
X194253248Y-131188882D01*
X194247907Y-131192762D01*
X194247906Y-131192763D01*
X194245335Y-131194631D01*
X194098747Y-131301134D01*
X194094326Y-131306044D01*
X194094325Y-131306045D01*
X193981839Y-131430974D01*
X193970960Y-131443056D01*
X193875473Y-131608444D01*
X193816458Y-131790072D01*
X193815768Y-131796633D01*
X193815768Y-131796635D01*
X193799507Y-131951350D01*
X193796496Y-131980000D01*
X192595766Y-131980000D01*
X192606273Y-131880024D01*
X192606963Y-131873459D01*
X192587001Y-131683531D01*
X192527986Y-131501903D01*
X192523310Y-131493803D01*
X192477751Y-131414894D01*
X192432499Y-131336515D01*
X192335503Y-131228790D01*
X192304785Y-131164783D01*
X192313550Y-131094329D01*
X192335502Y-131060170D01*
X192432499Y-130952444D01*
X192527986Y-130787056D01*
X192587001Y-130605428D01*
X192590854Y-130568774D01*
X192606273Y-130422065D01*
X192606963Y-130415500D01*
X192595037Y-130302028D01*
X192587691Y-130232135D01*
X192587691Y-130232133D01*
X192587001Y-130225572D01*
X192527986Y-130043944D01*
X192432499Y-129878556D01*
X192392283Y-129833891D01*
X192309134Y-129741545D01*
X192309133Y-129741544D01*
X192304712Y-129736634D01*
X192205616Y-129664636D01*
X192155553Y-129628263D01*
X192155552Y-129628262D01*
X192150211Y-129624382D01*
X192144183Y-129621698D01*
X192144181Y-129621697D01*
X191981778Y-129549391D01*
X191981777Y-129549391D01*
X191975747Y-129546706D01*
X191882346Y-129526853D01*
X191795403Y-129508372D01*
X191795398Y-129508372D01*
X191788946Y-129507000D01*
X191597972Y-129507000D01*
X191591520Y-129508372D01*
X191591515Y-129508372D01*
X191504572Y-129526853D01*
X191411171Y-129546706D01*
X191405141Y-129549391D01*
X191405140Y-129549391D01*
X191242737Y-129621697D01*
X191242735Y-129621698D01*
X191236707Y-129624382D01*
X191231366Y-129628262D01*
X191231365Y-129628263D01*
X191181302Y-129664636D01*
X191082206Y-129736634D01*
X191077785Y-129741544D01*
X191077784Y-129741545D01*
X190994636Y-129833891D01*
X190954419Y-129878556D01*
X190858932Y-130043944D01*
X190799917Y-130225572D01*
X190799227Y-130232133D01*
X190799227Y-130232135D01*
X190791881Y-130302028D01*
X190779955Y-130415500D01*
X190780645Y-130422065D01*
X190796065Y-130568774D01*
X190799917Y-130605428D01*
X190858932Y-130787056D01*
X190954419Y-130952444D01*
X191051416Y-131060170D01*
X191082133Y-131124178D01*
X191073368Y-131194631D01*
X191051415Y-131228790D01*
X190954419Y-131336515D01*
X190909167Y-131414894D01*
X190863609Y-131493803D01*
X190858932Y-131501903D01*
X190799917Y-131683531D01*
X190779955Y-131873459D01*
X179034949Y-131873459D01*
X179034232Y-131866635D01*
X179034232Y-131866633D01*
X179033542Y-131860072D01*
X178974527Y-131678444D01*
X178879040Y-131513056D01*
X178855793Y-131487237D01*
X178755675Y-131376045D01*
X178755674Y-131376044D01*
X178751253Y-131371134D01*
X178596752Y-131258882D01*
X178590724Y-131256198D01*
X178590722Y-131256197D01*
X178428319Y-131183891D01*
X178428318Y-131183891D01*
X178422288Y-131181206D01*
X178327340Y-131161024D01*
X178241944Y-131142872D01*
X178241939Y-131142872D01*
X178235487Y-131141500D01*
X178044513Y-131141500D01*
X178038061Y-131142872D01*
X178038056Y-131142872D01*
X177952660Y-131161024D01*
X177857712Y-131181206D01*
X177851682Y-131183891D01*
X177851681Y-131183891D01*
X177689278Y-131256197D01*
X177689276Y-131256198D01*
X177683248Y-131258882D01*
X177528747Y-131371134D01*
X177524326Y-131376044D01*
X177524325Y-131376045D01*
X177424208Y-131487237D01*
X177400960Y-131513056D01*
X177305473Y-131678444D01*
X177246458Y-131860072D01*
X177245768Y-131866633D01*
X177245768Y-131866635D01*
X177231002Y-132007128D01*
X177226496Y-132050000D01*
X169482144Y-132050000D01*
X169484305Y-132043634D01*
X169484306Y-132043629D01*
X169486161Y-132038165D01*
X169490463Y-132008500D01*
X169508045Y-131887237D01*
X169515764Y-131833999D01*
X169517309Y-131775000D01*
X169498432Y-131569564D01*
X169442434Y-131371009D01*
X169351189Y-131185983D01*
X169227754Y-131020683D01*
X169204311Y-130999012D01*
X169108095Y-130910072D01*
X169076262Y-130880646D01*
X168901788Y-130770560D01*
X168724926Y-130700000D01*
X173886496Y-130700000D01*
X173887186Y-130706565D01*
X173903627Y-130862988D01*
X173906458Y-130889928D01*
X173965473Y-131071556D01*
X174060960Y-131236944D01*
X174065378Y-131241851D01*
X174065379Y-131241852D01*
X174181785Y-131371134D01*
X174188747Y-131378866D01*
X174343248Y-131491118D01*
X174349276Y-131493802D01*
X174349278Y-131493803D01*
X174506944Y-131564000D01*
X174517712Y-131568794D01*
X174611113Y-131588647D01*
X174698056Y-131607128D01*
X174698061Y-131607128D01*
X174704513Y-131608500D01*
X174895487Y-131608500D01*
X174901939Y-131607128D01*
X174901944Y-131607128D01*
X174988887Y-131588647D01*
X175082288Y-131568794D01*
X175093056Y-131564000D01*
X175250722Y-131493803D01*
X175250724Y-131493802D01*
X175256752Y-131491118D01*
X175411253Y-131378866D01*
X175418215Y-131371134D01*
X175534621Y-131241852D01*
X175534622Y-131241851D01*
X175539040Y-131236944D01*
X175634527Y-131071556D01*
X175693542Y-130889928D01*
X175696374Y-130862988D01*
X175712814Y-130706565D01*
X175713504Y-130700000D01*
X175703564Y-130605428D01*
X175694232Y-130516635D01*
X175694232Y-130516633D01*
X175693542Y-130510072D01*
X175634527Y-130328444D01*
X175621976Y-130306704D01*
X175578923Y-130232135D01*
X175539040Y-130163056D01*
X175528261Y-130151084D01*
X175415675Y-130026045D01*
X175415674Y-130026044D01*
X175411253Y-130021134D01*
X175256752Y-129908882D01*
X175250724Y-129906198D01*
X175250722Y-129906197D01*
X175088319Y-129833891D01*
X175088318Y-129833891D01*
X175082288Y-129831206D01*
X174988888Y-129811353D01*
X174901944Y-129792872D01*
X174901939Y-129792872D01*
X174895487Y-129791500D01*
X174704513Y-129791500D01*
X174698061Y-129792872D01*
X174698056Y-129792872D01*
X174611112Y-129811353D01*
X174517712Y-129831206D01*
X174511682Y-129833891D01*
X174511681Y-129833891D01*
X174349278Y-129906197D01*
X174349276Y-129906198D01*
X174343248Y-129908882D01*
X174188747Y-130021134D01*
X174184326Y-130026044D01*
X174184325Y-130026045D01*
X174071740Y-130151084D01*
X174060960Y-130163056D01*
X174021077Y-130232135D01*
X173978025Y-130306704D01*
X173965473Y-130328444D01*
X173906458Y-130510072D01*
X173905768Y-130516633D01*
X173905768Y-130516635D01*
X173896436Y-130605428D01*
X173886496Y-130700000D01*
X168724926Y-130700000D01*
X168710173Y-130694114D01*
X168704513Y-130692988D01*
X168704509Y-130692987D01*
X168513504Y-130654994D01*
X168513499Y-130654994D01*
X168507836Y-130653867D01*
X168502061Y-130653791D01*
X168502057Y-130653791D01*
X168398575Y-130652436D01*
X168301552Y-130651166D01*
X168295855Y-130652145D01*
X168295854Y-130652145D01*
X168286275Y-130653791D01*
X168098231Y-130686103D01*
X168092805Y-130688105D01*
X168092804Y-130688105D01*
X167969610Y-130733553D01*
X167898777Y-130738365D01*
X167836587Y-130704118D01*
X167802785Y-130641684D01*
X167800000Y-130615341D01*
X167800000Y-130434587D01*
X167820002Y-130366466D01*
X167873658Y-130319973D01*
X167943932Y-130309869D01*
X167975738Y-130318820D01*
X168036332Y-130344854D01*
X168036336Y-130344855D01*
X168041642Y-130347135D01*
X168047274Y-130348409D01*
X168047276Y-130348410D01*
X168237220Y-130391390D01*
X168237225Y-130391391D01*
X168242857Y-130392665D01*
X168248628Y-130392892D01*
X168248630Y-130392892D01*
X168312513Y-130395402D01*
X168448999Y-130400764D01*
X168551082Y-130385962D01*
X168647451Y-130371990D01*
X168647456Y-130371989D01*
X168653165Y-130371161D01*
X168658629Y-130369306D01*
X168658634Y-130369305D01*
X168825201Y-130312763D01*
X168848518Y-130304848D01*
X169028515Y-130204045D01*
X169187128Y-130072128D01*
X169319045Y-129913515D01*
X169419848Y-129733518D01*
X169455577Y-129628263D01*
X169484305Y-129543634D01*
X169484306Y-129543629D01*
X169486161Y-129538165D01*
X169515764Y-129333999D01*
X169517309Y-129275000D01*
X169498432Y-129069564D01*
X169492492Y-129048500D01*
X169480536Y-129006109D01*
X169442434Y-128871009D01*
X169351189Y-128685983D01*
X169227754Y-128520683D01*
X169217881Y-128511556D01*
X169080497Y-128384561D01*
X169076262Y-128380646D01*
X169070687Y-128377128D01*
X168948200Y-128299844D01*
X168901788Y-128270560D01*
X168710173Y-128194114D01*
X168704513Y-128192988D01*
X168704509Y-128192987D01*
X168513504Y-128154994D01*
X168513499Y-128154994D01*
X168507836Y-128153867D01*
X168502061Y-128153791D01*
X168502057Y-128153791D01*
X168398575Y-128152436D01*
X168301552Y-128151166D01*
X168295855Y-128152145D01*
X168295854Y-128152145D01*
X168292339Y-128152749D01*
X168098231Y-128186103D01*
X168092805Y-128188105D01*
X168092804Y-128188105D01*
X167969610Y-128233553D01*
X167898777Y-128238365D01*
X167836587Y-128204118D01*
X167802785Y-128141684D01*
X167800000Y-128115341D01*
X167800000Y-127470000D01*
X174216496Y-127470000D01*
X174217186Y-127476565D01*
X174231082Y-127608774D01*
X174236458Y-127659928D01*
X174295473Y-127841556D01*
X174390960Y-128006944D01*
X174518747Y-128148866D01*
X174673248Y-128261118D01*
X174679276Y-128263802D01*
X174679278Y-128263803D01*
X174841681Y-128336109D01*
X174847712Y-128338794D01*
X174941112Y-128358647D01*
X175028056Y-128377128D01*
X175028061Y-128377128D01*
X175034513Y-128378500D01*
X175225487Y-128378500D01*
X175231939Y-128377128D01*
X175231944Y-128377128D01*
X175318888Y-128358647D01*
X175412288Y-128338794D01*
X175418319Y-128336109D01*
X175580722Y-128263803D01*
X175580724Y-128263802D01*
X175586752Y-128261118D01*
X175662465Y-128206109D01*
X175740100Y-128149704D01*
X175806968Y-128125845D01*
X175865410Y-128136533D01*
X176021675Y-128206106D01*
X176027712Y-128208794D01*
X176121112Y-128228647D01*
X176208056Y-128247128D01*
X176208061Y-128247128D01*
X176214513Y-128248500D01*
X176405487Y-128248500D01*
X176411939Y-128247128D01*
X176411944Y-128247128D01*
X176498888Y-128228647D01*
X176592288Y-128208794D01*
X176598321Y-128206108D01*
X176598327Y-128206106D01*
X176616739Y-128197909D01*
X176687106Y-128188475D01*
X176751403Y-128218583D01*
X176789215Y-128278672D01*
X176793296Y-128299844D01*
X176796458Y-128329928D01*
X176855473Y-128511556D01*
X176950960Y-128676944D01*
X177078747Y-128818866D01*
X177233248Y-128931118D01*
X177239276Y-128933802D01*
X177239278Y-128933803D01*
X177401681Y-129006109D01*
X177407712Y-129008794D01*
X177501113Y-129028647D01*
X177588056Y-129047128D01*
X177588061Y-129047128D01*
X177594513Y-129048500D01*
X177785487Y-129048500D01*
X177791939Y-129047128D01*
X177791944Y-129047128D01*
X177878887Y-129028647D01*
X177972288Y-129008794D01*
X177978319Y-129006109D01*
X178140722Y-128933803D01*
X178140724Y-128933802D01*
X178146752Y-128931118D01*
X178301253Y-128818866D01*
X178429040Y-128676944D01*
X178524527Y-128511556D01*
X178583542Y-128329928D01*
X178597817Y-128194114D01*
X178602814Y-128146565D01*
X178603504Y-128140000D01*
X178590035Y-128011852D01*
X178584232Y-127956635D01*
X178584232Y-127956633D01*
X178583542Y-127950072D01*
X178524527Y-127768444D01*
X178429040Y-127603056D01*
X178402838Y-127573955D01*
X178305675Y-127466045D01*
X178305674Y-127466044D01*
X178301253Y-127461134D01*
X178146752Y-127348882D01*
X178140724Y-127346198D01*
X178140722Y-127346197D01*
X177978319Y-127273891D01*
X177978318Y-127273891D01*
X177972288Y-127271206D01*
X177878887Y-127251353D01*
X177791944Y-127232872D01*
X177791939Y-127232872D01*
X177785487Y-127231500D01*
X177594513Y-127231500D01*
X177588061Y-127232872D01*
X177588056Y-127232872D01*
X177501113Y-127251353D01*
X177407712Y-127271206D01*
X177401679Y-127273892D01*
X177401673Y-127273894D01*
X177383261Y-127282091D01*
X177312894Y-127291525D01*
X177248597Y-127261417D01*
X177210785Y-127201328D01*
X177206704Y-127180156D01*
X177204232Y-127156634D01*
X177204231Y-127156631D01*
X177203542Y-127150072D01*
X177144527Y-126968444D01*
X177126341Y-126936944D01*
X177105011Y-126900000D01*
X182486496Y-126900000D01*
X182506458Y-127089928D01*
X182565473Y-127271556D01*
X182660960Y-127436944D01*
X182665378Y-127441851D01*
X182665379Y-127441852D01*
X182690724Y-127470000D01*
X182788747Y-127578866D01*
X182943248Y-127691118D01*
X182949276Y-127693802D01*
X182949278Y-127693803D01*
X183111681Y-127766109D01*
X183117712Y-127768794D01*
X183211113Y-127788647D01*
X183298056Y-127807128D01*
X183298061Y-127807128D01*
X183304513Y-127808500D01*
X183495487Y-127808500D01*
X183501939Y-127807128D01*
X183501944Y-127807128D01*
X183588887Y-127788647D01*
X183682288Y-127768794D01*
X183688319Y-127766109D01*
X183850722Y-127693803D01*
X183850724Y-127693802D01*
X183856752Y-127691118D01*
X184011253Y-127578866D01*
X184109276Y-127470000D01*
X184134621Y-127441852D01*
X184134622Y-127441851D01*
X184139040Y-127436944D01*
X184234527Y-127271556D01*
X184293542Y-127089928D01*
X184313504Y-126900000D01*
X184293542Y-126710072D01*
X184234527Y-126528444D01*
X184139040Y-126363056D01*
X184011253Y-126221134D01*
X183856752Y-126108882D01*
X183850724Y-126106198D01*
X183850722Y-126106197D01*
X183688319Y-126033891D01*
X183688318Y-126033891D01*
X183682288Y-126031206D01*
X183588888Y-126011353D01*
X183501944Y-125992872D01*
X183501939Y-125992872D01*
X183495487Y-125991500D01*
X183304513Y-125991500D01*
X183298061Y-125992872D01*
X183298056Y-125992872D01*
X183211112Y-126011353D01*
X183117712Y-126031206D01*
X183111682Y-126033891D01*
X183111681Y-126033891D01*
X182949278Y-126106197D01*
X182949276Y-126106198D01*
X182943248Y-126108882D01*
X182788747Y-126221134D01*
X182660960Y-126363056D01*
X182565473Y-126528444D01*
X182506458Y-126710072D01*
X182486496Y-126900000D01*
X177105011Y-126900000D01*
X177052341Y-126808774D01*
X177049040Y-126803056D01*
X177043703Y-126797128D01*
X176925675Y-126666045D01*
X176925674Y-126666044D01*
X176921253Y-126661134D01*
X176766752Y-126548882D01*
X176760724Y-126546198D01*
X176760722Y-126546197D01*
X176598319Y-126473891D01*
X176598318Y-126473891D01*
X176592288Y-126471206D01*
X176498887Y-126451353D01*
X176411944Y-126432872D01*
X176411939Y-126432872D01*
X176405487Y-126431500D01*
X176214513Y-126431500D01*
X176208061Y-126432872D01*
X176208056Y-126432872D01*
X176121113Y-126451353D01*
X176027712Y-126471206D01*
X176021682Y-126473891D01*
X176021681Y-126473891D01*
X175859278Y-126546197D01*
X175859276Y-126546198D01*
X175853248Y-126548882D01*
X175847907Y-126552762D01*
X175847906Y-126552763D01*
X175699900Y-126660296D01*
X175633032Y-126684155D01*
X175574590Y-126673467D01*
X175418319Y-126603891D01*
X175418318Y-126603891D01*
X175412288Y-126601206D01*
X175318887Y-126581353D01*
X175231944Y-126562872D01*
X175231939Y-126562872D01*
X175225487Y-126561500D01*
X175034513Y-126561500D01*
X175028061Y-126562872D01*
X175028056Y-126562872D01*
X174941113Y-126581353D01*
X174847712Y-126601206D01*
X174841682Y-126603891D01*
X174841681Y-126603891D01*
X174679278Y-126676197D01*
X174679276Y-126676198D01*
X174673248Y-126678882D01*
X174518747Y-126791134D01*
X174514326Y-126796044D01*
X174514325Y-126796045D01*
X174414813Y-126906565D01*
X174390960Y-126933056D01*
X174295473Y-127098444D01*
X174236458Y-127280072D01*
X174216496Y-127470000D01*
X167800000Y-127470000D01*
X167800000Y-125890000D01*
X178096496Y-125890000D01*
X178097186Y-125896565D01*
X178107835Y-125997880D01*
X178116458Y-126079928D01*
X178175473Y-126261556D01*
X178270960Y-126426944D01*
X178275378Y-126431851D01*
X178275379Y-126431852D01*
X178313231Y-126473891D01*
X178398747Y-126568866D01*
X178553248Y-126681118D01*
X178559276Y-126683802D01*
X178559278Y-126683803D01*
X178721681Y-126756109D01*
X178727712Y-126758794D01*
X178814677Y-126777279D01*
X178908056Y-126797128D01*
X178908061Y-126797128D01*
X178914513Y-126798500D01*
X179105487Y-126798500D01*
X179111939Y-126797128D01*
X179111944Y-126797128D01*
X179205323Y-126777279D01*
X179292288Y-126758794D01*
X179298319Y-126756109D01*
X179460722Y-126683803D01*
X179460724Y-126683802D01*
X179466752Y-126681118D01*
X179621253Y-126568866D01*
X179706769Y-126473891D01*
X179744621Y-126431852D01*
X179744622Y-126431851D01*
X179749040Y-126426944D01*
X179844527Y-126261556D01*
X179903542Y-126079928D01*
X179912166Y-125997880D01*
X179922814Y-125896565D01*
X179923504Y-125890000D01*
X179903542Y-125700072D01*
X179844527Y-125518444D01*
X179749040Y-125353056D01*
X179621253Y-125211134D01*
X179466752Y-125098882D01*
X179460724Y-125096198D01*
X179460722Y-125096197D01*
X179298319Y-125023891D01*
X179298318Y-125023891D01*
X179292288Y-125021206D01*
X179198887Y-125001353D01*
X179111944Y-124982872D01*
X179111939Y-124982872D01*
X179105487Y-124981500D01*
X178914513Y-124981500D01*
X178908061Y-124982872D01*
X178908056Y-124982872D01*
X178821113Y-125001353D01*
X178727712Y-125021206D01*
X178721682Y-125023891D01*
X178721681Y-125023891D01*
X178559278Y-125096197D01*
X178559276Y-125096198D01*
X178553248Y-125098882D01*
X178398747Y-125211134D01*
X178270960Y-125353056D01*
X178175473Y-125518444D01*
X178116458Y-125700072D01*
X178096496Y-125890000D01*
X167800000Y-125890000D01*
X167800000Y-123450000D01*
X176396496Y-123450000D01*
X176416458Y-123639928D01*
X176475473Y-123821556D01*
X176570960Y-123986944D01*
X176698747Y-124128866D01*
X176853248Y-124241118D01*
X176859276Y-124243802D01*
X176859278Y-124243803D01*
X177021681Y-124316109D01*
X177027712Y-124318794D01*
X177121112Y-124338647D01*
X177208056Y-124357128D01*
X177208061Y-124357128D01*
X177214513Y-124358500D01*
X177405487Y-124358500D01*
X177411939Y-124357128D01*
X177411944Y-124357128D01*
X177498888Y-124338647D01*
X177592288Y-124318794D01*
X177598319Y-124316109D01*
X177760722Y-124243803D01*
X177760724Y-124243802D01*
X177766752Y-124241118D01*
X177921253Y-124128866D01*
X178049040Y-123986944D01*
X178144527Y-123821556D01*
X178203542Y-123639928D01*
X178223504Y-123450000D01*
X178203542Y-123260072D01*
X178144527Y-123078444D01*
X178049040Y-122913056D01*
X177921253Y-122771134D01*
X177766752Y-122658882D01*
X177760724Y-122656198D01*
X177760722Y-122656197D01*
X177598319Y-122583891D01*
X177598318Y-122583891D01*
X177592288Y-122581206D01*
X177498887Y-122561353D01*
X177411944Y-122542872D01*
X177411939Y-122542872D01*
X177405487Y-122541500D01*
X177214513Y-122541500D01*
X177208061Y-122542872D01*
X177208056Y-122542872D01*
X177121113Y-122561353D01*
X177027712Y-122581206D01*
X177021682Y-122583891D01*
X177021681Y-122583891D01*
X176859278Y-122656197D01*
X176859276Y-122656198D01*
X176853248Y-122658882D01*
X176698747Y-122771134D01*
X176570960Y-122913056D01*
X176475473Y-123078444D01*
X176416458Y-123260072D01*
X176396496Y-123450000D01*
X167800000Y-123450000D01*
X167800000Y-121300000D01*
X197286496Y-121300000D01*
X197306458Y-121489928D01*
X197365473Y-121671556D01*
X197460960Y-121836944D01*
X197588747Y-121978866D01*
X197743248Y-122091118D01*
X197749276Y-122093802D01*
X197749278Y-122093803D01*
X197911681Y-122166109D01*
X197917712Y-122168794D01*
X198011113Y-122188647D01*
X198098056Y-122207128D01*
X198098061Y-122207128D01*
X198104513Y-122208500D01*
X198295487Y-122208500D01*
X198301939Y-122207128D01*
X198301944Y-122207128D01*
X198388887Y-122188647D01*
X198482288Y-122168794D01*
X198488319Y-122166109D01*
X198650722Y-122093803D01*
X198650724Y-122093802D01*
X198656752Y-122091118D01*
X198811253Y-121978866D01*
X198939040Y-121836944D01*
X199034527Y-121671556D01*
X199093542Y-121489928D01*
X199113504Y-121300000D01*
X199093542Y-121110072D01*
X199034527Y-120928444D01*
X198939040Y-120763056D01*
X198811253Y-120621134D01*
X198656752Y-120508882D01*
X198650724Y-120506198D01*
X198650722Y-120506197D01*
X198488319Y-120433891D01*
X198488318Y-120433891D01*
X198482288Y-120431206D01*
X198388887Y-120411353D01*
X198301944Y-120392872D01*
X198301939Y-120392872D01*
X198295487Y-120391500D01*
X198104513Y-120391500D01*
X198098061Y-120392872D01*
X198098056Y-120392872D01*
X198011113Y-120411353D01*
X197917712Y-120431206D01*
X197911682Y-120433891D01*
X197911681Y-120433891D01*
X197749278Y-120506197D01*
X197749276Y-120506198D01*
X197743248Y-120508882D01*
X197588747Y-120621134D01*
X197460960Y-120763056D01*
X197365473Y-120928444D01*
X197306458Y-121110072D01*
X197286496Y-121300000D01*
X167800000Y-121300000D01*
X167800000Y-118500000D01*
X176196496Y-118500000D01*
X176216458Y-118689928D01*
X176275473Y-118871556D01*
X176370960Y-119036944D01*
X176498747Y-119178866D01*
X176653248Y-119291118D01*
X176659276Y-119293802D01*
X176659278Y-119293803D01*
X176821681Y-119366109D01*
X176827712Y-119368794D01*
X176921112Y-119388647D01*
X177008056Y-119407128D01*
X177008061Y-119407128D01*
X177014513Y-119408500D01*
X177205487Y-119408500D01*
X177211939Y-119407128D01*
X177211944Y-119407128D01*
X177298888Y-119388647D01*
X177392288Y-119368794D01*
X177398319Y-119366109D01*
X177560722Y-119293803D01*
X177560724Y-119293802D01*
X177566752Y-119291118D01*
X177721253Y-119178866D01*
X177849040Y-119036944D01*
X177944527Y-118871556D01*
X178003542Y-118689928D01*
X178023504Y-118500000D01*
X178003542Y-118310072D01*
X177944527Y-118128444D01*
X177849040Y-117963056D01*
X177721253Y-117821134D01*
X177566752Y-117708882D01*
X177560724Y-117706198D01*
X177560722Y-117706197D01*
X177398319Y-117633891D01*
X177398318Y-117633891D01*
X177392288Y-117631206D01*
X177298887Y-117611353D01*
X177211944Y-117592872D01*
X177211939Y-117592872D01*
X177205487Y-117591500D01*
X177014513Y-117591500D01*
X177008061Y-117592872D01*
X177008056Y-117592872D01*
X176921113Y-117611353D01*
X176827712Y-117631206D01*
X176821682Y-117633891D01*
X176821681Y-117633891D01*
X176659278Y-117706197D01*
X176659276Y-117706198D01*
X176653248Y-117708882D01*
X176498747Y-117821134D01*
X176370960Y-117963056D01*
X176275473Y-118128444D01*
X176216458Y-118310072D01*
X176196496Y-118500000D01*
X167800000Y-118500000D01*
X167800000Y-115910000D01*
X177196496Y-115910000D01*
X177197186Y-115916565D01*
X177211960Y-116057128D01*
X177216458Y-116099928D01*
X177275473Y-116281556D01*
X177370960Y-116446944D01*
X177498747Y-116588866D01*
X177653248Y-116701118D01*
X177659276Y-116703802D01*
X177659278Y-116703803D01*
X177821681Y-116776109D01*
X177827712Y-116778794D01*
X177921113Y-116798647D01*
X178008056Y-116817128D01*
X178008061Y-116817128D01*
X178014513Y-116818500D01*
X178205487Y-116818500D01*
X178211939Y-116817128D01*
X178211944Y-116817128D01*
X178298887Y-116798647D01*
X178392288Y-116778794D01*
X178398319Y-116776109D01*
X178560722Y-116703803D01*
X178560724Y-116703802D01*
X178566752Y-116701118D01*
X178721253Y-116588866D01*
X178849040Y-116446944D01*
X178944527Y-116281556D01*
X179003542Y-116099928D01*
X179008041Y-116057128D01*
X179022814Y-115916565D01*
X179023504Y-115910000D01*
X179014977Y-115828866D01*
X179004232Y-115726635D01*
X179004232Y-115726633D01*
X179003542Y-115720072D01*
X178944527Y-115538444D01*
X178849040Y-115373056D01*
X178819212Y-115339928D01*
X178725675Y-115236045D01*
X178725674Y-115236044D01*
X178721253Y-115231134D01*
X178609582Y-115150000D01*
X194756496Y-115150000D01*
X194757186Y-115156565D01*
X194771699Y-115294645D01*
X194776458Y-115339928D01*
X194835473Y-115521556D01*
X194930960Y-115686944D01*
X194935378Y-115691851D01*
X194935379Y-115691852D01*
X194966698Y-115726635D01*
X195058747Y-115828866D01*
X195213248Y-115941118D01*
X195219276Y-115943802D01*
X195219278Y-115943803D01*
X195381681Y-116016109D01*
X195387712Y-116018794D01*
X195481112Y-116038647D01*
X195568056Y-116057128D01*
X195568061Y-116057128D01*
X195574513Y-116058500D01*
X195765487Y-116058500D01*
X195771939Y-116057128D01*
X195771944Y-116057128D01*
X195858888Y-116038647D01*
X195952288Y-116018794D01*
X195958319Y-116016109D01*
X196120722Y-115943803D01*
X196120724Y-115943802D01*
X196126752Y-115941118D01*
X196281253Y-115828866D01*
X196373302Y-115726635D01*
X196404621Y-115691852D01*
X196404622Y-115691851D01*
X196409040Y-115686944D01*
X196504527Y-115521556D01*
X196563542Y-115339928D01*
X196568302Y-115294645D01*
X196582814Y-115156565D01*
X196583504Y-115150000D01*
X198256496Y-115150000D01*
X198257186Y-115156565D01*
X198271699Y-115294645D01*
X198276458Y-115339928D01*
X198335473Y-115521556D01*
X198430960Y-115686944D01*
X198435378Y-115691851D01*
X198435379Y-115691852D01*
X198466698Y-115726635D01*
X198558747Y-115828866D01*
X198713248Y-115941118D01*
X198719276Y-115943802D01*
X198719278Y-115943803D01*
X198881681Y-116016109D01*
X198887712Y-116018794D01*
X198981112Y-116038647D01*
X199068056Y-116057128D01*
X199068061Y-116057128D01*
X199074513Y-116058500D01*
X199265487Y-116058500D01*
X199271939Y-116057128D01*
X199271944Y-116057128D01*
X199358888Y-116038647D01*
X199452288Y-116018794D01*
X199458319Y-116016109D01*
X199620722Y-115943803D01*
X199620724Y-115943802D01*
X199626752Y-115941118D01*
X199781253Y-115828866D01*
X199873302Y-115726635D01*
X199904621Y-115691852D01*
X199904622Y-115691851D01*
X199909040Y-115686944D01*
X200004527Y-115521556D01*
X200063542Y-115339928D01*
X200068302Y-115294645D01*
X200082814Y-115156565D01*
X200083504Y-115150000D01*
X201756496Y-115150000D01*
X201757186Y-115156565D01*
X201771699Y-115294645D01*
X201776458Y-115339928D01*
X201835473Y-115521556D01*
X201930960Y-115686944D01*
X201935378Y-115691851D01*
X201935379Y-115691852D01*
X201966698Y-115726635D01*
X202058747Y-115828866D01*
X202213248Y-115941118D01*
X202219276Y-115943802D01*
X202219278Y-115943803D01*
X202381681Y-116016109D01*
X202387712Y-116018794D01*
X202481112Y-116038647D01*
X202568056Y-116057128D01*
X202568061Y-116057128D01*
X202574513Y-116058500D01*
X202765487Y-116058500D01*
X202771939Y-116057128D01*
X202771944Y-116057128D01*
X202858888Y-116038647D01*
X202952288Y-116018794D01*
X202958319Y-116016109D01*
X203120722Y-115943803D01*
X203120724Y-115943802D01*
X203126752Y-115941118D01*
X203281253Y-115828866D01*
X203373302Y-115726635D01*
X203404621Y-115691852D01*
X203404622Y-115691851D01*
X203409040Y-115686944D01*
X203504527Y-115521556D01*
X203563542Y-115339928D01*
X203568302Y-115294645D01*
X203582814Y-115156565D01*
X203583504Y-115150000D01*
X203572352Y-115043891D01*
X203564232Y-114966635D01*
X203564232Y-114966633D01*
X203563542Y-114960072D01*
X203504527Y-114778444D01*
X203409040Y-114613056D01*
X203281253Y-114471134D01*
X203126752Y-114358882D01*
X203120724Y-114356198D01*
X203120722Y-114356197D01*
X202958319Y-114283891D01*
X202958318Y-114283891D01*
X202952288Y-114281206D01*
X202858887Y-114261353D01*
X202771944Y-114242872D01*
X202771939Y-114242872D01*
X202765487Y-114241500D01*
X202574513Y-114241500D01*
X202568061Y-114242872D01*
X202568056Y-114242872D01*
X202481113Y-114261353D01*
X202387712Y-114281206D01*
X202381682Y-114283891D01*
X202381681Y-114283891D01*
X202219278Y-114356197D01*
X202219276Y-114356198D01*
X202213248Y-114358882D01*
X202058747Y-114471134D01*
X201930960Y-114613056D01*
X201835473Y-114778444D01*
X201776458Y-114960072D01*
X201775768Y-114966633D01*
X201775768Y-114966635D01*
X201767648Y-115043891D01*
X201756496Y-115150000D01*
X200083504Y-115150000D01*
X200072352Y-115043891D01*
X200064232Y-114966635D01*
X200064232Y-114966633D01*
X200063542Y-114960072D01*
X200004527Y-114778444D01*
X199909040Y-114613056D01*
X199781253Y-114471134D01*
X199626752Y-114358882D01*
X199620724Y-114356198D01*
X199620722Y-114356197D01*
X199458319Y-114283891D01*
X199458318Y-114283891D01*
X199452288Y-114281206D01*
X199358887Y-114261353D01*
X199271944Y-114242872D01*
X199271939Y-114242872D01*
X199265487Y-114241500D01*
X199074513Y-114241500D01*
X199068061Y-114242872D01*
X199068056Y-114242872D01*
X198981113Y-114261353D01*
X198887712Y-114281206D01*
X198881682Y-114283891D01*
X198881681Y-114283891D01*
X198719278Y-114356197D01*
X198719276Y-114356198D01*
X198713248Y-114358882D01*
X198558747Y-114471134D01*
X198430960Y-114613056D01*
X198335473Y-114778444D01*
X198276458Y-114960072D01*
X198275768Y-114966633D01*
X198275768Y-114966635D01*
X198267648Y-115043891D01*
X198256496Y-115150000D01*
X196583504Y-115150000D01*
X196572352Y-115043891D01*
X196564232Y-114966635D01*
X196564232Y-114966633D01*
X196563542Y-114960072D01*
X196504527Y-114778444D01*
X196409040Y-114613056D01*
X196281253Y-114471134D01*
X196126752Y-114358882D01*
X196120724Y-114356198D01*
X196120722Y-114356197D01*
X195958319Y-114283891D01*
X195958318Y-114283891D01*
X195952288Y-114281206D01*
X195858887Y-114261353D01*
X195771944Y-114242872D01*
X195771939Y-114242872D01*
X195765487Y-114241500D01*
X195574513Y-114241500D01*
X195568061Y-114242872D01*
X195568056Y-114242872D01*
X195481113Y-114261353D01*
X195387712Y-114281206D01*
X195381682Y-114283891D01*
X195381681Y-114283891D01*
X195219278Y-114356197D01*
X195219276Y-114356198D01*
X195213248Y-114358882D01*
X195058747Y-114471134D01*
X194930960Y-114613056D01*
X194835473Y-114778444D01*
X194776458Y-114960072D01*
X194775768Y-114966633D01*
X194775768Y-114966635D01*
X194767648Y-115043891D01*
X194756496Y-115150000D01*
X178609582Y-115150000D01*
X178566752Y-115118882D01*
X178560724Y-115116198D01*
X178560722Y-115116197D01*
X178398319Y-115043891D01*
X178398318Y-115043891D01*
X178392288Y-115041206D01*
X178298888Y-115021353D01*
X178211944Y-115002872D01*
X178211939Y-115002872D01*
X178205487Y-115001500D01*
X178014513Y-115001500D01*
X178008061Y-115002872D01*
X178008056Y-115002872D01*
X177921112Y-115021353D01*
X177827712Y-115041206D01*
X177821682Y-115043891D01*
X177821681Y-115043891D01*
X177659278Y-115116197D01*
X177659276Y-115116198D01*
X177653248Y-115118882D01*
X177498747Y-115231134D01*
X177494326Y-115236044D01*
X177494325Y-115236045D01*
X177400789Y-115339928D01*
X177370960Y-115373056D01*
X177275473Y-115538444D01*
X177216458Y-115720072D01*
X177215768Y-115726633D01*
X177215768Y-115726635D01*
X177205023Y-115828866D01*
X177196496Y-115910000D01*
X167800000Y-115910000D01*
X167800000Y-112500000D01*
X174286496Y-112500000D01*
X174287186Y-112506565D01*
X174299427Y-112623028D01*
X174306458Y-112689928D01*
X174365473Y-112871556D01*
X174368776Y-112877278D01*
X174368777Y-112877279D01*
X174372291Y-112883365D01*
X174460960Y-113036944D01*
X174588747Y-113178866D01*
X174743248Y-113291118D01*
X174749276Y-113293802D01*
X174749278Y-113293803D01*
X174911681Y-113366109D01*
X174917712Y-113368794D01*
X174983365Y-113382749D01*
X175098056Y-113407128D01*
X175098061Y-113407128D01*
X175104513Y-113408500D01*
X175295487Y-113408500D01*
X175301939Y-113407128D01*
X175301944Y-113407128D01*
X175416635Y-113382749D01*
X175482288Y-113368794D01*
X175488319Y-113366109D01*
X175650722Y-113293803D01*
X175650724Y-113293802D01*
X175656752Y-113291118D01*
X175811253Y-113178866D01*
X175939040Y-113036944D01*
X176027709Y-112883365D01*
X176031223Y-112877279D01*
X176031224Y-112877278D01*
X176034527Y-112871556D01*
X176090269Y-112700000D01*
X194756496Y-112700000D01*
X194757186Y-112706565D01*
X194775148Y-112877460D01*
X194776458Y-112889928D01*
X194835473Y-113071556D01*
X194930960Y-113236944D01*
X194935378Y-113241851D01*
X194935379Y-113241852D01*
X195049678Y-113368794D01*
X195058747Y-113378866D01*
X195213248Y-113491118D01*
X195219276Y-113493802D01*
X195219278Y-113493803D01*
X195381681Y-113566109D01*
X195387712Y-113568794D01*
X195481113Y-113588647D01*
X195568056Y-113607128D01*
X195568061Y-113607128D01*
X195574513Y-113608500D01*
X195765487Y-113608500D01*
X195771939Y-113607128D01*
X195771944Y-113607128D01*
X195858887Y-113588647D01*
X195952288Y-113568794D01*
X195958319Y-113566109D01*
X196120722Y-113493803D01*
X196120724Y-113493802D01*
X196126752Y-113491118D01*
X196281253Y-113378866D01*
X196290322Y-113368794D01*
X196404621Y-113241852D01*
X196404622Y-113241851D01*
X196409040Y-113236944D01*
X196504527Y-113071556D01*
X196563542Y-112889928D01*
X196564853Y-112877460D01*
X196582814Y-112706565D01*
X196583504Y-112700000D01*
X198251496Y-112700000D01*
X198252186Y-112706565D01*
X198270148Y-112877460D01*
X198271458Y-112889928D01*
X198330473Y-113071556D01*
X198425960Y-113236944D01*
X198430378Y-113241851D01*
X198430379Y-113241852D01*
X198544678Y-113368794D01*
X198553747Y-113378866D01*
X198708248Y-113491118D01*
X198714276Y-113493802D01*
X198714278Y-113493803D01*
X198876681Y-113566109D01*
X198882712Y-113568794D01*
X198976113Y-113588647D01*
X199063056Y-113607128D01*
X199063061Y-113607128D01*
X199069513Y-113608500D01*
X199260487Y-113608500D01*
X199266939Y-113607128D01*
X199266944Y-113607128D01*
X199353887Y-113588647D01*
X199447288Y-113568794D01*
X199453319Y-113566109D01*
X199615722Y-113493803D01*
X199615724Y-113493802D01*
X199621752Y-113491118D01*
X199776253Y-113378866D01*
X199785322Y-113368794D01*
X199899621Y-113241852D01*
X199899622Y-113241851D01*
X199904040Y-113236944D01*
X199999527Y-113071556D01*
X200058542Y-112889928D01*
X200059853Y-112877460D01*
X200077814Y-112706565D01*
X200078504Y-112700000D01*
X201746496Y-112700000D01*
X201747186Y-112706565D01*
X201765148Y-112877460D01*
X201766458Y-112889928D01*
X201825473Y-113071556D01*
X201920960Y-113236944D01*
X201925378Y-113241851D01*
X201925379Y-113241852D01*
X202039678Y-113368794D01*
X202048747Y-113378866D01*
X202203248Y-113491118D01*
X202209276Y-113493802D01*
X202209278Y-113493803D01*
X202371681Y-113566109D01*
X202377712Y-113568794D01*
X202471113Y-113588647D01*
X202558056Y-113607128D01*
X202558061Y-113607128D01*
X202564513Y-113608500D01*
X202755487Y-113608500D01*
X202761939Y-113607128D01*
X202761944Y-113607128D01*
X202848887Y-113588647D01*
X202942288Y-113568794D01*
X202948319Y-113566109D01*
X203110722Y-113493803D01*
X203110724Y-113493802D01*
X203116752Y-113491118D01*
X203271253Y-113378866D01*
X203280322Y-113368794D01*
X203394621Y-113241852D01*
X203394622Y-113241851D01*
X203399040Y-113236944D01*
X203494527Y-113071556D01*
X203553542Y-112889928D01*
X203554853Y-112877460D01*
X203572814Y-112706565D01*
X203573504Y-112700000D01*
X203562314Y-112593534D01*
X203554232Y-112516635D01*
X203554232Y-112516633D01*
X203553542Y-112510072D01*
X203494527Y-112328444D01*
X203399040Y-112163056D01*
X203271253Y-112021134D01*
X203116752Y-111908882D01*
X203110724Y-111906198D01*
X203110722Y-111906197D01*
X202948319Y-111833891D01*
X202948318Y-111833891D01*
X202942288Y-111831206D01*
X202848887Y-111811353D01*
X202761944Y-111792872D01*
X202761939Y-111792872D01*
X202755487Y-111791500D01*
X202564513Y-111791500D01*
X202558061Y-111792872D01*
X202558056Y-111792872D01*
X202471112Y-111811353D01*
X202377712Y-111831206D01*
X202371682Y-111833891D01*
X202371681Y-111833891D01*
X202209278Y-111906197D01*
X202209276Y-111906198D01*
X202203248Y-111908882D01*
X202048747Y-112021134D01*
X201920960Y-112163056D01*
X201825473Y-112328444D01*
X201766458Y-112510072D01*
X201765768Y-112516633D01*
X201765768Y-112516635D01*
X201757686Y-112593534D01*
X201746496Y-112700000D01*
X200078504Y-112700000D01*
X200067314Y-112593534D01*
X200059232Y-112516635D01*
X200059232Y-112516633D01*
X200058542Y-112510072D01*
X199999527Y-112328444D01*
X199904040Y-112163056D01*
X199776253Y-112021134D01*
X199621752Y-111908882D01*
X199615724Y-111906198D01*
X199615722Y-111906197D01*
X199453319Y-111833891D01*
X199453318Y-111833891D01*
X199447288Y-111831206D01*
X199353887Y-111811353D01*
X199266944Y-111792872D01*
X199266939Y-111792872D01*
X199260487Y-111791500D01*
X199069513Y-111791500D01*
X199063061Y-111792872D01*
X199063056Y-111792872D01*
X198976112Y-111811353D01*
X198882712Y-111831206D01*
X198876682Y-111833891D01*
X198876681Y-111833891D01*
X198714278Y-111906197D01*
X198714276Y-111906198D01*
X198708248Y-111908882D01*
X198553747Y-112021134D01*
X198425960Y-112163056D01*
X198330473Y-112328444D01*
X198271458Y-112510072D01*
X198270768Y-112516633D01*
X198270768Y-112516635D01*
X198262686Y-112593534D01*
X198251496Y-112700000D01*
X196583504Y-112700000D01*
X196572314Y-112593534D01*
X196564232Y-112516635D01*
X196564232Y-112516633D01*
X196563542Y-112510072D01*
X196504527Y-112328444D01*
X196409040Y-112163056D01*
X196281253Y-112021134D01*
X196126752Y-111908882D01*
X196120724Y-111906198D01*
X196120722Y-111906197D01*
X195958319Y-111833891D01*
X195958318Y-111833891D01*
X195952288Y-111831206D01*
X195858887Y-111811353D01*
X195771944Y-111792872D01*
X195771939Y-111792872D01*
X195765487Y-111791500D01*
X195574513Y-111791500D01*
X195568061Y-111792872D01*
X195568056Y-111792872D01*
X195481112Y-111811353D01*
X195387712Y-111831206D01*
X195381682Y-111833891D01*
X195381681Y-111833891D01*
X195219278Y-111906197D01*
X195219276Y-111906198D01*
X195213248Y-111908882D01*
X195058747Y-112021134D01*
X194930960Y-112163056D01*
X194835473Y-112328444D01*
X194776458Y-112510072D01*
X194775768Y-112516633D01*
X194775768Y-112516635D01*
X194767686Y-112593534D01*
X194756496Y-112700000D01*
X176090269Y-112700000D01*
X176093542Y-112689928D01*
X176100574Y-112623028D01*
X176112814Y-112506565D01*
X176113504Y-112500000D01*
X176095473Y-112328444D01*
X176094232Y-112316635D01*
X176094232Y-112316633D01*
X176093542Y-112310072D01*
X176034527Y-112128444D01*
X175939040Y-111963056D01*
X175822740Y-111833891D01*
X175815675Y-111826045D01*
X175815674Y-111826044D01*
X175811253Y-111821134D01*
X175656752Y-111708882D01*
X175650724Y-111706198D01*
X175650722Y-111706197D01*
X175488319Y-111633891D01*
X175488318Y-111633891D01*
X175482288Y-111631206D01*
X175388887Y-111611353D01*
X175301944Y-111592872D01*
X175301939Y-111592872D01*
X175295487Y-111591500D01*
X175104513Y-111591500D01*
X175098061Y-111592872D01*
X175098056Y-111592872D01*
X175011112Y-111611353D01*
X174917712Y-111631206D01*
X174911682Y-111633891D01*
X174911681Y-111633891D01*
X174749278Y-111706197D01*
X174749276Y-111706198D01*
X174743248Y-111708882D01*
X174588747Y-111821134D01*
X174584326Y-111826044D01*
X174584325Y-111826045D01*
X174577261Y-111833891D01*
X174460960Y-111963056D01*
X174365473Y-112128444D01*
X174306458Y-112310072D01*
X174305768Y-112316633D01*
X174305768Y-112316635D01*
X174304527Y-112328444D01*
X174286496Y-112500000D01*
X167800000Y-112500000D01*
X167800000Y-109426000D01*
X167820002Y-109357879D01*
X167873658Y-109311386D01*
X167926000Y-109300000D01*
X177361336Y-109300000D01*
X177412584Y-109310893D01*
G37*
G04 #@! TD.AperFunction*
M02*
