G04 #@! TF.GenerationSoftware,KiCad,Pcbnew,(6.0.1-0)*
G04 #@! TF.CreationDate,2022-05-03T07:14:09+06:00*
G04 #@! TF.ProjectId,Sound Sensor,536f756e-6420-4536-956e-736f722e6b69,rev?*
G04 #@! TF.SameCoordinates,Original*
G04 #@! TF.FileFunction,Soldermask,Top*
G04 #@! TF.FilePolarity,Negative*
%FSLAX46Y46*%
G04 Gerber Fmt 4.6, Leading zero omitted, Abs format (unit mm)*
G04 Created by KiCad (PCBNEW (6.0.1-0)) date 2022-05-03 07:14:09*
%MOMM*%
%LPD*%
G01*
G04 APERTURE LIST*
G04 Aperture macros list*
%AMRoundRect*
0 Rectangle with rounded corners*
0 $1 Rounding radius*
0 $2 $3 $4 $5 $6 $7 $8 $9 X,Y pos of 4 corners*
0 Add a 4 corners polygon primitive as box body*
4,1,4,$2,$3,$4,$5,$6,$7,$8,$9,$2,$3,0*
0 Add four circle primitives for the rounded corners*
1,1,$1+$1,$2,$3*
1,1,$1+$1,$4,$5*
1,1,$1+$1,$6,$7*
1,1,$1+$1,$8,$9*
0 Add four rect primitives between the rounded corners*
20,1,$1+$1,$2,$3,$4,$5,0*
20,1,$1+$1,$4,$5,$6,$7,0*
20,1,$1+$1,$6,$7,$8,$9,0*
20,1,$1+$1,$8,$9,$2,$3,0*%
G04 Aperture macros list end*
%ADD10RoundRect,0.200000X0.200000X0.275000X-0.200000X0.275000X-0.200000X-0.275000X0.200000X-0.275000X0*%
%ADD11RoundRect,0.140000X0.140000X0.170000X-0.140000X0.170000X-0.140000X-0.170000X0.140000X-0.170000X0*%
%ADD12O,2.000000X1.200000*%
%ADD13R,1.500000X0.600000*%
%ADD14RoundRect,0.250000X-2.450000X0.650000X-2.450000X-0.650000X2.450000X-0.650000X2.450000X0.650000X0*%
%ADD15RoundRect,0.200000X-0.200000X-0.275000X0.200000X-0.275000X0.200000X0.275000X-0.200000X0.275000X0*%
%ADD16R,0.800100X0.400050*%
%ADD17R,3.200001X5.000000*%
%ADD18RoundRect,0.250000X0.250000X0.475000X-0.250000X0.475000X-0.250000X-0.475000X0.250000X-0.475000X0*%
%ADD19RoundRect,0.200000X-0.275000X0.200000X-0.275000X-0.200000X0.275000X-0.200000X0.275000X0.200000X0*%
%ADD20RoundRect,0.140000X-0.140000X-0.170000X0.140000X-0.170000X0.140000X0.170000X-0.140000X0.170000X0*%
%ADD21RoundRect,0.140000X-0.170000X0.140000X-0.170000X-0.140000X0.170000X-0.140000X0.170000X0.140000X0*%
%ADD22RoundRect,0.008100X-0.551900X-0.126900X0.551900X-0.126900X0.551900X0.126900X-0.551900X0.126900X0*%
%ADD23O,0.950000X0.650000*%
%ADD24C,0.650000*%
%ADD25R,0.300000X0.700000*%
%ADD26O,0.800000X1.400000*%
%ADD27R,1.700000X1.700000*%
%ADD28O,1.700000X1.700000*%
%ADD29R,0.700000X1.925000*%
%ADD30R,1.925000X0.700000*%
%ADD31R,0.800000X0.900000*%
%ADD32R,2.000000X1.500000*%
%ADD33R,2.000000X3.800000*%
%ADD34RoundRect,0.218750X-0.218750X-0.381250X0.218750X-0.381250X0.218750X0.381250X-0.218750X0.381250X0*%
%ADD35R,0.350000X0.200000*%
%ADD36C,1.270000*%
%ADD37R,2.800000X1.500000*%
%ADD38R,6.100000X6.300000*%
%ADD39RoundRect,0.200000X0.275000X-0.200000X0.275000X0.200000X-0.275000X0.200000X-0.275000X-0.200000X0*%
%ADD40R,1.447800X1.701800*%
%ADD41R,2.209800X3.302000*%
%ADD42C,1.228000*%
G04 APERTURE END LIST*
D10*
X178115000Y-130670000D03*
X176465000Y-130670000D03*
D11*
X202390000Y-101609000D03*
X201430000Y-101609000D03*
D12*
X168620000Y-144330000D03*
X168620000Y-141830000D03*
X168620000Y-139330000D03*
D10*
X176895000Y-125850000D03*
X175245000Y-125850000D03*
D13*
X179010000Y-120735000D03*
X179010000Y-122005000D03*
X179010000Y-123275000D03*
X179010000Y-124545000D03*
X184510000Y-124545000D03*
X184510000Y-123275000D03*
X184510000Y-122005000D03*
X184510000Y-120735000D03*
D14*
X187020000Y-104639000D03*
X187020000Y-109739000D03*
X193210000Y-104669000D03*
X193210000Y-109769000D03*
D15*
X202755000Y-144740000D03*
X204405000Y-144740000D03*
D16*
X199520000Y-103890000D03*
X199520000Y-104690001D03*
X199520000Y-105489999D03*
X199520000Y-106290000D03*
X199520000Y-107089998D03*
X199520000Y-107889999D03*
X199520000Y-108690000D03*
X204120000Y-108690000D03*
X204120000Y-107889999D03*
X204120000Y-107090001D03*
X204120000Y-106290000D03*
X204120000Y-105490002D03*
X204120000Y-104690001D03*
X204120000Y-103890000D03*
D17*
X201820000Y-106290000D03*
D18*
X178620000Y-112480000D03*
X176720000Y-112480000D03*
D19*
X170240000Y-120405000D03*
X170240000Y-122055000D03*
D20*
X176790000Y-129310000D03*
X177750000Y-129310000D03*
D15*
X203425000Y-133520000D03*
X205075000Y-133520000D03*
D21*
X197990000Y-104729000D03*
X197990000Y-105689000D03*
D22*
X197445000Y-122640000D03*
X197445000Y-123140000D03*
X197445000Y-123640000D03*
X197445000Y-124140000D03*
X200255000Y-124140000D03*
X200255000Y-123640000D03*
X200255000Y-123140000D03*
X200255000Y-122640000D03*
D19*
X172000000Y-120405000D03*
X172000000Y-122055000D03*
D22*
X197385000Y-143990000D03*
X197385000Y-144490000D03*
X197385000Y-144990000D03*
X197385000Y-145490000D03*
X200195000Y-145490000D03*
X200195000Y-144990000D03*
X200195000Y-144490000D03*
X200195000Y-143990000D03*
D23*
X171430000Y-105960000D03*
D24*
X178630000Y-105960000D03*
D25*
X177780000Y-106620000D03*
X177280000Y-106620000D03*
X176780000Y-106620000D03*
X176280000Y-106620000D03*
X175780000Y-106620000D03*
X175280000Y-106620000D03*
X174780000Y-106620000D03*
X174280000Y-106620000D03*
X173780000Y-106620000D03*
X173280000Y-106620000D03*
X172780000Y-106620000D03*
X172280000Y-106620000D03*
X172530000Y-104920000D03*
X173030000Y-104920000D03*
X173530000Y-104920000D03*
X174030000Y-104920000D03*
X174530000Y-104920000D03*
X175030000Y-104920000D03*
X175530000Y-104920000D03*
X176030000Y-104920000D03*
X176530000Y-104920000D03*
X177030000Y-104920000D03*
X177530000Y-104920000D03*
X178030000Y-104920000D03*
D26*
X170540000Y-98760000D03*
X179520000Y-98760000D03*
X179160000Y-104710000D03*
X170900000Y-104710000D03*
D27*
X226100000Y-127780000D03*
D28*
X226100000Y-130320000D03*
X226100000Y-132860000D03*
X226100000Y-135400000D03*
D29*
X184670000Y-128957500D03*
X183400000Y-128957500D03*
X182130000Y-128957500D03*
D30*
X180617500Y-130470000D03*
X180617500Y-131740000D03*
X180617500Y-133010000D03*
X180617500Y-134280000D03*
X180617500Y-135550000D03*
D29*
X182130000Y-137062500D03*
X183400000Y-137062500D03*
X184670000Y-137062500D03*
X185940000Y-137062500D03*
X187210000Y-137062500D03*
D30*
X188722500Y-135550000D03*
X188722500Y-134280000D03*
X188722500Y-133010000D03*
X188722500Y-131740000D03*
X188722500Y-130470000D03*
D29*
X187210000Y-128957500D03*
X185940000Y-128957500D03*
D22*
X197445000Y-132100000D03*
X197445000Y-132600000D03*
X197445000Y-133100000D03*
X197445000Y-133600000D03*
X200255000Y-133600000D03*
X200255000Y-133100000D03*
X200255000Y-132600000D03*
X200255000Y-132100000D03*
D31*
X174130000Y-124030000D03*
X176030000Y-124030000D03*
X175080000Y-122030000D03*
D32*
X211100000Y-142050000D03*
X211100000Y-144350000D03*
X211100000Y-146650000D03*
D33*
X217400000Y-144350000D03*
D15*
X203355000Y-122480000D03*
X205005000Y-122480000D03*
D34*
X210997500Y-104569000D03*
X213122500Y-104569000D03*
D35*
X193280000Y-131870000D03*
X193280000Y-132370000D03*
X193280000Y-132870000D03*
X193280000Y-133370000D03*
X193880000Y-133370000D03*
X193880000Y-132870000D03*
X193880000Y-132370000D03*
X193880000Y-131870000D03*
D36*
X217990000Y-104640500D03*
X217990000Y-107140500D03*
D19*
X168380000Y-120425000D03*
X168380000Y-122075000D03*
D37*
X181242500Y-112437500D03*
D38*
X187542500Y-114717500D03*
D37*
X181242500Y-116997500D03*
D32*
X211220000Y-121640000D03*
X211220000Y-123940000D03*
X211220000Y-126240000D03*
D33*
X217520000Y-123940000D03*
D15*
X174155000Y-117420000D03*
X175805000Y-117420000D03*
D11*
X179070000Y-117060000D03*
X178110000Y-117060000D03*
D32*
X211220000Y-131820000D03*
X211220000Y-134120000D03*
X211220000Y-136420000D03*
D33*
X217520000Y-134120000D03*
D10*
X173025000Y-139140000D03*
X171375000Y-139140000D03*
D19*
X176950000Y-133555000D03*
X176950000Y-135205000D03*
D39*
X174980000Y-136695000D03*
X174980000Y-135045000D03*
D40*
X208103450Y-104620900D03*
D41*
X208103450Y-107884800D03*
D42*
X168390000Y-131775000D03*
X168390000Y-129275000D03*
D15*
X174165000Y-120370000D03*
X175815000Y-120370000D03*
M02*
